<?xml version="1.0" standalone="no"?>
<!DOCTYPE svg PUBLIC "-//W3C//DTD SVG 1.1//EN" "http://www.w3.org/Graphics/SVG/1.1/DTD/svg11.dtd" >
<svg xmlns="http://www.w3.org/2000/svg">
<metadata>
This is a custom SVG webfont generated by Font Squirrel.
Copyright   : Copyright c 2010 Miles Newlyn All rights reserved
Designer    : Miles Newlyn
Foundry     : Miles Newlyn
</metadata>
<defs>
<font id="FNBSansRegular" horiz-adv-x="1269" >
<font-face units-per-em="2048" ascent="1536" descent="-512" />
<missing-glyph horiz-adv-x="382" />
<glyph unicode=" "  horiz-adv-x="382" />
<glyph unicode="&#x09;" horiz-adv-x="382" />
<glyph unicode="&#xa0;" horiz-adv-x="382" />
<glyph unicode="!" horiz-adv-x="546" d="M186 1446q-2 41 20.5 59.5t67.5 18.5q43 0 67 -18.5t21 -59.5l-20 -940q0 -61 -67.5 -61.5t-67.5 61.5zM188 66v102q0 76 86 76t86 -76v-102q0 -76 -86 -76t-86 76z" />
<glyph unicode="&#x22;" horiz-adv-x="716" d="M104 1446q-2 41 20.5 59.5t68.5 18.5q43 0 66.5 -18.5t21.5 -59.5l-21 -440q0 -61 -67.5 -61.5t-67.5 61.5zM436 1446q-2 41 20.5 59.5t67.5 18.5q43 0 66.5 -18.5t21.5 -59.5l-20 -440q0 -61 -67.5 -61.5t-67.5 61.5z" />
<glyph unicode="#" d="M47 539q10 68 70 67h182l68 316h-174q-59 0 -48 67q10 68 70 68h182l86 395q12 57 86 57q82 0 66 -79l-80 -373h303l84 395q12 57 86 57q84 0 66 -79l-82 -373h166q59 0 47 -68q-8 -68 -70 -67h-174l-68 -316h166q59 0 47 -67q-8 -68 -69 -68h-174l-88 -420 q-12 -57 -86 -57q-82 0 -66 80l86 397h-303l-90 -420q-12 -57 -86 -57q-82 0 -66 80l86 397h-176q-59 0 -47 68zM455 606h303l67 316h-305z" />
<glyph unicode="$" d="M150 336q-25 76 61 102q84 29 111 -47q29 -84 108.5 -142.5t200.5 -58.5q139 0 211.5 59.5t72.5 166.5q0 96 -72.5 148t-256.5 126q-102 41 -165 73t-120 79t-84 109.5t-27 144.5q0 137 94.5 235.5t250.5 122.5v129q0 45 22.5 63.5t71.5 18.5q96 0 96 -82v-131 q135 -14 233.5 -88t135.5 -168q29 -74 -62 -102q-41 -14 -65.5 -5t-44.5 52q-33 74 -106 119t-179 45q-119 0 -188.5 -55.5t-69.5 -139.5q0 -92 66.5 -141t259.5 -129q209 -84 306 -169t97 -237q0 -156 -108.5 -261t-274.5 -132v-131q0 -82 -96 -82q-49 0 -71.5 18.5 t-22.5 63.5v129q-135 14 -240.5 99t-144.5 198z" />
<glyph unicode="%" horiz-adv-x="1525" d="M90 1006v290q0 115 75 174.5t199.5 59.5t200.5 -59.5t76 -174.5v-290q0 -115 -76 -172.5t-200.5 -57.5t-199.5 57.5t-75 172.5zM242 1006q0 -106 123 -107q125 0 124 107v290q0 109 -124 109q-123 0 -123 -111v-288zM301 11.5q-16 21.5 2 60.5l758 1398q25 47 86 48 q45 0 61.5 -21.5t-2.5 -60.5l-757 -1399q-25 -47 -87 -47q-45 0 -61 21.5zM893 211v295q0 115 74.5 176t199.5 61t200 -61t75 -176v-295q0 -115 -76 -173t-201 -58t-198.5 58t-73.5 173zM1042 211q0 -109 123 -109t123 109v295q0 115 -123 115t-123 -115v-295z" />
<glyph unicode="&#x26;" horiz-adv-x="1310" d="M68 377q0 147 72.5 245.5t240.5 215.5q-117 131 -161 208.5t-44 165.5q0 135 100.5 226.5t253.5 91.5q160 0 256.5 -91t96.5 -231q0 -121 -63.5 -202.5t-205.5 -190.5l322 -373q23 68 22 195v16q0 43 21.5 60.5t69 17.5t69 -17.5t21.5 -60.5v-20q0 -199 -80 -336 l182 -207q33 -33 11.5 -67.5t-87.5 -34.5q-57 0 -92 41l-115 131q-90 -96 -188 -140.5t-231 -44.5q-219 0 -345 113t-126 289zM254 387q0 -109 78 -182.5t209 -73.5q205 0 307 162l-367 426q-127 -92 -177 -161t-50 -171zM354 1204q0 -47 21.5 -92t46 -76.5t90.5 -107.5 q109 80 151 131t42 137q0 84 -46.5 132t-128 48t-129 -46t-47.5 -126z" />
<glyph unicode="'" horiz-adv-x="368" d="M104 1446q-2 41 20.5 59.5t68.5 18.5q43 0 66.5 -18.5t21.5 -59.5l-21 -440q0 -61 -67.5 -61.5t-67.5 61.5z" />
<glyph unicode="(" horiz-adv-x="712" d="M131 661.5q0 262.5 86 490.5t193 366q45 59 108 8q68 -51 23 -109q-90 -123 -158 -324.5t-68 -433.5v5q0 -231 68 -433t158 -325q45 -57 -23 -109q-63 -51 -108 8q-106 137 -192.5 365.5t-86.5 491z" />
<glyph unicode=")" horiz-adv-x="712" d="M172 -94q90 123 157.5 324.5t67.5 433.5v-5q0 231 -67.5 433t-157.5 325q-45 57 23 109q63 51 108 -8q106 -137 192.5 -365.5t86.5 -491t-86 -490.5t-193 -366q-45 -59 -108 -8q-68 52 -23 109z" />
<glyph unicode="*" horiz-adv-x="794" d="M74 1288q25 82 86 53l186 -88l-20 213q-6 66 73 66q39 0 59.5 -15.5t16.5 -50.5l-26 -213l186 88q61 29 86 -53q25 -76 -41 -90l-197 -45l142 -158q43 -49 -19 -98q-66 -55 -98 4l-111 191l-110 -191q-33 -59 -99 -4q-61 49 -18 98l141 158l-196 45q-66 14 -41 90z" />
<glyph unicode="+" d="M109 633q0 80 65 80h377v374q0 41 19.5 57.5t64.5 16.5q84 0 84 -74v-374h379q63 0 63 -80q0 -78 -63 -78h-379v-385q0 -72 -84 -72t-84 72v385h-377q-65 0 -65 78z" />
<glyph unicode="," horiz-adv-x="417" d="M53 -225q-35 43 2 78q59 53 78 129.5t17 230.5q0 78 88 78t88 -78q0 -133 -51.5 -254t-145.5 -195q-41 -32 -76 11z" />
<glyph unicode="-" horiz-adv-x="935" d="M111 614.5q0 73.5 63 73.5h590q61 0 61 -73.5t-61 -73.5h-590q-63 0 -63 73.5z" />
<glyph unicode="." horiz-adv-x="423" d="M123 68v143q0 78 90 78q88 0 88 -78v-143q0 -78 -88 -78q-47 0 -68.5 17.5t-21.5 60.5z" />
<glyph unicode="/" horiz-adv-x="786" d="M18 72l580 1380q27 63 94 64q45 0 64.5 -25t5.5 -61l-580 -1381q-27 -63 -94 -63q-45 0 -64.5 24.5t-5.5 61.5z" />
<glyph unicode="0" d="M141 451v591q0 475 493.5 475.5t493.5 -470.5v-596q0 -227 -121.5 -350.5t-371.5 -123.5q-494 1 -494 474zM330 465q0 -319 305 -320q164 0 234.5 78t70.5 242v563q0 160 -70.5 241t-234.5 81q-305 0 -305 -322v-563z" />
<glyph unicode="1" d="M246 1249q-8 70 57 82q209 41 266 74q20 10 38 36.5t39.5 43t58.5 16.5q76 0 75 -63v-1272h238q68 0 67 -84q0 -82 -67 -82h-664q-72 0 -71 82q0 84 71 84h238v1053l-275 -35q-63 -9 -71 65z" />
<glyph unicode="2" d="M135 106v39q0 217 97.5 351.5t371.5 261.5q195 90 256.5 159.5t61.5 178.5q0 113 -71 183.5t-200 70.5q-109 0 -186.5 -49.5t-110.5 -139.5q-27 -76 -110 -47q-90 29 -62 103q51 141 169 221t298 80q223 0 343 -119t120 -305q0 -170 -90 -272.5t-328 -213.5 q-231 -109 -296.5 -186.5t-65.5 -210.5v-45h706q72 0 72 -82q0 -84 -72 -84h-762q-74 0 -107.5 23.5t-33.5 82.5z" />
<glyph unicode="3" d="M129 283q-29 74 61 102q41 16 68 6t43 -53q33 -86 115 -139.5t198 -53.5q133 0 216 70t83 195v18q0 127 -78.5 199.5t-220.5 72.5h-57q-68 0 -68 80q0 41 15.5 59.5t52.5 18.5h61q117 0 190 64.5t73 167.5v28q0 115 -68 173.5t-192 58.5q-109 0 -173.5 -43t-105.5 -136 q-14 -41 -40 -49t-64 8q-45 16 -58.5 36t0.5 61q51 137 166 214t275 77q219 0 333.5 -103.5t114.5 -288.5v-30q0 -113 -69.5 -202t-170.5 -112q115 -23 195 -108.5t80 -237.5v-26q0 -193 -139.5 -313t-346.5 -120q-195 0 -319.5 89.5t-169.5 216.5z" />
<glyph unicode="4" d="M121 451q-16 63 14 104l664 922q47 63 119 0q35 -29 39 -53.5t-21 -61.5l-588 -819h410v235q0 45 21.5 63.5t70.5 18.5q94 0 94 -82v-235h141q72 0 72 -82q0 -84 -72 -84h-141v-307q0 -82 -94 -82q-49 0 -70.5 18.5t-21.5 63.5v307h-551q-35 0 -53.5 17.5t-32.5 56.5z " />
<glyph unicode="5" d="M160 281q-29 74 61 102q41 16 67.5 6t43.5 -53q72 -190 299 -191q141 0 219 86t78 240v41q0 313 -281 313q-78 0 -134 -29.5t-124 -93.5q-47 -43 -110 -24q-39 18 -55.5 37.5t-14.5 52.5l43 623q4 59 35.5 82.5t105.5 23.5h563q72 0 72 -82q0 -84 -72 -84h-534l-35 -477 l4 -2q119 131 316 131q188 0 299.5 -121t111.5 -348v-49q0 -229 -132 -358.5t-353 -129.5q-190 0 -309 88.5t-164 215.5z" />
<glyph unicode="6" d="M141 469v494q0 260 135.5 407.5t380.5 147.5q178 0 287 -81t152 -190q12 -43 -0.5 -62.5t-53.5 -35.5q-47 -18 -73.5 -8t-46.5 53q-74 156 -265 156q-326 0 -327 -387v-144l4 -2q45 72 137 119t211 47q207 0 332 -124t125 -343v-67q0 -209 -138.5 -340.5t-347.5 -131.5 q-244 0 -378 136.5t-134 355.5zM332 463q0 -143 83 -230.5t240 -87.5q131 0 213 88.5t82 229.5v41q0 152 -74.5 236.5t-213.5 84.5q-147 0 -238.5 -88t-91.5 -235v-39z" />
<glyph unicode="7" d="M180 1415q0 82 72 82h733q61 0 86 -74q16 -55 -14 -104q-213 -317 -367.5 -658.5t-154.5 -590.5q0 -82 -97 -82q-49 0 -71.5 18.5t-22.5 63.5q0 260 154.5 604t367.5 657h-614q-72 0 -72 84z" />
<glyph unicode="8" d="M121 393v45q0 260 272 365q-96 31 -158.5 109.5t-62.5 205.5v33q0 174 121 270.5t342 96.5t343 -96.5t122 -270.5v-33q0 -127 -62.5 -205.5t-160.5 -109.5q274 -104 274 -365v-45q0 -195 -138.5 -305.5t-378 -110.5t-376.5 110.5t-137 305.5zM309 412q0 -268 326 -268.5 t326 268.5v32q0 270 -326 271q-160 0 -243 -68.5t-83 -202.5v-32zM356 1102q0 -111 75 -170.5t204 -59.5q131 0 205.5 59.5t74.5 170.5v33q0 223 -280 223q-279 0 -279 -223v-33z" />
<glyph unicode="9" d="M119 985v59q0 203 135 338.5t364 135.5q227 0 361.5 -131.5t134.5 -354.5v-526q0 -266 -143.5 -397.5t-356.5 -131.5q-154 0 -269.5 55.5t-174.5 149.5q-37 59 35 109q43 29 69.5 24.5t55.5 -45.5q90 -125 278 -125q143 0 229.5 80t86.5 256v176q-47 -76 -136.5 -117.5 t-201.5 -41.5q-215 0 -341 135t-126 352zM309 987q0 -154 77 -243t226 -89q143 0 227.5 83t84.5 223v63q0 156 -80 241t-226 85q-141 0 -225 -83t-84 -233v-47z" />
<glyph unicode=":" horiz-adv-x="434" d="M125 68v143q0 78 90 78q88 0 88 -78v-143q0 -78 -88 -78q-47 0 -68.5 17.5t-21.5 60.5zM125 909v144q0 78 90 77q88 0 88 -77v-144q0 -78 -88 -78q-47 0 -68.5 17.5t-21.5 60.5z" />
<glyph unicode=";" horiz-adv-x="442" d="M43 -225q-35 43 2 78q59 53 77.5 129.5t16.5 230.5q0 78 88 78t88 -78q0 -133 -51 -254t-145 -195q-41 -32 -76 11zM137 909v144q0 78 90 77q88 0 88 -77v-144q0 -78 -88 -78q-47 0 -68.5 17.5t-21.5 60.5z" />
<glyph unicode="&#x3c;" horiz-adv-x="1277" d="M205 629q0 80 59 100l641 227q86 29 86 -67q0 -74 -61 -92l-518 -164l518 -164q61 -18 61 -92q0 -96 -86 -68l-639 223q-37 12 -49 34t-12 63z" />
<glyph unicode="=" horiz-adv-x="1009" d="M92 477q0 78 66 78h696q63 0 64 -78q0 -76 -64 -76h-696q-66 0 -66 76zM92 788q0 78 66 78h696q63 0 64 -78q0 -76 -64 -75h-696q-66 -1 -66 75z" />
<glyph unicode="&#x3e;" horiz-adv-x="1277" d="M205 377q0 74 61 92l518 164l-518 164q-61 18 -61 92q0 96 86 67l641 -227q59 -20 59 -100q0 -41 -12 -62.5t-49 -34.5l-639 -223q-86 -28 -86 68z" />
<glyph unicode="?" horiz-adv-x="858" d="M59 1382q145 154 353 154q178 0 280.5 -104.5t102.5 -260.5q0 -80 -35 -151.5t-86 -125.5t-101.5 -107.5t-85 -118t-34.5 -133.5v-27q0 -72 -82 -72q-43 0 -62.5 15.5t-19.5 54.5v37q0 80 33.5 152.5t81 127t95.5 105.5t81.5 110.5t33.5 118.5q0 100 -56 159.5t-167 59.5 q-125 0 -219 -100q-47 -49 -102 6q-56 53 -11 100zM285 66v102q0 76 86 76t86 -76v-102q0 -76 -86 -76t-86 76z" />
<glyph unicode="@" horiz-adv-x="1726" d="M131 455v284q0 121 46 232.5t135 204t236.5 147.5t330.5 55q195 0 339 -48t224 -131t117.5 -181t37.5 -211v-315q0 -145 -70.5 -238.5t-219.5 -93.5q-72 0 -127.5 28.5t-73.5 57.5l-21 26q-111 -121 -280 -120q-113 0 -196 70.5t-83 187.5v24q0 143 118 212t400 56v27 q0 205 -188 205q-125 0 -174 -111q-25 -51 -82 -24q-63 29 -39 78q90 180 303 180q328 0 328 -336v-326q0 -47 32.5 -83t90.5 -36q63 0 104 49.5t41 135.5v332q0 195 -136 323.5t-443 128.5q-305 0 -451.5 -150.5t-146.5 -377.5v-244q0 -225 139 -372.5t418 -147.5 q215 0 415 74q55 20 76 -43q20 -61 -33 -80q-238 -84 -458 -84q-160 0 -287 42t-205 106.5t-128 151.5t-69.5 169t-19.5 166zM672 416q0 -61 43 -100.5t114 -39.5q135 0 213 107v207q-152 4 -235.5 -16.5t-109 -54.5t-25.5 -91v-12z" />
<glyph unicode="A" horiz-adv-x="1175" d="M35 84l436 1348q14 45 42 61t79 16q100 0 125 -73l420 -1348q7 -20 7 -37q0 -22 -12 -37q-22 -27 -75 -26q-84 0 -107 71l-112 377h-508l-113 -379q-23 -70 -104 -69q-84 0 -84 59q0 17 6 37zM379 594h414l-201 684z" />
<glyph unicode="B" horiz-adv-x="1202" d="M162 106v1285q0 57 35.5 81.5t109.5 24.5h334q205 0 315.5 -98.5t110.5 -265.5v-46q0 -115 -61.5 -200.5t-159.5 -112.5q113 -18 188.5 -111.5t75.5 -228.5v-45q0 -174 -118 -281.5t-330 -107.5h-355q-74 0 -109.5 24.5t-35.5 81.5zM352 166h262q156 0 230 59.5t74 210.5 q-2 125 -76 190.5t-209 65.5h-281v-526zM352 846h258q123 0 193.5 58.5t70.5 170.5v29q0 231 -288 231h-234v-489z" />
<glyph unicode="C" horiz-adv-x="1198" d="M141 467v561q0 227 137.5 358.5t376.5 131.5q354 0 463 -301q7 -18 7 -33q0 -48 -68 -70q-23 -8 -42 -8q-49 0 -69 55q-68 188 -293 189q-150 0 -235.5 -86t-85.5 -246v-537q0 -158 78.5 -247t240.5 -89q111 0 184.5 52.5t106.5 138.5q16 43 43 53q10 4 23 4q20 0 45 -10 q68 -22 68 -69q0 -15 -7 -33q-45 -125 -164 -214.5t-301 -89.5q-508 1 -508 490z" />
<glyph unicode="D" horiz-adv-x="1306" d="M162 106v1285q0 57 35.5 81.5t109.5 24.5h361q238 0 366.5 -135t128.5 -354v-527q0 -213 -129 -347t-366 -134h-361q-74 0 -109.5 24.5t-35.5 81.5zM352 166h281q342 0 342 340v481q0 160 -83 252t-259 92h-281v-1165z" />
<glyph unicode="E" horiz-adv-x="1052" d="M162 106v1285q0 59 33.5 82.5t107.5 23.5h590q72 0 72 -82q0 -84 -72 -84h-541v-483h488q72 0 71 -82q0 -84 -71 -84h-488v-516h539q72 0 72 -82q0 -84 -72 -84h-588q-74 0 -107.5 23.5t-33.5 82.5z" />
<glyph unicode="F" horiz-adv-x="983" d="M162 70v1321q0 59 33.5 82.5t107.5 23.5h563q72 0 72 -82q0 -84 -72 -84h-514v-520h467q70 0 70 -82t-70 -82h-467v-577q0 -82 -96 -82q-49 0 -71.5 18.5t-22.5 63.5z" />
<glyph unicode="G" horiz-adv-x="1298" d="M141 455v571q0 236 141.5 364t387.5 128q379 0 491 -306q7 -18 7 -33q0 -48 -68 -69q-25 -10 -45 -10q-12 0 -23 4q-27 10 -43 53q-72 193 -313 193q-170 0 -257 -81t-87 -268v-528q0 -328 338 -328q63 0 119.5 15.5t106.5 49.5t80 97.5t30 151.5v170h-258q-66 0 -66 76 q0 74 66 73h303q74 0 107.5 -23.5t33.5 -82.5v-228q0 -211 -146.5 -339t-383.5 -128q-248 0 -384.5 125.5t-136.5 352.5z" />
<glyph unicode="H" horiz-adv-x="1380" d="M162 70v1357q0 45 22.5 63.5t71.5 18.5q96 0 96 -82v-589h678v589q0 82 96 82q49 0 72 -18t23 -64v-1357q0 -45 -22.5 -63.5t-72.5 -18.5q-96 0 -96 82v600h-678v-600q0 -82 -96 -82q-49 0 -71.5 18.5t-22.5 63.5z" />
<glyph unicode="I" horiz-adv-x="534" d="M172 70v1357q0 45 22.5 63.5t71.5 18.5q96 0 96 -82v-1357q0 -82 -96 -82q-49 0 -71.5 18.5t-22.5 63.5z" />
<glyph unicode="J" horiz-adv-x="897" d="M49 111q-26 23 -26 52q0 30 28 66q30 39 64 40q26 0 55 -23q115 -88 201 -88q207 0 207 239v1030q0 45 22.5 63.5t71.5 18.5q96 0 96 -82v-1015q0 -217 -103.5 -326t-289.5 -109q-179 1 -326 134z" />
<glyph unicode="K" horiz-adv-x="1157" d="M162 70v1357q0 45 22.5 63.5t71.5 18.5q96 0 96 -82v-643l563 693q27 33 82 32q66 0 88 -36q9 -14 9 -29q0 -24 -23 -49l-420 -510l443 -787q14 -21 13 -41q0 -18 -11 -34q-25 -35 -90 -35q-72 0 -101 53l-381 707l-172 -211v-467q0 -82 -96 -82q-49 0 -71.5 18.5 t-22.5 63.5z" />
<glyph unicode="L" horiz-adv-x="1005" d="M162 82v1345q0 45 22.5 63.5t71.5 18.5q96 0 96 -82v-1261h578h2q72 0 72 -82q0 -84 -72 -84h-676q-49 0 -71.5 18.5t-22.5 63.5z" />
<glyph unicode="M" horiz-adv-x="1628" d="M162 70v1337q0 102 143 102q123 0 152 -90l227 -755q78 -256 129 -488h4q45 219 129 488l232 757q27 88 147 88q141 0 141 -100v-1339q0 -76 -90 -76q-86 0 -86 76v833q0 246 10 387h-4l-374 -1233q-20 -63 -115 -63q-90 0 -111 67l-366 1227h-4q10 -219 10 -385v-833 q0 -76 -88 -76q-86 0 -86 76z" />
<glyph unicode="N" horiz-adv-x="1394" d="M162 74v1333q0 102 143 102q106 0 141 -65l396 -768q123 -236 217 -477h4q-12 199 -12 428v803q0 80 92 79q90 0 90 -79v-1336q0 -100 -139 -100q-102 0 -138 63l-419 811q-72 137 -201 430h-4q12 -193 12 -391v-833q0 -80 -92 -80q-90 0 -90 80z" />
<glyph unicode="O" horiz-adv-x="1363" d="M141 528v441q0 260 139.5 404.5t401.5 144.5t401.5 -144.5t139.5 -404.5v-441q0 -260 -139.5 -404t-401.5 -144t-401.5 144t-139.5 404zM330 520q0 -172 85 -272.5t267 -100.5t267 100.5t85 272.5v457q0 172 -85 272.5t-267 100.5t-267 -100.5t-85 -272.5v-457z" />
<glyph unicode="P" horiz-adv-x="1153" d="M162 70v1321q0 59 33.5 82.5t107.5 23.5h297q469 0 469 -434v-66q0 -438 -471 -438h-246v-489q0 -82 -96 -82q-49 0 -71.5 18.5t-22.5 63.5zM352 723h234q164 0 228.5 68.5t64.5 216.5v45q0 145 -64.5 211.5t-230.5 66.5h-232v-608z" />
<glyph unicode="Q" horiz-adv-x="1363" d="M141 530v357q0 47 4 129q10 229 141.5 365.5t395.5 136.5t395 -136.5t142 -365.5q4 -82 4 -129v-332q0 -395 -238 -516l145 -260q11 -17 11 -32t-9 -29q-19 -28 -75 -27q-57 0 -80 43l-141 258q-66 -14 -154 -15q-541 0 -541 553zM332 479q0 -143 80 -230t223 -97 q25 -3 50 -3q33 0 65 5l-129 235q-11 17 -11 32t10 29q19 28 72 27q57 0 80 -43l127 -233q135 86 135 276v475q0 195 -81 296.5t-271 101.5t-270 -100.5t-80 -295.5v-475z" />
<glyph unicode="R" horiz-adv-x="1187" d="M162 70v1321q0 59 33.5 82.5t107.5 23.5h318q449 0 448 -410v-83q0 -307 -266 -394l282 -512q14 -21 14 -41q0 -18 -12 -34q-25 -35 -90 -35q-72 0 -100 53l-287 545h-258v-516q0 -82 -96 -82q-49 0 -71.5 18.5t-22.5 63.5zM352 748h256q270 0 271 268v59 q0 131 -64.5 193.5t-220.5 62.5h-242v-583z" />
<glyph unicode="S" horiz-adv-x="1081" d="M70 270q-7 18 -7 33q0 48 68 70q23 8 42 8q49 0 69 -55q63 -184 301 -185q115 0 191.5 58.5t76.5 175.5q0 109 -61.5 169t-235.5 144q-223 104 -319.5 195.5t-96.5 257.5q0 170 122 273.5t315 103.5q172 0 283.5 -76t158.5 -199q7 -18 7 -33q0 -48 -69 -69q-21 -7 -38 -7 q-49 0 -72 54q-31 76 -100.5 120t-167.5 44q-252 0 -252 -211q0 -66 45 -118t86 -76.5t172 -88.5q20 -10 30 -16q199 -96 291 -193q94 -98 95 -272q0 -178 -126 -288q-128 -112 -337 -112q-188 0 -306 80t-165 213z" />
<glyph unicode="T" horiz-adv-x="1042" d="M-20 1415q0 82 71 82h940q72 0 72 -82q0 -84 -72 -84h-375v-1261q0 -82 -96 -82q-49 0 -71.5 18.5t-22.5 63.5v1261h-375q-71 0 -71 84z" />
<glyph unicode="U" horiz-adv-x="1320" d="M145 420v1007q0 45 22.5 63.5t72.5 18.5q96 0 96 -82v-987q0 -295 321 -295q164 0 248 76t84 219v990q0 80 92.5 79.5t92.5 -79.5v-1010q0 -197 -134.5 -320t-382.5 -123q-252 0 -382 122t-130 321z" />
<glyph unicode="V" horiz-adv-x="1177" d="M43 1409q-6 21 -6 38q0 63 86 62q84 0 106 -71l203 -686q86 -293 154 -584h4q57 250 155 582l209 690q23 70 105 69q84 0 84 -59q0 -16 -6 -37l-422 -1343q-14 -49 -44 -65.5t-83 -16.5q-109 0 -131 78z" />
<glyph unicode="W" horiz-adv-x="1744" d="M35 1409q-5 20 -6 36q0 64 86 64q90 0 106 -71l141 -635q90 -399 123 -635h4q35 236 121 633l148 639q16 70 108 69q47 0 73 -14t36 -55l151 -635q90 -375 131 -637h5q23 143 122 637l140 635q14 70 104 69q82 0 82 -64q0 -14 -4 -32l-320 -1343q-12 -49 -41.5 -65.5 t-84.5 -16.5q-111 0 -130 78l-161 708q-68 285 -103 461h-2q-37 -213 -92 -461l-158 -704q-12 -49 -41.5 -65.5t-85.5 -16.5q-113 0 -131 78z" />
<glyph unicode="X" horiz-adv-x="1183" d="M54 22q-11 16 -11 32q0 19 14 38l426 662l-401 643q-14 20 -14 38q0 17 11 32q24 34 87 34q66 0 96 -51l328 -551l336 553q31 51 94 51q61 0 85 -33q11 -15 11 -31q0 -18 -14 -38l-410 -643l432 -668q14 -20 14 -38q0 -16 -11 -32q-24 -33 -85 -32q-63 0 -94 51l-360 573 l-350 -573q-31 -51 -97 -51q-63 0 -87 34z" />
<glyph unicode="Y" horiz-adv-x="1120" d="M31 1468q23 33 86 33q70 0 96 -51l350 -664l350 666q27 51 95 51q61 0 84 -32q11 -15 10 -32q0 -18 -12 -38l-435 -789v-542q0 -82 -96 -82q-49 0 -71.5 18.5t-22.5 63.5v540l-432 787q-13 20 -13 39q0 16 11 32z" />
<glyph unicode="Z" horiz-adv-x="1114" d="M74 74q-6 19 -6 37q0 35 20 67l731 1153h-641q-72 0 -72 84q0 82 72 82h772q61 0 86 -74q6 -19 6 -37q0 -35 -20 -67l-731 -1153h706q72 0 72 -82q0 -84 -72 -84h-837q-61 0 -86 74z" />
<glyph unicode="[" horiz-adv-x="684" d="M172 -190v1654q0 53 30.5 75t98.5 22h256q66 0 66 -76t-66 -76h-203v-1544h203q66 0 66 -76t-66 -76h-256q-68 0 -98.5 22t-30.5 75z" />
<glyph unicode="\" horiz-adv-x="772" d="M45 1430q-14 37 5.5 61.5t64.5 24.5q68 0 94 -64l579 -1380q14 -37 -5 -61.5t-64 -24.5q-68 0 -94 63z" />
<glyph unicode="]" horiz-adv-x="684" d="M63 -211q0 76 66 76h203v1544h-203q-66 0 -66 76t66 76h256q68 0 98.5 -21.5t30.5 -75.5v-1654q0 -53 -30.5 -75t-98.5 -22h-256q-66 0 -66 76z" />
<glyph unicode="^" d="M276 793l250 639q25 66 113 65q45 0 69.5 -14.5t39.5 -52.5l245 -637q31 -94 -75 -95q-82 0 -101 68l-184 539l-180 -539q-18 -68 -101 -68q-107 1 -76 95z" />
<glyph unicode="_" horiz-adv-x="790" d="M-2 -133h795v-103h-795v103z" />
<glyph unicode="`" horiz-adv-x="636" d="M159.5 1554.5q18.5 28.5 67.5 28.5q61 0 90 -41l156 -237q16 -25 4 -41.5t-47 -16.5q-45 0 -76 37l-188 215q-25 27 -6.5 55.5z" />
<glyph unicode="a" horiz-adv-x="1054" d="M82 303v10q0 190 151 274q122 67 375 66q63 0 133 -4v70q0 139 -54 202.5t-171 63.5q-150 0 -213 -137q-19 -42 -57 -42q-20 0 -45 11q-56 25 -56 65q0 16 9 33q111 223 376 224q186 0 289 -108.5t103 -307.5v-660q0 -76 -88 -75q-45 0 -67 17.5t-22 57.5v68 q-139 -152 -333 -151q-143 0 -236.5 90t-93.5 233zM264 315q0 -80 54.5 -131t140.5 -51q166 0 282 133v260q-41 1 -78 2q-206 0 -294 -39q-104 -45 -105 -163v-11z" />
<glyph unicode="b" horiz-adv-x="1161" d="M147 66v1400q0 80 92.5 80t92.5 -80v-524q47 76 137 136.5t205 60.5q180 0 279.5 -113t99.5 -324v-280q0 -209 -119 -325.5t-295 -116.5q-121 0 -200 47t-113 112v-73q0 -78 -90 -78q-89 0 -89 78zM332 406q0 -119 75.5 -196t198.5 -77q264 0 264 309v232q0 309 -245 309 q-117 0 -205 -88t-88 -221v-268z" />
<glyph unicode="c" horiz-adv-x="1019" d="M109 414v293q0 207 122.5 319.5t313.5 112.5q145 0 247.5 -71t139.5 -194q5 -18 5 -31q0 -19 -9 -31q-16 -22 -62 -32q-22 -7 -40 -6q-15 0 -26 4q-26 10 -38 53q-20 68 -74.5 111t-142.5 43q-115 0 -184.5 -72.5t-69.5 -222.5v-266q0 -145 67.5 -218t186.5 -73 q168 0 223 125q18 41 42 51q10 4 22 5q17 0 40 -9q65 -22 65 -66q0 -15 -7 -32q-94 -227 -393 -227q-193 0 -310.5 111.5t-117.5 322.5z" />
<glyph unicode="d" horiz-adv-x="1163" d="M109 406v296q0 199 109.5 318t291.5 119q211 0 321 -142v469q0 80 92.5 80t92.5 -80v-1400q0 -78 -88 -78q-90 0 -90 78v75q-45 -66 -129 -113.5t-199 -47.5q-180 0 -290.5 111.5t-110.5 314.5zM291 428q0 -147 71.5 -221t200.5 -74q123 0 197 81t74 198v303 q0 121 -80 195.5t-199 74.5q-123 0 -193.5 -78t-70.5 -241v-238z" />
<glyph unicode="e" horiz-adv-x="1073" d="M109 412v297q0 197 120.5 313.5t313.5 116.5q207 0 321.5 -115t114.5 -342v-88q0 -102 -107 -102h-583v-80q0 -129 65.5 -204t196.5 -75q174 0 246 123q20 37 43.5 44t60.5 -11q56 -24 57 -65q0 -18 -12 -40q-111 -205 -395 -204q-213 0 -327.5 115.5t-114.5 316.5z M289 629h512v80q0 129 -64.5 202.5t-193.5 73.5q-117 0 -185.5 -74.5t-68.5 -201.5v-80z" />
<glyph unicode="f" horiz-adv-x="722" d="M66 1042q0 76 65 76h82v88q0 168 82 256t231 88q145 0 236 -96q22 -23 22 -46q0 -28 -30 -56q-33 -29 -55.5 -30t-49.5 28q-45 47 -121 47q-131 0 -131 -170v-109h254q66 0 66 -76q0 -74 -66 -73h-254v-901q0 -80 -92 -80t-92 80v901h-82q-65 -1 -65 73z" />
<glyph unicode="g" horiz-adv-x="1069" d="M57 -111q0 209 203 293q-100 51 -100 146q0 104 108 159q-166 92 -166 285v12q0 168 113 261.5t303 93.5q156 0 262 -64q127 80 226 80q63 0 63 -71.5t-63 -71.5q-49 0 -144 -4q72 -84 72 -209v-35q0 -154 -113.5 -243t-308.5 -89q-84 0 -141 17q-55 -29 -56 -72 q0 -59 117 -78l254 -37q182 -29 256 -108.5t74 -237.5q0 -154 -124 -255t-360 -101q-231 0 -353 85.5t-122 243.5zM231 -84q0 -213 304 -213q307 0 307 211q0 88 -42 132t-167 63l-189 28l-47 8q-166 -59 -166 -229zM272 778q0 -209 246 -209t246 209q0 109 -63.5 166 t-182.5 57t-182.5 -57t-63.5 -166z" />
<glyph unicode="h" horiz-adv-x="1144" d="M147 68v1398q0 80 92.5 80t92.5 -80v-518q141 190 352 191q158 0 242 -96.5t84 -264.5v-710q0 -80 -92 -80q-47 0 -69 18.5t-22 61.5v663q0 129 -49 191.5t-153 62.5q-92 0 -171 -60.5t-122 -148.5v-708q0 -80 -92.5 -80t-92.5 80z" />
<glyph unicode="i" horiz-adv-x="475" d="M145 68v979q0 80 92.5 79.5t92.5 -79.5v-979q0 -80 -92.5 -80t-92.5 80zM145 1356v110q0 80 92.5 80t92.5 -80v-110q0 -80 -92.5 -80t-92.5 80z" />
<glyph unicode="j" horiz-adv-x="493" d="M14 -281q80 70 116 149t36 216v963q0 80 92 79.5t92 -79.5v-961q0 -307 -211 -496q-27 -23 -53 -22l-66 35q-32 36 -32 66q0 27 26 50zM164 1356v110q0 80 92 80t92 -80v-110q0 -80 -92 -80t-92 80z" />
<glyph unicode="k" horiz-adv-x="1003" d="M147 68v1398q0 80 92.5 80t92.5 -80v-835l418 459q35 41 94 40q63 0 82 -36q6 -12 6 -24q0 -25 -27 -52l-315 -336l366 -584q14 -22 15 -42q0 -17 -10 -33q-23 -35 -87 -35q-74 0 -106 53l-311 512l-125 -131v-354q0 -80 -92.5 -80t-92.5 80z" />
<glyph unicode="l" horiz-adv-x="479" d="M147 68v1398q0 80 92.5 80t92.5 -80v-1398q0 -80 -92.5 -80t-92.5 80z" />
<glyph unicode="m" horiz-adv-x="1687" d="M147 68v981q0 78 89 77q90 0 90 -77v-99q49 80 132 134.5t187 54.5q111 0 178.5 -57.5t96.5 -141.5q125 199 335 199q137 0 217 -91.5t80 -238.5v-741q0 -80 -92 -80t-92 80v692q0 223 -168 223q-86 0 -154.5 -57.5t-103.5 -147.5v-710q0 -80 -92 -80t-92 80v698 q0 217 -170 217q-92 0 -159 -59.5t-97 -143.5v-712q0 -80 -92.5 -80t-92.5 80z" />
<glyph unicode="n" horiz-adv-x="1142" d="M147 68v981q0 78 89 77q92 0 92 -77v-103q145 193 360 193q158 0 239 -96.5t81 -256.5v-718q0 -80 -92.5 -80t-92.5 80v663q0 119 -42 186.5t-156 67.5q-94 0 -172 -60.5t-121 -148.5v-708q0 -80 -92.5 -80t-92.5 80z" />
<glyph unicode="o" horiz-adv-x="1128" d="M109 399v312q0 203 120.5 315.5t333.5 112.5q219 0 338 -112t119 -316v-303q0 -201 -120 -314.5t-337 -113.5q-215 0 -334.5 111t-119.5 308zM291 420q0 -287 272 -287q274 0 275 291v270q0 291 -275 291q-127 0 -199.5 -71.5t-72.5 -219.5v-274z" />
<glyph unicode="p" horiz-adv-x="1157" d="M147 -356v1405q0 78 89 77q92 0 92 -77v-109q47 78 138 138.5t206 60.5q180 0 280.5 -113t100.5 -324v-280q0 -207 -120 -324.5t-296 -117.5q-117 0 -193.5 47t-111.5 112v-495q0 -80 -92.5 -80t-92.5 80zM330 399q0 -117 75.5 -191.5t200.5 -74.5q262 0 262 309v232 q0 309 -243 309q-117 0 -206 -88t-89 -221v-275z" />
<glyph unicode="q" horiz-adv-x="1163" d="M106 403v306q0 197 113 313.5t293 116.5q221 0 324 -162v72q0 78 92 77q88 0 88 -77v-1405q0 -80 -92.5 -80t-92.5 80v491q-117 -156 -327 -155q-176 0 -287 114t-111 309zM289 424q0 -141 69.5 -216t190.5 -75q131 0 208 75t77 210v297q0 113 -77 191.5t-198 78.5 q-129 0 -199.5 -82t-70.5 -221v-258z" />
<glyph unicode="r" horiz-adv-x="704" d="M147 68v981q0 78 90.5 77.5t90.5 -77.5v-154q47 100 137 171t178 71q39 0 52.5 -19.5t13.5 -60.5q0 -51 -20 -77q-18 -24 -56 -24h-6q-109 0 -190 -72.5t-105 -160.5v-655q0 -80 -92.5 -80t-92.5 80z" />
<glyph unicode="s" horiz-adv-x="907" d="M84 213q-6 16 -6 30q0 46 63 66q20 6 37 7q48 0 68 -52q51 -135 219 -135q92 0 148.5 45t56.5 117q0 70 -58.5 117t-142.5 76.5t-168 64.5t-142.5 105.5t-58.5 174.5q0 137 101.5 223.5t265.5 86.5q258 0 346 -217q7 -17 7 -32q0 -43 -64 -65q-37 -14 -61.5 -5t-41.5 50 q-51 117 -196 117q-88 0 -138.5 -40t-50.5 -111q0 -63 58.5 -105.5t142.5 -71t169 -65.5t143.5 -111.5t58.5 -187.5q0 -135 -103.5 -225t-271.5 -90q-299 0 -381 233z" />
<glyph unicode="t" horiz-adv-x="729" d="M23 1042q0 76 65 76h107v215q0 78 90 78t90 -78v-215h180q66 0 66 -76q0 -74 -66 -73h-178v-641q0 -100 39 -137t133 -37h35q37 0 52 -18.5t15 -59.5q0 -76 -67 -76h-58q-164 0 -247.5 68.5t-83.5 248.5v652h-107q-65 -1 -65 73z" />
<glyph unicode="u" horiz-adv-x="1144" d="M135 311v736q0 80 92 79.5t92 -79.5v2v-707q0 -102 46.5 -155.5t130.5 -53.5q184 0 317 174v740q0 80 92 79.5t92 -79.5v-979q0 -78 -88 -78q-92 0 -92 78v82q-166 -170 -368 -170q-150 0 -232 86.5t-82 244.5z" />
<glyph unicode="v" horiz-adv-x="950" d="M27 1026q-7 20 -7 37q0 22 12 37q22 27 74 26q84 0 107 -71l158 -484q82 -264 108 -411h4q23 129 111 411l147 486q23 70 103 69q49 0 69 -25q12 -15 12 -37q0 -15 -5 -34l-320 -960q-14 -45 -42 -61.5t-79 -16.5q-100 0 -125 74z" />
<glyph unicode="w" horiz-adv-x="1445" d="M45 1026q-5 20 -5 36q0 64 85 64q88 0 104 -71l121 -484q53 -233 76 -405h4q20 152 84 405l123 496q16 59 100 59q82 0 97 -61l120 -496q66 -305 78 -401h4q20 150 82 405l119 490q16 63 94 63q74 0 74 -56q0 -14 -4 -32l-262 -972q-12 -43 -38 -57.5t-75 -14.5 q-96 0 -115 67l-106 433q-59 258 -74 385h-4q-23 -156 -78 -385l-110 -426q-12 -43 -39 -58.5t-76 -15.5q-100 0 -119 69z" />
<glyph unicode="x" horiz-adv-x="940" d="M69 18q-9 14 -9 28q0 18 14 38l301 481l-299 461q-13 20 -14 39q0 15 10 30q20 32 78 31q68 0 96 -49l237 -381l226 383q29 47 94 47q55 0 75 -30q9 -14 8 -28q0 -18 -14 -38l-299 -471l297 -471q13 -20 14 -39q0 -15 -10 -30q-20 -32 -77 -31q-68 0 -97 49l-231 391 l-231 -393q-29 -47 -95 -47q-55 -1 -74 30z" />
<glyph unicode="y" horiz-adv-x="935" d="M18 1026q-7 20 -7 37q0 22 13 37q22 27 74 26q84 0 107 -71l272 -830l266 832q23 70 103 69q49 0 70 -25q12 -15 13 -36q0 -16 -7 -35l-377 -1057q-94 -268 -291 -395q-23 -14 -44 -14q-36 0 -69 41q-24 35 -23 62q0 31 32 50q158 102 229 297z" />
<glyph unicode="z" horiz-adv-x="958" d="M70 53q-5 16 -6 31q0 25 16 47l551 834h-469q-68 0 -68 75q0 78 68 78h631q49 0 63 -53q5 -16 5 -31q0 -25 -15 -47l-547 -833h528q68 0 68 -76q0 -78 -68 -78h-694q-49 0 -63 53z" />
<glyph unicode="{" horiz-adv-x="739" d="M53 633q0 68 49 76q96 16 138.5 66t42.5 151v321q0 152 53 237t184 85h68q66 0 65.5 -76t-65.5 -76h-33q-51 0 -77.5 -30.5t-26.5 -83.5v-420q0 -94 -60.5 -161t-154.5 -83v-4q94 -18 154.5 -84t60.5 -168v-406q0 -121 108 -120h29q66 0 65.5 -76t-65.5 -76h-68 q-238 0 -237 287v381q0 78 -46.5 125t-130.5 57q-53 6 -53 78z" />
<glyph unicode="|" horiz-adv-x="497" d="M162 -471v2042q0 76 86 76q45 0 66.5 -17.5t21.5 -58.5v-2042q0 -41 -21.5 -58.5t-66.5 -17.5q-86 0 -86 76z" />
<glyph unicode="}" horiz-adv-x="743" d="M90 -219q0 76 66 76h32q51 0 78 30.5t27 83.5v420q0 94 60.5 160.5t154.5 83.5v4q-94 18 -154.5 83.5t-60.5 168.5v405q0 121 -109 121h-28q-66 0 -66 76t66 76h67q238 0 238 -287v-381q0 -78 46 -125t130 -57q53 -6 53 -78q0 -68 -49 -76q-96 -16 -138 -66t-42 -151 v-321q0 -152 -53.5 -237t-184.5 -85h-67q-66 0 -66 76z" />
<glyph unicode="~" d="M176 614q39 61 99.5 106.5t127.5 45.5q84 0 236 -59.5t219 -59.5q59 0 115 74q37 53 92 12q55 -43 27 -86q-39 -59 -98.5 -104t-127.5 -45q-100 0 -247.5 58t-208.5 58q-59 0 -115 -73q-37 -53 -92 -13q-56 43 -27 86z" />
<glyph unicode="&#xa1;" horiz-adv-x="546" d="M186 -309l21 940q0 61 67.5 61t67.5 -61l20 -940q2 -41 -21.5 -59.5t-66.5 -18.5q-45 0 -67.5 18.5t-20.5 59.5zM188 969v102q0 76 86 76t86 -76v-102q0 -76 -86 -76t-86 76z" />
<glyph unicode="&#xa2;" d="M219 414v293q0 178 92 286.5t244 134.5v109q0 45 20.5 63.5t69.5 18.5q92 0 92 -82v-104q115 -18 194 -86t111 -173q12 -41 -4 -62t-61 -32q-41 -12 -66.5 -2t-38.5 53q-20 68 -74.5 111t-142.5 43q-115 0 -184.5 -72.5t-69.5 -222.5v-266q0 -145 68 -218t186 -73 q168 0 224 125q18 41 41.5 51t62.5 -4q86 -29 57 -98q-78 -188 -303 -221v-113q0 -82 -92 -82q-49 0 -69.5 18.5t-20.5 63.5v115q-154 25 -245 133.5t-91 292.5z" />
<glyph unicode="&#xa3;" d="M141 737q0 78 68 78h119q-4 31 -20.5 128t-16.5 157q0 197 122 307.5t310 110.5q150 0 250 -72t147 -193q14 -39 0 -60.5t-57 -39.5q-78 -31 -105 45q-59 162 -243 162q-102 0 -170 -65.5t-68 -188.5q0 -57 17.5 -156.5t21.5 -134.5h299q68 0 68 -78q0 -80 -68 -80 l-293 2q6 -303 -108 -501h661q68 0 68 -78q0 -80 -68 -80h-821q-43 0 -59 51q-12 45 8 74q139 193 139 473q0 39 -2 61l-131 -2q-68 0 -68 80z" />
<glyph unicode="&#xa4;" d="M66 610q0 74 63 74h117v143h-117q-63 0 -63 72q0 74 63 74h117v55q0 225 134 357.5t359 132.5q186 0 309 -80t175 -221q29 -74 -62 -103q-84 -29 -110 47q-33 90 -117 142.5t-201 52.5q-297 0 -297 -338v-45h367q59 0 59 -74q0 -72 -59 -72h-367v-143h367q59 0 59 -74 q0 -72 -59 -71h-367v-58q0 -346 297 -346q238 0 314 201q16 43 42.5 53t67.5 -6q90 -29 62 -102q-45 -125 -164 -214.5t-301 -89.5q-254 0 -381 128t-127 362v72h-117q-63 -1 -63 71z" />
<glyph unicode="&#xa5;" d="M104.5 1468.5q22.5 32.5 85.5 32.5q70 0 97 -51l350 -664l350 666q27 51 94 51q61 0 84 -31.5t-2 -70.5l-434 -789v-34h254q63 0 64 -78q0 -76 -64 -76h-254v-354q0 -82 -96 -82q-49 0 -71.5 18.5t-22.5 63.5v354h-252q-66 0 -66 76q0 78 66 78h252v32l-433 787 q-24 39 -1.5 71.5z" />
<glyph unicode="&#xa6;" horiz-adv-x="483" d="M162 367v2v-2q0 76 86 75q45 0 66.5 -17t21.5 -58v-844q0 -41 -21.5 -58.5t-66.5 -17.5q-86 0 -86 76v844zM162 727v844v2v-2q0 76 86 76q45 0 66.5 -17.5t21.5 -58.5v-844q0 -41 -21.5 -58.5t-66.5 -17.5q-86 0 -86 76z" />
<glyph unicode="&#xa7;" horiz-adv-x="1024" d="M141 57q-23 68 56 95q80 25 102 -46q51 -152 213 -151q90 0 141.5 43t51.5 127q0 80 -62.5 135t-200.5 119q-141 66 -206.5 137.5t-65.5 183.5q0 90 56.5 164t152.5 99q-233 104 -234 297q0 115 94.5 196.5t262.5 81.5q127 0 215 -59.5t127 -151.5q29 -66 -56 -94 q-37 -12 -61.5 -3t-38.5 48q-47 121 -186 121q-86 0 -130 -38t-44 -99.5t51 -109.5t203 -114q158 -68 225 -144.5t67 -195.5q0 -94 -62 -166.5t-150 -99.5q236 -117 235 -305q0 -139 -107.5 -226t-279.5 -87q-135 0 -233.5 65t-135.5 178zM338 700.5q0 -75.5 56.5 -130 t133.5 -54.5q84 0 131.5 50t47.5 126q0 82 -56.5 133.5t-142.5 51.5q-80 0 -125 -50.5t-45 -126z" />
<glyph unicode="&#xa8;" horiz-adv-x="843" d="M154 1337v111q0 72 84 72q82 0 81 -72v-111q0 -74 -81 -73q-84 -1 -84 73zM524 1337v111q0 72 84 72q82 0 82 -72v-111q0 -74 -82 -73q-84 -1 -84 73z" />
<glyph unicode="&#xa9;" horiz-adv-x="1558" d="M47 731q0 307 213 517t518 210q326 0 530.5 -204.5t204.5 -522.5q0 -303 -216 -517t-519 -214q-324 0 -527.5 198.5t-203.5 532.5zM172 731q0 -272 170 -443t438 -171q252 0 430.5 181t178.5 433q0 260 -172.5 435t-436.5 175q-260 0 -434 -177t-174 -433zM461 610v217 q0 156 92 240t233 84q109 0 185 -53.5t104 -145.5q16 -55 -59 -73q-59 -16 -74 39q-35 111 -154 110q-82 0 -132 -54t-50 -163v-190q0 -106 48 -159.5t134 -53.5q117 0 156 92q14 31 30.5 37t45.5 -5q76 -27 53 -77q-70 -168 -293 -168q-143 0 -231 82.5t-88 240.5z" />
<glyph unicode="&#xaa;" horiz-adv-x="813" d="M82 932v20q0 133 113.5 191.5t367.5 52.5v29q0 172 -162 172q-113 0 -157 -84q-25 -45 -78 -23q-59 27 -35 74q78 154 272 154q152 0 232 -81t80 -225v-438q0 -63 -72 -63q-76 0 -76 63v31q-113 -100 -243 -100q-98 0 -170 62.5t-72 164.5zM223 938q0 -55 38 -86t101 -31 q109 0 201 92v179q-195 2 -267.5 -31t-72.5 -113v-10z" />
<glyph unicode="&#xab;" horiz-adv-x="1105" d="M104 602q0 39 48 105l227 327q37 57 104 13q68 -43 27 -101l-238 -344l238 -344q41 -57 -27 -100q-68 -45 -104 12l-227 328q-48 67 -48 104zM547 602q0 39 47 105l227 327q37 57 105 13q68 -43 26 -101l-237 -344l237 -344q41 -57 -26 -100q-68 -45 -105 12l-227 328 q-47 67 -47 104z" />
<glyph unicode="&#xac;" d="M104 637q0 72 60 72h907q57 0 57 -72v-471q0 -57 -67.5 -57t-67.5 57v401h-829q-60 0 -60 70z" />
<glyph unicode="&#xad;" horiz-adv-x="944" d="M125 614.5q0 73.5 63 73.5h590q61 0 61.5 -73.5t-61.5 -73.5h-590q-63 0 -63 73.5z" />
<glyph unicode="&#xae;" horiz-adv-x="1048" d="M90 1096q0 178 128 304t306 126q188 0 311 -122t123 -308q0 -176 -126.5 -299t-307.5 -123q-188 0 -311 118t-123 304zM180 1096q0 -152 95.5 -248t248.5 -96q145 0 244.5 100t99.5 244q0 156 -96 253t-248 97q-145 0 -244.5 -101.5t-99.5 -248.5zM375 911v367 q0 27 14 37t47 10h105q72 0 110.5 -39t38.5 -92v-16q0 -98 -84 -129l68 -125q12 -18 1 -34t-40 -16q-31 0 -43 25l-68 139h-67v-127q0 -37 -41 -37t-41 37zM457 1108h65q47 0 65.5 16.5t18.5 53.5v10q0 68 -74 67h-75v-147z" />
<glyph unicode="&#xaf;" horiz-adv-x="937" d="M203 1415q0 74 63 74h410q61 0 61 -74t-61 -74h-410q-63 0 -63 74z" />
<glyph unicode="&#xb0;" horiz-adv-x="827" d="M82 1204q0 135 98.5 230.5t233.5 95.5q147 0 239 -89t92 -237q0 -133 -98 -228t-233 -95q-145 0 -238.5 90t-93.5 233zM221 1204q0 -80 55.5 -135t135.5 -55t136 55t56 135q0 82 -54 137.5t-138 55.5q-80 0 -135.5 -55.5t-55.5 -137.5z" />
<glyph unicode="&#xb1;" d="M109 76q0 78 65 78h377v403h-377q-66 0 -65 76q0 78 65 78h377v376q0 41 19.5 57.5t64.5 16.5q84 0 84 -74v-376h379q63 0 63 -78q0 -76 -63 -76h-379v-403h379q63 0 63 -78q0 -76 -63 -76h-924q-65 0 -65 76z" />
<glyph unicode="&#xb2;" horiz-adv-x="665" d="M61 786v33q0 109 50.5 179.5t162.5 127.5q59 31 79 41.5t52.5 34t43 44t10.5 48.5q0 43 -32 72t-91 29q-113 0 -160 -92q-25 -47 -78 -21q-59 25 -30 76q92 160 274 160q117 0 187.5 -58.5t70.5 -163.5q0 -92 -59.5 -148t-202.5 -126q-82 -41 -109.5 -81t-27.5 -103h336 q55 0 55 -61.5t-55 -61.5h-379q-97 -1 -97 71z" />
<glyph unicode="&#xb3;" horiz-adv-x="661" d="M59 856q-20 49 41 72q55 18 78 -31q31 -72 146 -72q57 0 94 29t37 84v12q0 55 -39 88t-109 33h-39q-47 0 -47 57q0 59 47 60h54q55 0 94 26.5t39 73.5v6q0 47 -33 75t-90 28q-115 0 -156 -78q-14 -27 -29.5 -33t-42.5 4q-59 20 -41 68q29 70 102 115t171 45 q127 0 192.5 -60.5t65.5 -150.5v-17q0 -63 -37 -107t-88 -53q53 -18 89 -65t36 -111v-20q0 -102 -70.5 -167t-193.5 -65q-104 0 -173 42t-98 112z" />
<glyph unicode="&#xb4;" horiz-adv-x="636" d="M177 1263.5q-13 16.5 3 41.5l158 239q25 37 94 37q43 0 59.5 -23.5t-8.5 -56.5l-184 -217q-31 -37 -76 -37q-33 0 -46 16.5z" />
<glyph unicode="&#xb5;" horiz-adv-x="1144" d="M147 -356v1403q0 80 92.5 79.5t92.5 -79.5v2v-646q0 -109 63.5 -176t161.5 -67q102 0 181 79.5t87 125.5v682q0 80 92.5 79.5t92.5 -79.5v-981q0 -76 -86 -76q-88 0 -88 76v106q-100 -193 -281 -192q-80 0 -139.5 36.5t-83.5 94.5v-467q0 -80 -92.5 -80t-92.5 80z" />
<glyph unicode="&#xb6;" horiz-adv-x="1169" d="M47 956q0 246 159 397.5t453 151.5h392q57 0 57 -67q0 -66 -57 -66h-95v-1599q0 -70 -82 -70q-80 0 -79 70v1599h-131v-878h-136q-219 0 -350 117.5t-131 344.5z" />
<glyph unicode="&#xb7;" horiz-adv-x="501" d="M162 559v143q0 78 90 78q88 0 88 -78v-143q0 -78 -88 -78q-47 0 -68.5 17.5t-21.5 60.5z" />
<glyph unicode="&#xb8;" horiz-adv-x="868" d="M242 -299q27 41 63 20q68 -39 115 -38q92 0 92 71v8q0 72 -121 72q-25 0 -33 10.5t-8 30.5v166h119v-123q78 -2 124 -45t46 -106v-19q0 -66 -56.5 -115t-154.5 -49q-86 0 -174 54q-37 20 -12 63z" />
<glyph unicode="&#xb9;" horiz-adv-x="571" d="M55 1350q-6 49 41 57q121 29 144 43q12 8 24 23.5t25.5 24.5t36.5 9q59 0 59 -45v-628h107q49 0 49 -59.5t-49 -59.5h-357q-51 0 -51 59.5t51 59.5h109v485l-138 -16q-45 -6 -51 47z" />
<glyph unicode="&#xba;" horiz-adv-x="811" d="M76 995v238q0 135 92 210t235 75q152 0 241 -74t89 -215v-234q0 -143 -90 -216.5t-240 -73.5q-152 0 -239.5 74.5t-87.5 215.5zM219 1008q0 -182 184 -183q186 0 187 183v209q0 180 -187 180q-184 0 -184 -180v-209z" />
<glyph unicode="&#xbb;" horiz-adv-x="1103" d="M147 258l238 344l-238 344q-41 57 27 101q68 45 105 -13l227 -327q47 -66 47 -105q0 -37 -47 -104l-227 -328q-37 -57 -105 -12q-68 43 -27 100zM590 258l237 344l-237 344q-41 57 26 101q68 45 105 -13l227 -327q47 -66 47 -105q0 -37 -47 -104l-227 -328 q-37 -57 -105 -12q-67 43 -26 100z" />
<glyph unicode="&#xbc;" horiz-adv-x="1536" d="M90 1309q-6 49 41 57q123 29 143 43q12 8 24.5 23.5t26 24.5t35.5 9q59 0 60 -45v-628h102q49 0 49 -59.5t-49 -59.5h-352q-51 0 -51 59.5t51 59.5h109v485l-138 -16q-45 -6 -51 47zM355.5 8.5q-15.5 22.5 0.5 54.5l746 1399q33 55 82 56q39 0 55 -22.5t0 -53.5 l-745 -1401q-29 -55 -84 -55q-39 0 -54.5 22.5zM848 279q-12 45 10 73l361 539q33 45 84 0q45 -35 12 -82l-305 -465h194v109q0 57 66 57q70 0 69 -57v-109h64q51 0 51 -59.5t-51 -59.5h-64v-119q0 -57 -69 -57q-66 0 -66 57v119h-295q-43 1 -61 54z" />
<glyph unicode="&#xbd;" horiz-adv-x="1634" d="M90 1309q-6 49 41 57q123 29 143 43q12 8 24.5 23.5t26 24.5t35.5 9q59 0 60 -45v-628h102q49 0 49 -59.5t-49 -59.5h-352q-51 0 -51 59.5t51 59.5h109v485l-138 -16q-45 -6 -51 47zM355.5 8.5q-15.5 22.5 0.5 54.5l746 1399q33 55 82 56q39 0 55 -22.5t0 -53.5 l-745 -1401q-29 -55 -84 -55q-39 0 -54.5 22.5zM1006 180v33q0 109 50 179.5t163 127.5q59 31 78.5 41t52 33.5t43 44t10.5 49.5q0 43 -32 71.5t-91 28.5q-113 0 -160 -92q-25 -47 -78 -20q-59 25 -30 76q92 160 274 159q117 0 187.5 -58t70.5 -163q0 -92 -59.5 -148.5 t-202.5 -125.5q-82 -41 -109.5 -81t-27.5 -104h336q55 0 55 -61t-55 -61h-379q-96 -1 -96 71z" />
<glyph unicode="&#xbe;" horiz-adv-x="1548" d="M92 793q29 -70 97.5 -112t172.5 -42q123 0 194 64.5t71 166.5v21q0 63 -36 110.5t-89 65.5q51 8 88 52t37 108v16q0 90 -65.5 150.5t-192.5 60.5q-98 0 -171 -45t-102 -115q-18 -47 41 -67q27 -10 42.5 -4t29.5 32q41 78 156 78q57 0 87.5 -27.5t30.5 -74.5v-6 q0 -47 -37.5 -74t-91.5 -27h-53q-47 0 -47 -59q0 -57 47 -57h39q68 0 105.5 -33t37.5 -88v-13q0 -55 -34.5 -83.5t-92.5 -28.5q-115 0 -145 72q-23 49 -78 30q-61 -22 -41 -71zM377.5 8.5q-15.5 22.5 1.5 54.5l745 1399q29 55 82 56q39 0 55.5 -22.5t0.5 -53.5l-746 -1401 q-29 -55 -84 -55q-39 0 -54.5 22.5zM860 279q-12 45 10 73l361 539q33 45 84 0q45 -35 12 -82l-305 -465h195v109q0 57 65 57q70 0 70 -57v-109h63q51 0 51 -59.5t-51 -59.5h-63v-119q0 -57 -70 -57q-66 0 -65 57v119h-295q-44 1 -62 54z" />
<glyph unicode="&#xbf;" horiz-adv-x="897" d="M86 -84q0 80 35 151.5t86 126t101 107.5t85 117.5t35 134.5v27q0 72 82 71q43 0 62.5 -15t19.5 -54v-37q0 -80 -34 -153t-81 -127t-95 -105t-82 -110.5t-34 -119.5q0 -100 56.5 -159.5t166.5 -59.5q125 0 220 101q47 49 102 -7q55 -53 10 -100q-145 -154 -352 -154 q-178 0 -280.5 104.5t-102.5 260.5zM424 920v102q0 76 86 76t86 -76v-102q0 -76 -86 -76t-86 76z" />
<glyph unicode="&#xc0;" horiz-adv-x="1175" d="M35 84l436 1348q14 45 42 61t79 16q100 0 125 -73l420 -1348q16 -47 -5.5 -73.5t-74.5 -26.5q-84 0 -107 71l-112 377h-508l-113 -379q-23 -70 -104 -69q-107 0 -78 96zM303.5 1953.5q18.5 28.5 67.5 28.5q61 0 90 -40l155 -238q16 -25 4 -41t-47 -16q-45 0 -75 36 l-189 215q-24 27 -5.5 55.5zM379 594h414l-201 684z" />
<glyph unicode="&#xc1;" horiz-adv-x="1175" d="M35 84l436 1348q14 45 42 61t79 16q100 0 125 -73l420 -1348q16 -47 -5.5 -73.5t-74.5 -26.5q-84 0 -107 71l-112 377h-508l-113 -379q-23 -70 -104 -69q-107 0 -78 96zM379 594h414l-201 684zM550 1665q-13 16 3 41l158 240q25 37 94 36q43 0 59.5 -23.5t-8.5 -55.5 l-184 -217q-31 -37 -76 -37q-33 0 -46 16z" />
<glyph unicode="&#xc2;" horiz-adv-x="1175" d="M35 84l436 1348q14 45 42 61t79 16q100 0 125 -73l420 -1348q16 -47 -5.5 -73.5t-74.5 -26.5q-84 0 -107 71l-112 377h-508l-113 -379q-23 -70 -104 -69q-107 0 -78 96zM357.5 1667.5q-13.5 22.5 7.5 46.5l141 205q25 35 90.5 35t89.5 -35l137 -205q20 -25 7 -47t-58 -22 q-47 0 -63 26l-115 176l-115 -176q-16 -27 -63 -26q-45 0 -58.5 22.5zM379 594h414l-201 684z" />
<glyph unicode="&#xc3;" horiz-adv-x="1175" d="M35 84l436 1348q14 45 42 61t79 16q100 0 125 -73l420 -1348q16 -47 -5.5 -73.5t-74.5 -26.5q-84 0 -107 71l-112 377h-508l-113 -379q-23 -70 -104 -69q-107 0 -78 96zM289 1800q72 111 186 111q55 0 130 -46t102 -46q45 0 84 45q37 45 79 10q49 -37 23 -76 q-72 -111 -186 -110q-61 0 -132 46t-100 46q-45 0 -84 -45q-37 -45 -80 -11q-49 37 -22 76zM379 594h414l-201 684z" />
<glyph unicode="&#xc4;" horiz-adv-x="1175" d="M35 84l436 1348q14 45 42 61t79 16q100 0 125 -73l420 -1348q16 -47 -5.5 -73.5t-74.5 -26.5q-84 0 -107 71l-112 377h-508l-113 -379q-23 -70 -104 -69q-107 0 -78 96zM324 1751v111q0 72 84 71q82 0 81 -71v-111q0 -74 -81 -74q-84 0 -84 74zM379 594h414l-201 684z M694 1751v111q0 72 84 71q82 0 82 -71v-111q0 -74 -82 -74q-84 0 -84 74z" />
<glyph unicode="&#xc5;" horiz-adv-x="1165" d="M35 84l436 1348q14 45 42 61t79 16q100 0 125 -73l420 -1348q16 -47 -5.5 -73.5t-74.5 -26.5q-84 0 -107 71l-112 377h-508l-113 -379q-23 -70 -104 -69q-107 0 -78 96zM379 594h414l-201 684zM416 1790q0 76 52 126t128 50q78 0 129 -49t51 -127q0 -74 -52 -124 t-128 -50q-80 0 -130 50t-50 124zM512 1790q0 -37 23.5 -60.5t60.5 -23.5q35 0 59.5 24.5t24.5 59.5q0 39 -22.5 61.5t-61.5 22.5q-37 0 -60.5 -23.5t-23.5 -60.5z" />
<glyph unicode="&#xc6;" horiz-adv-x="1703" d="M56.5 18.5q-21.5 30.5 0.5 71.5l633 1317q43 90 115 90h739q72 0 72 -82q0 -84 -72 -84h-540v-483h487q72 0 72 -82q0 -84 -72 -84h-487v-516h538q72 0 72 -82q0 -84 -72 -84h-588q-74 0 -107.5 23.5t-33.5 82.5v228h-444l-140 -297q-23 -49 -90 -49q-61 0 -82.5 30.5z M444 494h369v772z" />
<glyph unicode="&#xc7;" horiz-adv-x="1198" d="M141 467v561q0 227 137.5 358.5t376.5 131.5q354 0 463 -301q29 -74 -61 -103q-84 -29 -111 47q-68 188 -293 189q-150 0 -235.5 -86t-85.5 -246v-537q0 -158 78.5 -247t240.5 -89q111 0 184.5 52.5t106.5 138.5q16 43 43 53t68 -6q90 -29 61 -102q-43 -119 -150.5 -205 t-273.5 -96v-86q78 -2 124 -45.5t46 -106.5v-18q0 -66 -56 -115t-155 -49q-86 0 -174 53q-37 20 -12 63q27 41 63 21q68 -39 115 -39q92 0 92 72v8q0 72 -121 72q-25 0 -33 10t-8 30v132q-430 36 -430 485z" />
<glyph unicode="&#xc8;" horiz-adv-x="1052" d="M162 106v1285q0 59 33.5 82.5t107.5 23.5h590q72 0 72 -82q0 -84 -72 -84h-541v-483h488q72 0 71 -82q0 -84 -71 -84h-488v-516h539q72 0 72 -82q0 -84 -72 -84h-588q-74 0 -107.5 23.5t-33.5 82.5zM294.5 1953.5q18.5 28.5 67.5 28.5q61 0 91 -40l155 -238q16 -25 4 -41 t-47 -16q-45 0 -76 36l-188 215q-25 27 -6.5 55.5z" />
<glyph unicode="&#xc9;" horiz-adv-x="1052" d="M162 106v1285q0 59 33.5 82.5t107.5 23.5h590q72 0 72 -82q0 -84 -72 -84h-541v-483h488q72 0 71 -82q0 -84 -71 -84h-488v-516h539q72 0 72 -82q0 -84 -72 -84h-588q-74 0 -107.5 23.5t-33.5 82.5zM523.5 1663q-13.5 16 2.5 41l158 240q25 37 94 36q43 0 59.5 -23.5 t-8.5 -55.5l-184 -218q-31 -37 -76 -36q-32 0 -45.5 16z" />
<glyph unicode="&#xca;" horiz-adv-x="1052" d="M162 106v1285q0 59 33.5 82.5t107.5 23.5h590q72 0 72 -82q0 -84 -72 -84h-541v-483h488q72 0 71 -82q0 -84 -71 -84h-488v-516h539q72 0 72 -82q0 -84 -72 -84h-588q-74 0 -107.5 23.5t-33.5 82.5zM318.5 1675.5q-13.5 22.5 7.5 46.5l141 205q25 35 90.5 35t89.5 -35 l137 -205q20 -25 7 -47t-58 -22q-47 0 -63 26l-115 176l-115 -176q-16 -27 -63 -26q-45 0 -58.5 22.5z" />
<glyph unicode="&#xcb;" horiz-adv-x="1052" d="M162 106v1285q0 59 33.5 82.5t107.5 23.5h590q72 0 72 -82q0 -84 -72 -84h-541v-483h488q72 0 71 -82q0 -84 -71 -84h-488v-516h539q72 0 72 -82q0 -84 -72 -84h-588q-74 0 -107.5 23.5t-33.5 82.5zM287 1751v111q0 72 84 71q82 0 82 -71v-111q0 -74 -82 -74 q-84 0 -84 74zM657 1751v111q0 72 84 71q82 0 82 -71v-111q0 -74 -82 -74q-84 0 -84 74z" />
<glyph unicode="&#xcc;" horiz-adv-x="534" d="M-14.5 1958q18.5 29 67.5 29q61 0 90 -41l156 -238q16 -25 4 -41t-47 -16q-45 0 -76 37l-188 215q-25 26 -6.5 55zM172 70v1357q0 45 22.5 63.5t71.5 18.5q96 0 96 -82v-1357q0 -82 -96 -82q-49 0 -71.5 18.5t-22.5 63.5z" />
<glyph unicode="&#xcd;" horiz-adv-x="534" d="M172 70v1357q0 45 22.5 63.5t71.5 18.5q96 0 96 -82v-1357q0 -82 -96 -82q-49 0 -71.5 18.5t-22.5 63.5zM224.5 1663q-13.5 16 2.5 41l158 240q25 37 94 36q43 0 59.5 -23.5t-8.5 -55.5l-184 -218q-31 -37 -76 -36q-32 0 -45.5 16z" />
<glyph unicode="&#xce;" horiz-adv-x="534" d="M33.5 1669.5q-13.5 22.5 7.5 46.5l141 205q25 35 90.5 35t89.5 -35l138 -205q20 -25 7 -47t-58 -22q-47 0 -64 26l-115 176l-114 -176q-16 -27 -64 -26q-45 0 -58.5 22.5zM172 70v1357q0 45 22.5 63.5t71.5 18.5q96 0 96 -82v-1357q0 -82 -96 -82q-49 0 -71.5 18.5 t-22.5 63.5z" />
<glyph unicode="&#xcf;" horiz-adv-x="534" d="M-2 1751v111q0 72 84 71q82 0 82 -71v-111q0 -74 -82 -74q-84 0 -84 74zM172 70v1357q0 45 22.5 63.5t71.5 18.5q96 0 96 -82v-1357q0 -82 -96 -82q-49 0 -71.5 18.5t-22.5 63.5zM369 1751v111q0 72 84 71q82 0 82 -71v-111q0 -74 -82 -74q-84 0 -84 74z" />
<glyph unicode="&#xd0;" horiz-adv-x="1306" d="M12 768q0 74 64 74h86v549q0 57 35.5 81.5t109.5 24.5h361q238 0 366.5 -135t128.5 -354v-527q0 -213 -129 -347t-366 -134h-361q-74 0 -109.5 24.5t-35.5 81.5v588h-86q-64 0 -64 74zM352 166h281q342 0 342 340v481q0 160 -83 252t-259 92h-281v-489h279q61 0 61 -74 t-61 -74h-279v-528z" />
<glyph unicode="&#xd1;" horiz-adv-x="1394" d="M162 74v1333q0 102 143 102q106 0 141 -65l396 -768q123 -236 217 -477h4q-12 199 -12 428v803q0 80 92 79q90 0 90 -79v-1336q0 -100 -139 -100q-102 0 -138 63l-419 811q-72 137 -201 430h-4q12 -193 12 -391v-833q0 -80 -92 -80q-90 0 -90 80zM408 1800 q72 111 186 111q55 0 130 -46t101 -46q45 0 84 45q37 45 80 10q49 -37 23 -76q-72 -111 -187 -110q-61 0 -131.5 46t-99.5 46q-45 0 -84 -45q-37 -45 -80 -11q-49 37 -22 76z" />
<glyph unicode="&#xd2;" horiz-adv-x="1363" d="M141 528q0 -260 139.5 -404t401.5 -144t401.5 144t139.5 404v441q0 260 -139.5 404.5t-401.5 144.5t-401.5 -144.5t-139.5 -404.5v-441zM330 520v457q0 172 85 272.5t267 100.5t267 -100.5t85 -272.5v-457q0 -172 -85 -272.5t-267 -100.5t-267 100.5t-85 272.5z M407.5 1956q18.5 29 67.5 29q61 0 90 -41l156 -238q16 -25 4 -41t-47 -16q-45 0 -76 37l-188 215q-25 26 -6.5 55z" />
<glyph unicode="&#xd3;" horiz-adv-x="1363" d="M141 528v441q0 260 139.5 404.5t401.5 144.5t401.5 -144.5t139.5 -404.5v-441q0 -260 -139.5 -404t-401.5 -144t-401.5 144t-139.5 404zM330 520q0 -172 85 -272.5t267 -100.5t267 100.5t85 272.5v457q0 172 -85 272.5t-267 100.5t-267 -100.5t-85 -272.5v-457zM638 1665 q-13 16 3 41l158 240q25 37 94 36q43 0 59.5 -23.5t-8.5 -55.5l-184 -217q-31 -37 -76 -37q-33 0 -46 16z" />
<glyph unicode="&#xd4;" horiz-adv-x="1363" d="M141 528v441q0 260 139.5 404.5t401.5 144.5t401.5 -144.5t139.5 -404.5v-441q0 -260 -139.5 -404t-401.5 -144t-401.5 144t-139.5 404zM330 520q0 -172 85 -272.5t267 -100.5t267 100.5t85 272.5v457q0 172 -85 272.5t-267 100.5t-267 -100.5t-85 -272.5v-457z M445.5 1667.5q-13.5 22.5 7.5 46.5l141 205q25 35 90.5 35t89.5 -35l137 -205q20 -25 7 -47t-58 -22q-47 0 -63 26l-115 176l-115 -176q-16 -27 -63 -26q-45 0 -58.5 22.5z" />
<glyph unicode="&#xd5;" horiz-adv-x="1363" d="M141 528q0 -260 139.5 -404t401.5 -144t401.5 144t139.5 404v441q0 260 -139.5 404.5t-401.5 144.5t-401.5 -144.5t-139.5 -404.5v-441zM330 520v457q0 172 85 272.5t267 100.5t267 -100.5t85 -272.5v-457q0 -172 -85 -272.5t-267 -100.5t-267 100.5t-85 272.5zM379 1802 q72 111 186 111q55 0 130 -46t102 -46q45 0 84 45q37 45 80 10q49 -37 22 -76q-72 -111 -186 -110q-61 0 -132 46t-100 46q-45 0 -84 -45q-37 -45 -80 -11q-49 37 -22 76z" />
<glyph unicode="&#xd6;" horiz-adv-x="1363" d="M141 528q0 -260 139.5 -404t401.5 -144t401.5 144t139.5 404v441q0 260 -139.5 404.5t-401.5 144.5t-401.5 -144.5t-139.5 -404.5v-441zM330 520v457q0 172 85 272.5t267 100.5t267 -100.5t85 -272.5v-457q0 -172 -85 -272.5t-267 -100.5t-267 100.5t-85 272.5zM414 1749 v111q0 72 84 71q82 0 82 -71v-111q0 -74 -82 -74q-84 0 -84 74zM784 1749v111q0 72 84 71q82 0 82 -71v-111q0 -74 -82 -74q-84 0 -84 74z" />
<glyph unicode="&#xd7;" d="M190 309l324 322l-324 330q-55 53 6.5 110t112.5 6l324 -329l328 329q49 51 110.5 -6t5.5 -110l-329 -328l327 -324q55 -55 -6 -112.5t-113 -6.5l-323 324l-324 -324q-51 -51 -112.5 6.5t-6.5 112.5z" />
<glyph unicode="&#xd8;" horiz-adv-x="1363" d="M141 461v477q0 281 126 430.5t415 149.5q188 0 324 -80l47 84q33 55 82 55q39 0 55 -22.5t0 -53.5l-82 -145q115 -131 115 -326v-475q0 -283 -126 -430.5t-415 -147.5q-184 0 -313 70l-52 -90q-29 -55 -84 -55q-39 0 -54 22.5t1 55.5l82 147q-121 127 -121 334zM332 479 q0 -94 35 -168l548 969q-88 70 -233 70q-168 0 -259 -89.5t-91 -244.5v-537zM459 205q84 -59 223 -60q168 0 260 88.5t92 243.5v537q0 88 -30 155z" />
<glyph unicode="&#xd9;" horiz-adv-x="1320" d="M145 420v1007q0 45 22.5 63.5t72.5 18.5q96 0 96 -82v-987q0 -295 321 -295q164 0 248 76t84 219v990q0 80 92.5 79.5t92.5 -79.5v-1010q0 -197 -134.5 -320t-382.5 -123q-252 0 -382 122t-130 321zM395.5 1951.5q18.5 28.5 67.5 28.5q61 0 90 -41l156 -237 q16 -25 3.5 -41t-46.5 -16q-45 0 -76 36l-189 215q-24 27 -5.5 55.5z" />
<glyph unicode="&#xda;" horiz-adv-x="1320" d="M145 420v1007q0 45 22.5 63.5t72.5 18.5q96 0 96 -82v-987q0 -295 321 -295q164 0 248 76t84 219v990q0 80 92.5 79.5t92.5 -79.5v-1010q0 -197 -134.5 -320t-382.5 -123q-252 0 -382 122t-130 321zM617.5 1661q-13.5 16 3.5 41l157 240q25 37 94 36q43 0 59.5 -23.5 t-7.5 -56.5l-185 -217q-31 -37 -75 -36q-33 0 -46.5 16z" />
<glyph unicode="&#xdb;" horiz-adv-x="1320" d="M145 420v1007q0 45 22.5 63.5t72.5 18.5q96 0 96 -82v-987q0 -295 321 -295q164 0 248 76t84 219v990q0 80 92.5 79.5t92.5 -79.5v-1010q0 -197 -134.5 -320t-382.5 -123q-252 0 -382 122t-130 321zM431 1675.5q-13 22.5 7 46.5l142 205q25 35 90 35t90 -35l137 -205 q20 -25 7 -47t-58 -22q-47 0 -64 26l-114 176l-115 -176q-16 -27 -64 -26q-45 0 -58 22.5z" />
<glyph unicode="&#xdc;" horiz-adv-x="1320" d="M145 420v1007q0 45 22.5 63.5t72.5 18.5q96 0 96 -82v-987q0 -295 321 -295q164 0 248 76t84 219v990q0 80 92.5 79.5t92.5 -79.5v-1010q0 -197 -134.5 -320t-382.5 -123q-252 0 -382 122t-130 321zM389 1751v111q0 72 84 71q82 0 82 -71v-111q0 -74 -82 -74 q-84 0 -84 74zM760 1751v111q0 72 84 71q82 0 82 -71v-111q0 -74 -82 -74q-84 0 -84 74z" />
<glyph unicode="&#xdd;" horiz-adv-x="1120" d="M30.5 1468.5q22.5 32.5 86.5 32.5q70 0 96 -51l350 -664l350 666q27 51 95 51q61 0 83.5 -31.5t-1.5 -70.5l-435 -789v-542q0 -82 -96 -82q-49 0 -71.5 18.5t-22.5 63.5v540l-432 787q-25 39 -2.5 71.5zM537.5 1663q-13.5 16 3.5 41l157 240q25 37 95 36q43 0 59 -23.5 t-8 -55.5l-185 -218q-31 -37 -75 -36q-33 0 -46.5 16z" />
<glyph unicode="&#xde;" horiz-adv-x="1150" d="M162 70v1357q0 45 22.5 63.5t71.5 18.5q96 0 96 -82l-2 -182h234q238 0 362.5 -111.5t124.5 -336.5v-86q0 -213 -128 -325t-343 -112h-248v-204q0 -82 -96 -82q-49 0 -71.5 18.5t-22.5 63.5zM352 438h230q303 0 303 279v69q0 293 -322 293h-211v-641z" />
<glyph unicode="&#xdf;" horiz-adv-x="1200" d="M145 23v1075q0 432 426 432q207 0 309.5 -113.5t102.5 -257.5v-33q0 -211 -152 -278q119 -31 202 -129t83 -256v-72q0 -178 -90 -294.5t-295 -116.5q-170 0 -282 108q-51 49 12 109q33 29 54.5 30.5t55.5 -26.5q76 -68 158 -68q205 0 205 262v62q0 154 -87 229.5 t-220 75.5h-45q-68 0 -68 80q0 41 15.5 59.5t52.5 18.5h28q190 0 191 223q0 104 -58.5 165.5t-175.5 61.5q-127 0 -183 -68.5t-56 -216.5v-1062q0 -23 -25 -23h-133q-25 0 -25 23z" />
<glyph unicode="&#xe0;" horiz-adv-x="1054" d="M82 303v10q0 190 151.5 273.5t507.5 62.5v70q0 139 -54 202.5t-171 63.5q-150 0 -213 -137q-29 -63 -102 -31q-78 35 -47 98q111 223 376 224q186 0 289 -108.5t103 -307.5v-660q0 -76 -88 -75q-45 0 -67 17.5t-22 57.5v68q-139 -152 -333 -151q-143 0 -236.5 90 t-93.5 233zM243.5 1554.5q18.5 28.5 67.5 28.5q61 0 90 -41l156 -237q16 -25 4 -41.5t-47 -16.5q-45 0 -76 37l-188 215q-25 27 -6.5 55.5zM264 315q0 -80 54.5 -131t140.5 -51q166 0 282 133v260q-268 8 -372.5 -37t-104.5 -163v-11z" />
<glyph unicode="&#xe1;" horiz-adv-x="1054" d="M82 303v10q0 190 151.5 273.5t507.5 62.5v70q0 139 -54 202.5t-171 63.5q-150 0 -213 -137q-29 -63 -102 -31q-78 35 -47 98q111 223 376 224q186 0 289 -108.5t103 -307.5v-660q0 -76 -88 -75q-45 0 -67 17.5t-22 57.5v68q-139 -152 -333 -151q-143 0 -236.5 90 t-93.5 233zM264 315q0 -80 54.5 -131t140.5 -51q166 0 282 133v260q-268 8 -372.5 -37t-104.5 -163v-11zM482.5 1263.5q-13.5 16.5 2.5 41.5l158 239q25 37 94 37q43 0 59.5 -23.5t-8.5 -56.5l-184 -217q-31 -37 -76 -37q-32 0 -45.5 16.5z" />
<glyph unicode="&#xe2;" horiz-adv-x="1054" d="M82 303v10q0 190 151.5 273.5t507.5 62.5v70q0 139 -54 202.5t-171 63.5q-150 0 -213 -137q-29 -63 -102 -31q-78 35 -47 98q111 223 376 224q186 0 289 -108.5t103 -307.5v-660q0 -76 -88 -75q-45 0 -67 17.5t-22 57.5v68q-139 -152 -333 -151q-143 0 -236.5 90 t-93.5 233zM264 315q0 -80 54.5 -131t140.5 -51q166 0 282 133v260q-268 8 -372.5 -37t-104.5 -163v-11zM287.5 1277.5q-13.5 22.5 7.5 47.5l141 205q25 35 90.5 35t89.5 -35l138 -205q20 -25 7 -47.5t-59 -22.5q-47 0 -63 27l-115 176l-114 -176q-16 -27 -64 -27 q-45 0 -58.5 22.5z" />
<glyph unicode="&#xe3;" horiz-adv-x="1054" d="M82 303v10q0 190 151.5 273.5t507.5 62.5v70q0 139 -54 202.5t-171 63.5q-150 0 -213 -137q-29 -63 -102 -31q-78 35 -47 98q111 223 376 224q186 0 289 -108.5t103 -307.5v-660q0 -76 -88 -75q-45 0 -67 17.5t-22 57.5v68q-139 -152 -333 -151q-143 0 -236.5 90 t-93.5 233zM209 1399q72 111 186 110q55 0 130 -46t102 -46q45 0 84 45q37 45 80 11q49 -37 22 -76q-72 -111 -186 -111q-61 0 -132 46t-100 46q-45 0 -84 -45q-37 -45 -80 -10q-49 37 -22 76zM264 315q0 -80 54.5 -131t140.5 -51q166 0 282 133v260q-268 8 -372.5 -37 t-104.5 -163v-11z" />
<glyph unicode="&#xe4;" horiz-adv-x="1054" d="M82 303v10q0 190 151.5 273.5t507.5 62.5v70q0 139 -54 202.5t-171 63.5q-150 0 -213 -137q-29 -63 -102 -31q-78 35 -47 98q111 223 376 224q186 0 289 -108.5t103 -307.5v-660q0 -76 -88 -75q-45 0 -67 17.5t-22 57.5v68q-139 -152 -333 -151q-143 0 -236.5 90 t-93.5 233zM250 1337v111q0 72 84 72q82 0 82 -72v-111q0 -74 -82 -73q-84 -1 -84 73zM264 315q0 -80 54.5 -131t140.5 -51q166 0 282 133v260q-268 8 -372.5 -37t-104.5 -163v-11zM621 1337v111q0 72 84 72q82 0 81 -72v-111q0 -74 -81 -73q-84 -1 -84 73z" />
<glyph unicode="&#xe5;" horiz-adv-x="1052" d="M82 303v10q0 190 151.5 273.5t507.5 62.5v70q0 139 -54 202.5t-171 63.5q-150 0 -213 -137q-29 -63 -102 -31q-78 35 -47 98q111 223 376 224q186 0 289 -108.5t103 -307.5v-660q0 -76 -88 -75q-45 0 -67 17.5t-22 57.5v68q-139 -152 -333 -151q-143 0 -236.5 90 t-93.5 233zM264 315q0 -80 54.5 -131t140.5 -51q166 0 282 133v260q-268 8 -372.5 -37t-104.5 -163v-11zM332 1421q0 76 51 126t127 50q78 0 129 -49t51 -127q0 -74 -52 -124t-128 -50q-78 0 -128 50t-50 124zM426 1421q0 -37 23.5 -60.5t60.5 -23.5q35 0 60.5 24.5 t25.5 59.5q0 39 -23.5 61.5t-62.5 22.5q-37 0 -60.5 -24.5t-23.5 -59.5z" />
<glyph unicode="&#xe6;" horiz-adv-x="1693" d="M74 303v10q0 190 148.5 270.5t510.5 65.5v88q0 115 -59.5 181.5t-173.5 66.5q-160 0 -224 -137q-29 -63 -102 -31q-78 35 -47 98q111 223 377 224q215 0 327 -152q117 152 338 152q219 0 328 -129t109 -346v-70q0 -102 -107 -102h-584v-74q0 -285 265 -285q174 0 245 123 q20 37 44 44t61 -11q82 -35 45 -105q-111 -205 -395 -204q-260 0 -371 174q-184 -174 -387 -174q-154 0 -251 90t-97 233zM256 315q0 -80 54.5 -131t140.5 -51t165.5 41t135.5 105q-18 57 -19 174v73q-268 8 -372.5 -37t-104.5 -163v-11zM915 629h515v84q0 123 -70 198.5 t-190.5 75.5t-187.5 -75.5t-67 -211.5v-71z" />
<glyph unicode="&#xe7;" horiz-adv-x="1019" d="M109 414v293q0 207 122.5 319.5t313.5 112.5q145 0 247.5 -71t139.5 -194q12 -41 -4.5 -62t-61.5 -32q-41 -12 -66.5 -2t-37.5 53q-20 68 -74.5 111t-142.5 43q-115 0 -184.5 -72.5t-69.5 -222.5v-266q0 -145 67.5 -218t186.5 -73q168 0 223 125q18 41 42 51t62 -4 q86 -29 58 -98q-86 -205 -340 -225v-82q78 -2 124 -45t46 -107v-18q0 -66 -56.5 -115t-154.5 -49q-86 0 -174 53q-37 20 -13 64q27 41 64 20q68 -39 115 -39q92 0 92 72v8q0 72 -121 72q-25 0 -33 10t-8 31v127q-166 18 -264 127.5t-98 302.5z" />
<glyph unicode="&#xe8;" horiz-adv-x="1073" d="M109 412v297q0 197 120.5 313.5t313.5 116.5q207 0 321.5 -115t114.5 -342v-88q0 -102 -107 -102h-583v-80q0 -129 65.5 -204t196.5 -75q174 0 246 123q20 37 43.5 44t60.5 -11q82 -35 45 -105q-111 -205 -395 -204q-213 0 -327.5 115.5t-114.5 316.5zM258 1554.5 q18 28.5 68 28.5q61 0 90 -41l155 -237q16 -25 4 -41.5t-47 -16.5q-45 0 -75 37l-189 215q-24 27 -6 55.5zM289 629h512v80q0 129 -64.5 202.5t-193.5 73.5q-117 0 -185.5 -74.5t-68.5 -201.5v-80z" />
<glyph unicode="&#xe9;" horiz-adv-x="1073" d="M109 412v297q0 197 120.5 313.5t313.5 116.5q207 0 321.5 -115t114.5 -342v-88q0 -102 -107 -102h-583v-80q0 -129 65.5 -204t196.5 -75q174 0 246 123q20 37 43.5 44t60.5 -11q82 -35 45 -105q-111 -205 -395 -204q-213 0 -327.5 115.5t-114.5 316.5zM289 629h512v80 q0 129 -64.5 202.5t-193.5 73.5q-117 0 -185.5 -74.5t-68.5 -201.5v-80zM505 1263.5q-13 16.5 3 41.5l158 239q25 37 94 37q43 0 59.5 -23.5t-8.5 -56.5l-184 -217q-31 -37 -76 -37q-33 0 -46 16.5z" />
<glyph unicode="&#xea;" horiz-adv-x="1073" d="M109 412v297q0 197 120.5 313.5t313.5 116.5q207 0 321.5 -115t114.5 -342v-88q0 -102 -107 -102h-583v-80q0 -129 65.5 -204t196.5 -75q174 0 246 123q20 37 43.5 44t60.5 -11q82 -35 45 -105q-111 -205 -395 -204q-213 0 -327.5 115.5t-114.5 316.5zM289 629h512v80 q0 129 -64.5 202.5t-193.5 73.5q-117 0 -185.5 -74.5t-68.5 -201.5v-80zM308.5 1277.5q-13.5 22.5 6.5 47.5l142 205q25 35 90 35t90 -35l137 -205q20 -25 7 -47.5t-58 -22.5q-47 0 -64 27l-114 176l-115 -176q-16 -27 -63 -27q-45 0 -58.5 22.5z" />
<glyph unicode="&#xeb;" horiz-adv-x="1073" d="M109 412v297q0 197 120.5 313.5t313.5 116.5q207 0 321.5 -115t114.5 -342v-88q0 -102 -107 -102h-583v-80q0 -129 65.5 -204t196.5 -75q174 0 246 123q20 37 43.5 44t60.5 -11q82 -35 45 -105q-111 -205 -395 -204q-213 0 -327.5 115.5t-114.5 316.5zM281 1337v111 q0 72 84 72q82 0 81 -72v-111q0 -74 -81 -73q-84 -1 -84 73zM289 629h512v80q0 129 -64.5 202.5t-193.5 73.5q-117 0 -185.5 -74.5t-68.5 -201.5v-80zM651 1337v111q0 72 84 72q82 0 82 -72v-111q0 -74 -82 -73q-84 -1 -84 73z" />
<glyph unicode="&#xec;" horiz-adv-x="475" d="M-41 1554.5q18 28.5 68 28.5q61 0 90 -41l155 -237q16 -25 4 -41.5t-47 -16.5q-45 0 -75 37l-189 215q-24 27 -6 55.5zM147 68v979q0 80 92.5 79.5t92.5 -79.5v-979q0 -80 -92.5 -80t-92.5 80z" />
<glyph unicode="&#xed;" horiz-adv-x="475" d="M147 68v979q0 80 92.5 79.5t92.5 -79.5v-979q0 -80 -92.5 -80t-92.5 80zM199.5 1263.5q-13.5 16.5 3.5 41.5l157 239q25 37 95 37q43 0 59 -23.5t-8 -56.5l-184 -217q-31 -37 -76 -37q-33 0 -46.5 16.5z" />
<glyph unicode="&#xee;" horiz-adv-x="475" d="M3 1277.5q-13 22.5 7 47.5l142 205q25 35 90 35t90 -35l137 -205q20 -25 7 -47.5t-58 -22.5q-47 0 -64 27l-114 176l-115 -176q-16 -27 -64 -27q-45 0 -58 22.5zM147 68v979q0 80 92.5 79.5t92.5 -79.5v-979q0 -80 -92.5 -80t-92.5 80z" />
<glyph unicode="&#xef;" horiz-adv-x="475" d="M-31 1337v111q0 72 84 72q82 0 82 -72v-111q0 -74 -82 -73q-84 -1 -84 73zM145 68v979q0 80 92.5 79.5t92.5 -79.5v-979q0 -80 -92.5 -80t-92.5 80zM340 1337v111q0 72 84 72q82 0 82 -72v-111q0 -74 -82 -73q-84 -1 -84 73z" />
<glyph unicode="&#xf0;" horiz-adv-x="1191" d="M113 412v217q0 197 122.5 315.5t339.5 118.5q158 0 289 -105q-43 150 -186 293l-60 -63q-41 -47 -98 -2q-55 43 -12 92l63 70q-55 45 -65 53q-66 47 -10 121q51 74 116 24q27 -20 76 -69l62 65q47 51 102 2q57 -51 12 -96l-69 -72q141 -152 204.5 -322.5t63.5 -422.5 v-182q-2 -213 -136 -343.5t-345 -130.5q-227 0 -348 118t-121 319zM295 418q0 -154 83 -221.5t204 -67.5q125 0 212 76t87 223v190q0 135 -86 213t-211 78t-207 -75.5t-82 -221.5v-194z" />
<glyph unicode="&#xf1;" horiz-adv-x="1142" d="M147 68v981q0 78 89 77q92 0 92 -77v-103q145 193 360 193q158 0 239 -96.5t81 -256.5v-718q0 -80 -92.5 -80t-92.5 80v663q0 119 -42 186.5t-156 67.5q-94 0 -172 -60.5t-121 -148.5v-708q0 -80 -92.5 -80t-92.5 80zM285 1399q72 111 186 110q55 0 130 -46t101 -46 q45 0 84 45q37 45 80 11q49 -37 23 -76q-72 -111 -187 -111q-61 0 -131.5 46t-99.5 46q-45 0 -84 -45q-37 -45 -80 -10q-49 37 -22 76z" />
<glyph unicode="&#xf2;" horiz-adv-x="1128" d="M109 399v312q0 203 120.5 315.5t333.5 112.5q219 0 338 -112t119 -316v-303q0 -201 -120 -314.5t-337 -113.5q-215 0 -334.5 111t-119.5 308zM291 420q0 -287 272 -287q274 0 275 291v270q0 291 -275 291q-127 0 -199.5 -71.5t-72.5 -219.5v-274zM307.5 1554.5 q18.5 28.5 67.5 28.5q61 0 90 -41l156 -237q16 -25 3.5 -41.5t-46.5 -16.5q-45 0 -76 37l-189 215q-24 27 -5.5 55.5z" />
<glyph unicode="&#xf3;" horiz-adv-x="1128" d="M109 399v312q0 203 120.5 315.5t333.5 112.5q219 0 338 -112t119 -316v-303q0 -201 -120 -314.5t-337 -113.5q-215 0 -334.5 111t-119.5 308zM291 420q0 -287 272 -287q274 0 275 291v270q0 291 -275 291q-127 0 -199.5 -71.5t-72.5 -219.5v-274zM535.5 1263.5 q-13.5 16.5 3.5 41.5l157 239q25 37 95 37q43 0 59 -23.5t-8 -56.5l-185 -217q-31 -37 -75 -37q-33 0 -46.5 16.5z" />
<glyph unicode="&#xf4;" horiz-adv-x="1128" d="M109 399v312q0 203 120.5 315.5t333.5 112.5q219 0 338 -112t119 -316v-303q0 -201 -120 -314.5t-337 -113.5q-215 0 -334.5 111t-119.5 308zM291 420q0 -287 272 -287q274 0 275 291v270q0 291 -275 291q-127 0 -199.5 -71.5t-72.5 -219.5v-274zM335 1277.5 q-13 22.5 7 47.5l141 205q25 35 90.5 35t90.5 -35l137 -205q20 -25 7 -47.5t-58 -22.5q-47 0 -64 27l-115 176l-114 -176q-16 -27 -64 -27q-45 0 -58 22.5z" />
<glyph unicode="&#xf5;" horiz-adv-x="1128" d="M109 399v312q0 203 120.5 315.5t333.5 112.5q219 0 338 -112t119 -316v-303q0 -201 -120 -314.5t-337 -113.5q-215 0 -334.5 111t-119.5 308zM268 1399q72 111 187 110q55 0 129.5 -46t101.5 -46q45 0 84 45q37 45 80 11q49 -37 22 -76q-72 -111 -186 -111q-61 0 -132 46 t-99 46q-45 0 -84 -45q-37 -45 -80 -10q-50 37 -23 76zM291 420q0 -287 272 -287q274 0 275 291v270q0 291 -275 291q-127 0 -199.5 -71.5t-72.5 -219.5v-274z" />
<glyph unicode="&#xf6;" horiz-adv-x="1128" d="M109 399v312q0 203 120.5 315.5t333.5 112.5q219 0 338 -112t119 -316v-303q0 -201 -120 -314.5t-337 -113.5q-215 0 -334.5 111t-119.5 308zM291 420q0 -287 272 -287q274 0 275 291v270q0 291 -275 291q-127 0 -199.5 -71.5t-72.5 -219.5v-274zM309 1337v111 q0 72 84 72q82 0 82 -72v-111q0 -74 -82 -73q-84 -1 -84 73zM680 1337v111q0 72 84 72q82 0 82 -72v-111q0 -74 -82 -73q-84 -1 -84 73z" />
<glyph unicode="&#xf7;" d="M102 633q0 78 66 78h938q63 0 63 -78q0 -76 -63 -76h-938q-66 0 -66 76zM551 178v144q0 78 90 77q88 0 88 -77v-144q0 -78 -88 -78q-47 0 -68.5 17.5t-21.5 60.5zM551 948v144q0 78 90 77q88 0 88 -77v-144q0 -78 -88 -78q-47 0 -68.5 17.5t-21.5 60.5z" />
<glyph unicode="&#xf8;" horiz-adv-x="1128" d="M109 399v312q0 203 120.5 315.5t333.5 112.5q139 0 240 -47l31 53q33 55 81 55q39 0 55.5 -22.5t0.5 -53.5l-62 -106q111 -115 111 -307v-303q0 -201 -120 -314.5t-337 -113.5q-121 0 -219 38l-39 -69q-29 -55 -84 -55q-39 0 -54 22.5t1 54.5l65 115q-124 108 -124 313z M291 420q0 -104 35 -170l395 698q-66 37 -158 37q-127 0 -199.5 -71.5t-72.5 -219.5v-274zM424 160q55 -27 139 -27q274 0 275 291v270q0 84 -27 150z" />
<glyph unicode="&#xf9;" horiz-adv-x="1144" d="M135 311v736q0 80 92 79.5t92 -79.5v2v-707q0 -102 46.5 -155.5t130.5 -53.5q184 0 317 174v740q0 80 92 79.5t92 -79.5v-979q0 -78 -88 -78q-92 0 -92 78v82q-166 -170 -368 -170q-150 0 -232 86.5t-82 244.5zM297 1554.5q18 28.5 68 28.5q61 0 90 -41l155 -237 q16 -25 4 -41.5t-47 -16.5q-45 0 -75 37l-189 215q-24 27 -6 55.5z" />
<glyph unicode="&#xfa;" horiz-adv-x="1144" d="M135 311v736q0 80 92 79.5t92 -79.5v2v-707q0 -102 46.5 -155.5t130.5 -53.5q184 0 317 174v740q0 80 92 79.5t92 -79.5v-979q0 -78 -88 -78q-92 0 -92 78v82q-166 -170 -368 -170q-150 0 -232 86.5t-82 244.5zM523.5 1263.5q-13.5 16.5 2.5 41.5l158 239q25 37 94 37 q43 0 59.5 -23.5t-8.5 -56.5l-184 -217q-31 -37 -76 -37q-32 0 -45.5 16.5z" />
<glyph unicode="&#xfb;" horiz-adv-x="1144" d="M135 311v736q0 80 92 79.5t92 -79.5v2v-707q0 -102 46.5 -155.5t130.5 -53.5q184 0 317 174v740q0 80 92 79.5t92 -79.5v-979q0 -78 -88 -78q-92 0 -92 78v82q-166 -170 -368 -170q-150 0 -232 86.5t-82 244.5zM339 1277.5q-13 22.5 7 47.5l141 205q25 35 90.5 35 t90.5 -35l137 -205q20 -25 7 -47.5t-58 -22.5q-47 0 -64 27l-115 176l-114 -176q-16 -27 -64 -27q-45 0 -58 22.5z" />
<glyph unicode="&#xfc;" horiz-adv-x="1144" d="M135 311v736q0 80 92 79.5t92 -79.5v2v-707q0 -102 46.5 -155.5t130.5 -53.5q184 0 317 174v740q0 80 92 79.5t92 -79.5v-979q0 -78 -88 -78q-92 0 -92 78v82q-166 -170 -368 -170q-150 0 -232 86.5t-82 244.5zM301 1337v111q0 72 84 72q82 0 82 -72v-111q0 -74 -82 -73 q-84 -1 -84 73zM672 1337v111q0 72 84 72q82 0 82 -72v-111q0 -74 -82 -73q-84 -1 -84 73z" />
<glyph unicode="&#xfd;" horiz-adv-x="935" d="M18 1026q-16 47 5.5 73.5t74.5 26.5q84 0 107 -71l272 -830l266 832q23 70 103 69q49 0 70.5 -25.5t5.5 -70.5l-377 -1057q-94 -268 -291 -395q-61 -39 -113 27q-51 76 9 112q158 102 229 297zM429 1263.5q-13 16.5 3 41.5l158 239q25 37 94 37q43 0 59.5 -23.5 t-8.5 -56.5l-184 -217q-31 -37 -76 -37q-33 0 -46 16.5z" />
<glyph unicode="&#xfe;" horiz-adv-x="1161" d="M147 -354v1820q0 80 92.5 80t92.5 -80v-528q49 78 136 139.5t206 61.5q188 0 283.5 -116t95.5 -308v-299q0 -205 -113 -320.5t-278 -115.5q-221 0 -330 155v-489q0 -80 -92.5 -80t-92.5 80zM332 406q0 -119 74.5 -196t201.5 -77q121 0 191.5 73t70.5 226v254 q0 297 -239 297q-123 0 -211 -93t-88 -237v-247z" />
<glyph unicode="&#xff;" horiz-adv-x="935" d="M18 1026q-16 47 5.5 73.5t74.5 26.5q84 0 107 -71l272 -830l266 832q23 70 103 69q49 0 70.5 -25.5t5.5 -70.5l-377 -1057q-94 -268 -291 -395q-61 -39 -113 27q-51 76 9 112q158 102 229 297zM211 1337v111q0 72 84 72q82 0 82 -72v-111q0 -74 -82 -73q-84 -1 -84 73z M582 1337v111q0 72 84 72q82 0 82 -72v-111q0 -74 -82 -73q-84 -1 -84 73z" />
<glyph unicode="&#x152;" horiz-adv-x="1923" d="M141 461v569q0 223 143.5 355.5t397.5 132.5q231 0 352 -148v21q0 59 34 82.5t108 23.5h587q72 0 72 -82q0 -84 -72 -84h-540v-483h487q72 0 72 -82q0 -84 -72 -84h-487v-516h538q72 0 72 -82q0 -84 -72 -84h-585q-74 0 -108 23.5t-34 82.5v29q-113 -158 -352 -158 q-256 0 -398.5 129.5t-142.5 354.5zM332 479q0 -156 91 -245t259 -89t260 88.5t92 243.5v547q-4 152 -96 239t-256 87q-168 0 -259 -89.5t-91 -244.5v-537z" />
<glyph unicode="&#x153;" horiz-adv-x="1812" d="M113 395v316q0 193 126 310.5t332 117.5q240 0 373 -162q125 162 340 164q207 0 321.5 -115t114.5 -342v-88q0 -104 -104 -104h-584v-80q0 -129 65.5 -204t196.5 -75q174 0 246 123q20 37 44 44t61 -11q82 -35 45 -105q-111 -205 -396 -204q-240 0 -352 155 q-115 -156 -371 -155q-217 0 -337.5 109t-120.5 306zM295 412q0 -279 276 -279q279 0 279 289v278q-6 141 -71.5 213t-205.5 72q-135 0 -206.5 -72.5t-71.5 -216.5v-284zM1032 629h510v82q0 129 -64.5 202.5t-193.5 73.5q-115 0 -183.5 -73.5t-68.5 -196.5v-88z" />
<glyph unicode="&#x178;" horiz-adv-x="1120" d="M30.5 1468.5q22.5 32.5 86.5 32.5q70 0 96 -51l350 -664l350 666q27 51 95 51q61 0 83.5 -31.5t-1.5 -70.5l-435 -789v-542q0 -82 -96 -82q-49 0 -71.5 18.5t-22.5 63.5v540l-432 787q-25 39 -2.5 71.5zM295 1751v111q0 72 84 71q82 0 82 -71v-111q0 -74 -82 -74 q-84 0 -84 74zM666 1751v111q0 72 84 71q82 0 81 -71v-111q0 -74 -81 -74q-84 0 -84 74z" />
<glyph unicode="&#x2c6;" horiz-adv-x="788" d="M158.5 1277.5q-13.5 22.5 7.5 47.5l141 205q25 35 90.5 35t89.5 -35l138 -205q20 -25 6.5 -47.5t-58.5 -22.5q-47 0 -63 27l-115 176l-114 -176q-16 -27 -64 -27q-45 0 -58.5 22.5z" />
<glyph unicode="&#x2dc;" horiz-adv-x="927" d="M164 1399q72 111 186 110q55 0 130 -46t102 -46q45 0 84 45q37 45 79 11q49 -37 23 -76q-72 -111 -186 -111q-61 0 -132 46t-100 46q-45 0 -84 -45q-37 -45 -80 -10q-49 37 -22 76z" />
<glyph unicode="&#x2000;" horiz-adv-x="993" />
<glyph unicode="&#x2001;" horiz-adv-x="1986" />
<glyph unicode="&#x2002;" horiz-adv-x="993" />
<glyph unicode="&#x2003;" horiz-adv-x="1986" />
<glyph unicode="&#x2004;" horiz-adv-x="661" />
<glyph unicode="&#x2005;" horiz-adv-x="495" />
<glyph unicode="&#x2006;" horiz-adv-x="329" />
<glyph unicode="&#x2007;" horiz-adv-x="329" />
<glyph unicode="&#x2008;" horiz-adv-x="247" />
<glyph unicode="&#x2009;" horiz-adv-x="397" />
<glyph unicode="&#x200a;" horiz-adv-x="108" />
<glyph unicode="&#x2010;" horiz-adv-x="935" d="M111 614.5q0 73.5 63 73.5h590q61 0 61 -73.5t-61 -73.5h-590q-63 0 -63 73.5z" />
<glyph unicode="&#x2011;" horiz-adv-x="935" d="M111 614.5q0 73.5 63 73.5h590q61 0 61 -73.5t-61 -73.5h-590q-63 0 -63 73.5z" />
<glyph unicode="&#x2012;" horiz-adv-x="935" d="M111 614.5q0 73.5 63 73.5h590q61 0 61 -73.5t-61 -73.5h-590q-63 0 -63 73.5z" />
<glyph unicode="&#x2013;" horiz-adv-x="1097" d="M111 614.5q0 73.5 63 73.5h754q61 0 61 -73.5t-61 -73.5h-754q-63 0 -63 73.5z" />
<glyph unicode="&#x2014;" horiz-adv-x="2123" d="M111 614.5q0 73.5 63 73.5h1778q61 0 61 -73.5t-61 -73.5h-1778q-63 0 -63 73.5z" />
<glyph unicode="&#x2018;" horiz-adv-x="468" d="M127 1087q0 133 51 254t146 195q41 33 75.5 -10t-2.5 -78q-59 -53 -77.5 -130t-16.5 -231q0 -78 -88 -78t-88 78z" />
<glyph unicode="&#x2019;" horiz-adv-x="487" d="M86 1014q-35 43 2 78q59 53 77.5 129.5t16.5 230.5q0 78 88 78t88 -78q0 -133 -51 -254t-145 -194q-41 -33 -76 10z" />
<glyph unicode="&#x201a;" horiz-adv-x="417" d="M53 -225q-35 43 2 78q59 53 78 129.5t17 230.5q0 78 88 78t88 -78q0 -133 -51.5 -254t-145.5 -195q-41 -32 -76 11z" />
<glyph unicode="&#x201c;" horiz-adv-x="831" d="M127 1087q0 133 51 254t146 195q41 33 75.5 -10t-2.5 -78q-59 -53 -77.5 -130t-16.5 -231q0 -78 -88 -78t-88 78zM492 1087q0 133 51 254t145 195q41 33 76 -10t-2 -78q-59 -53 -77.5 -130t-16.5 -231q0 -78 -88 -78t-88 78z" />
<glyph unicode="&#x201d;" horiz-adv-x="843" d="M78 1014q-35 43 2 78q59 53 77.5 129.5t16.5 230.5q0 78 88 78t88 -78q0 -133 -51 -254t-145 -194q-41 -33 -76 10zM442.5 1014q-34.5 43 1.5 78q59 53 78 129.5t17 230.5q0 78 88 78t88 -78q0 -133 -51.5 -254t-145.5 -194q-41 -33 -75.5 10z" />
<glyph unicode="&#x201e;" horiz-adv-x="782" d="M53 -225q-35 43 2 78q59 53 78 129.5t17 230.5q0 78 88 78t88 -78q0 -133 -51.5 -254t-145.5 -195q-41 -32 -76 11zM418 -225q-35 43 2 78q59 53 77.5 129.5t16.5 230.5q0 78 88 78t88 -78q0 -133 -51 -254t-145 -195q-41 -32 -76 11z" />
<glyph unicode="&#x2022;" horiz-adv-x="802" d="M131 651q0 113 79 193t191 80q117 0 194 -78t77 -195q0 -111 -79 -190.5t-192 -79.5q-117 0 -193.5 77.5t-76.5 192.5z" />
<glyph unicode="&#x2026;" horiz-adv-x="1351" d="M133 68v143q0 78 90 78q88 0 88 -78v-143q0 -78 -88 -78q-47 0 -68.5 17.5t-21.5 60.5zM586 68v143q0 78 90 78q88 0 88 -78v-143q0 -78 -88 -78q-47 0 -68.5 17.5t-21.5 60.5zM1040 68v143q0 78 90 78q88 0 89 -78v-143q0 -78 -89 -78q-47 0 -68.5 17.5t-21.5 60.5z" />
<glyph unicode="&#x202f;" horiz-adv-x="397" />
<glyph unicode="&#x2039;" horiz-adv-x="663" d="M127 602q0 39 47 105l227 327q37 57 105 13q68 -43 26 -101l-237 -344l237 -344q41 -57 -26 -100q-68 -45 -105 12l-227 328q-47 67 -47 104z" />
<glyph unicode="&#x203a;" horiz-adv-x="663" d="M147 258l238 344l-238 344q-41 57 27 101q68 45 105 -13l227 -327q47 -66 47 -105q0 -37 -47 -104l-227 -328q-37 -57 -105 -12q-68 43 -27 100z" />
<glyph unicode="&#x205f;" horiz-adv-x="495" />
<glyph unicode="&#x20ac;" d="M66 610q0 74 63 74h117v143h-117q-63 0 -63 72q0 74 63 74h117v55q0 225 134 357.5t359 132.5q186 0 309 -80t175 -221q29 -74 -62 -103q-84 -29 -110 47q-33 90 -117 142.5t-201 52.5q-297 0 -297 -338v-45h367q59 0 59 -74q0 -72 -59 -72h-367v-143h367q59 0 59 -74 q0 -72 -59 -71h-367v-58q0 -346 297 -346q238 0 314 201q16 43 42.5 53t67.5 -6q90 -29 62 -102q-45 -125 -164 -214.5t-301 -89.5q-254 0 -381 128t-127 362v72h-117q-63 -1 -63 71z" />
<glyph unicode="&#x2122;" horiz-adv-x="1099" d="M27 1452q0 43 36 43h371q37 0 37 -43t-37 -43h-137v-463q0 -41 -49 -41t-49 41v463h-136q-36 0 -36 43zM528 944v510q0 47 70 47q57 0 70 -41l120 -418l121 418q12 41 74 41q66 0 66 -47v-510q0 -39 -47.5 -39t-47.5 39v399l-125 -413q-8 -25 -43 -25q-33 0 -41 25 l-122 405v-391q0 -39 -50 -39q-45 0 -45 39z" />
<glyph unicode="&#xe000;" horiz-adv-x="1125" d="M0 1125h1125v-1125h-1125v1125z" />
<glyph unicode="&#xfb01;" horiz-adv-x="1130" d="M66 1042q0 76 65 76h82v66q0 172 98.5 270t270.5 98q215 0 331 -129q49 -51 -6 -102q-63 -57 -108 -4q-72 82 -203 82q-102 0 -151.5 -52.5t-49.5 -172.5v-56h465q63 0 94 -25.5t31 -84.5v-940q0 -80 -90 -80q-92 0 -92 80v901h-408v-901q0 -80 -90 -80q-47 0 -69.5 18.5 t-20.5 61.5l-2 901h-82q-65 -1 -65 73z" />
<glyph unicode="&#xfb02;" horiz-adv-x="1134" d="M66 1042q0 76 65 76h82v84q0 156 111.5 256.5t277.5 100.5q176 0 316 -93q39 -27 53 -53.5t14 -73.5l2 -1271q0 -80 -92 -80t-92 80v1271q-74 70 -201 70q-104 0 -155.5 -62.5t-51.5 -150.5v-78h162q66 0 66 -76q0 -74 -66 -73h-160v-901q0 -80 -92 -80q-47 0 -70.5 18.5 t-21.5 61.5v901h-82q-65 -1 -65 73z" />
<glyph unicode="&#xfb03;" horiz-adv-x="1921" d="M1591 68v979q0 80 92.5 79.5t92.5 -79.5v-979q0 -80 -92.5 -80t-92.5 80zM1591 1356v110q0 80 92.5 80t92.5 -80v-110q0 -80 -92.5 -80t-92.5 80zM789 1042q0 76 65 76h82v88q0 168 82 256t231 88q145 0 236 -96q22 -23 22 -46q0 -28 -30 -56q-33 -29 -55.5 -30t-49.5 28 q-45 47 -121 47q-131 0 -131 -170v-109h254q66 0 66 -76q0 -74 -66 -73h-254v-901q0 -80 -92 -80t-92 80v901h-82q-65 -1 -65 73zM66 1042q0 76 65 76h82v88q0 168 82 256t231 88q145 0 236 -96q22 -23 22 -46q0 -28 -30 -56q-33 -29 -55.5 -30t-49.5 28q-45 47 -121 47 q-131 0 -131 -170v-109h254q66 0 66 -76q0 -74 -66 -73h-254v-901q0 -80 -92 -80t-92 80v901h-82q-65 -1 -65 73z" />
<glyph unicode="&#xfb04;" horiz-adv-x="1925" d="M1593 68v1398q0 80 92.5 80t92.5 -80v-1398q0 -80 -92.5 -80t-92.5 80zM789 1042q0 76 65 76h82v88q0 168 82 256t231 88q145 0 236 -96q22 -23 22 -46q0 -28 -30 -56q-33 -29 -55.5 -30t-49.5 28q-45 47 -121 47q-131 0 -131 -170v-109h254q66 0 66 -76q0 -74 -66 -73 h-254v-901q0 -80 -92 -80t-92 80v901h-82q-65 -1 -65 73zM66 1042q0 76 65 76h82v88q0 168 82 256t231 88q145 0 236 -96q22 -23 22 -46q0 -28 -30 -56q-33 -29 -55.5 -30t-49.5 28q-45 47 -121 47q-131 0 -131 -170v-109h254q66 0 66 -76q0 -74 -66 -73h-254v-901 q0 -80 -92 -80t-92 80v901h-82q-65 -1 -65 73z" />
</font>
</defs>
</svg>
