<?xml version="1.0" standalone="no"?>
<!DOCTYPE svg PUBLIC "-//W3C//DTD SVG 1.1//EN" "http://www.w3.org/Graphics/SVG/1.1/DTD/svg11.dtd" >
<svg xmlns="http://www.w3.org/2000/svg">
<metadata>
This is a custom SVG webfont generated by Font Squirrel.
Copyright   : Copyright c 2010 Miles Newlyn All rights reserved
Designer    : Miles Newlyn
Foundry     : Miles Newlyn
</metadata>
<defs>
<font id="FNBSansBold" horiz-adv-x="1335" >
<font-face units-per-em="2048" ascent="1536" descent="-512" />
<missing-glyph horiz-adv-x="301" />
<glyph unicode=" "  horiz-adv-x="301" />
<glyph unicode="&#x09;" horiz-adv-x="301" />
<glyph unicode="&#xa0;" horiz-adv-x="301" />
<glyph unicode="!" horiz-adv-x="641" d="M186 1415q-2 57 30 80t103.5 23t103.5 -22.5t30 -80.5l-37 -891q-2 -45 -22.5 -61.5t-74.5 -16.5q-55 0 -75.5 16.5t-22.5 59.5zM190 86v92q0 51 31 71.5t96.5 20.5t96 -20.5t30.5 -71.5v-92q0 -51 -30.5 -71.5t-96 -20.5t-96.5 20.5t-31 71.5z" />
<glyph unicode="&#x22;" horiz-adv-x="946" d="M133 1417q-2 55 27.5 75.5t97.5 20.5q70 0 99.5 -20t27.5 -76l-35 -440q-2 -41 -21.5 -57.5t-70.5 -16.5t-70.5 15.5t-21.5 56.5zM563 1417q-2 55 28 75.5t97 20.5q70 0 99.5 -20t27.5 -76l-35 -440q-2 -41 -21.5 -57.5t-70.5 -16.5t-70.5 15.5t-21.5 56.5z" />
<glyph unicode="#" d="M51 537q10 63 28.5 82.5t65.5 19.5h156l51 244h-141q-45 0 -57.5 23.5t-1.5 80.5q10 63 28.5 83t65.5 20h157l76 331q14 61 38 78t106 17q68 0 87 -17.5t9 -66.5l-80 -342h221l70 329q14 63 38.5 80t106.5 17q66 0 86.5 -18.5t7.5 -72.5l-73 -335h131q45 0 57 -24t2 -81 q-10 -63 -28.5 -82.5t-65.5 -19.5h-148l-51 -244h133q45 0 57.5 -23.5t2.5 -80.5q-10 -63 -28.5 -83t-65.5 -20h-146l-80 -352q-14 -61 -37.5 -77.5t-105.5 -16.5q-68 0 -86.5 17t-7.5 67l82 362h-217l-80 -350q-14 -63 -39 -79.5t-107 -16.5q-66 0 -86 17t-10 65l82 364 h-143q-45 0 -57.5 24t-2.5 81zM537 639h219l53 244h-221z" />
<glyph unicode="$" d="M150 319q-23 61 0.5 93t89.5 57q74 25 105.5 11.5t62.5 -70.5q82 -152 256 -152q115 0 174 43t59 121q0 18 -4 34.5t-15.5 32t-21.5 26.5t-32.5 25.5t-38 22.5t-48 23.5t-52 22.5t-61.5 24.5t-65 28.5q-190 80 -280.5 169t-90.5 232q0 147 86 247.5t240 139.5v115 q0 66 34 90t113.5 24t113.5 -24.5t34 -89.5v-119q131 -18 229.5 -91t139.5 -165q23 -53 -3 -84t-102 -57q-59 -20 -90 -11t-53 49q-74 145 -254 146q-100 0 -151.5 -41t-51.5 -102q0 -59 55.5 -96.5t231.5 -112.5q25 -10 39 -17q201 -88 295 -175t94 -226 q0 -150 -102.5 -266.5t-276.5 -155.5v-92q0 -66 -34 -90.5t-113.5 -24.5t-113.5 24.5t-34 90.5v90q-119 16 -222 95t-142 185z" />
<glyph unicode="%" horiz-adv-x="1613" d="M59 1024v262q0 119 88.5 184.5t223.5 65.5t223 -65.5t88 -184.5v-262q0 -123 -88 -187.5t-225 -64.5q-135 0 -222.5 64.5t-87.5 187.5zM270 1026q0 -82 99 -82q100 0 100 82v256q0 82 -100 82q-47 0 -73 -23.5t-26 -62.5v-252zM295 5.5q-16 19.5 12 70.5l740 1345 q37 68 62.5 82.5t109.5 14.5q66 0 82 -19.5t-13 -71.5l-739 -1345q-37 -68 -62.5 -82t-109.5 -14q-66 0 -82 19.5zM932 225v256q0 121 88 188.5t221 67.5q137 0 225 -67.5t88 -188.5v-256q0 -121 -88 -185.5t-225 -64.5q-135 0 -222 63.5t-87 186.5zM1143 227q0 -82 98 -82 t98 82v254q0 86 -98 86t-98 -86v-254z" />
<glyph unicode="&#x26;" horiz-adv-x="1488" d="M90 391q0 145 68.5 246.5t218.5 202.5q-102 109 -139 185.5t-37 162.5q0 147 116.5 247.5t272.5 100.5q180 0 290.5 -100.5t110.5 -249.5q0 -117 -60.5 -198t-189.5 -183l236 -277q14 55 14 138v24q0 51 35 71.5t102 20.5q72 0 107 -19.5t35 -72.5v-10q0 -238 -105 -373 l166 -192q39 -45 39 -76q0 -53 -115 -53q-88 0 -123.5 9t-74.5 54l-49 60q-94 -74 -182.5 -104t-209.5 -30q-242 0 -384 117t-142 299zM381 416q0 -78 62.5 -138.5t181.5 -60.5q137 0 213 92l-308 350q-80 -59 -114.5 -108t-34.5 -135zM477 1165q0 -45 23.5 -86t83.5 -102 q72 51 101.5 89t29.5 99q0 131 -125 131q-51 0 -82 -35t-31 -96z" />
<glyph unicode="'" horiz-adv-x="479" d="M133 1417q-2 55 27.5 75.5t97.5 20.5q70 0 99.5 -20t27.5 -76l-35 -440q-2 -41 -21.5 -57.5t-70.5 -16.5t-70.5 15.5t-21.5 56.5z" />
<glyph unicode="(" horiz-adv-x="747" d="M100 659q0 254 86 492t203 371q59 68 168 -29q49 -43 57.5 -70.5t-20.5 -76.5q-86 -117 -145.5 -301.5t-59.5 -387.5q0 -217 49 -400t125 -294q29 -49 19.5 -76.5t-56.5 -70.5q-109 -96 -168 -29q-94 115 -176 353t-82 519z" />
<glyph unicode=")" horiz-adv-x="747" d="M135 1422.5q8 27.5 58 70.5q109 96 167 29q117 -133 203 -371t86 -492q0 -281 -82 -519t-176 -353q-59 -68 -168 29q-47 43 -56 70.5t19 76.5q76 111 125 294t49 400q0 203 -59 387.5t-145 301.5q-29 49 -21 76.5z" />
<glyph unicode="*" horiz-adv-x="890" d="M64.5 1170.5q-9.5 29.5 9.5 82.5q31 109 108 76l185 -90l-21 211q-4 47 20.5 64.5t84 17.5t84 -17.5t20.5 -64.5l-23 -207l183 86q76 35 108 -76q18 -53 9 -82.5t-56 -40.5l-194 -47l141 -153q31 -39 22.5 -66.5t-55.5 -62.5q-45 -37 -74.5 -38t-58.5 40l-113 186 l-110 -186q-29 -41 -58.5 -40t-74.5 38q-47 35 -55.5 62.5t22.5 66.5l141 153l-188 47q-47 11 -56.5 40.5z" />
<glyph unicode="+" d="M137 633q0 61 19.5 88t70.5 27h310v311q0 57 28.5 78.5t98 21.5t99.5 -21.5t30 -78.5v-311h313q51 0 70.5 -27t19.5 -88q0 -63 -19.5 -90t-70.5 -27h-313v-326q0 -57 -30 -78.5t-99.5 -21.5t-98 21.5t-28.5 78.5v326h-310q-51 0 -70.5 27t-19.5 90z" />
<glyph unicode="," horiz-adv-x="495" d="M5 -219q-1 31 26 53q70 53 92 131t24 238q0 61 32 83.5t106 22.5q76 0 107.5 -22.5t31.5 -83.5q0 -180 -97.5 -322.5t-213.5 -189.5q-45 -18 -86 33q-21 26 -22 57z" />
<glyph unicode="-" horiz-adv-x="1013" d="M102 618q0 59 18.5 86t65.5 27h641q47 0 65.5 -26.5t18.5 -86.5q0 -57 -18.5 -82.5t-65.5 -25.5h-641q-47 0 -65.5 25.5t-18.5 82.5z" />
<glyph unicode="." horiz-adv-x="518" d="M119 207q0 57 33.5 79.5t105.5 22.5t105.5 -22.5t33.5 -79.5v-119q0 -57 -32.5 -79.5t-104.5 -22.5t-105.5 22.5t-33.5 79.5z" />
<glyph unicode="/" horiz-adv-x="837" d="M27 76l510 1335q29 76 58.5 91.5t119.5 15.5q80 0 96 -18.5t-6 -82.5l-510 -1335q-27 -68 -51.5 -82t-110.5 -14q-70 0 -97 20.5t-9 69.5z" />
<glyph unicode="0" d="M121 504v495q0 524 545 525q289 0 417.5 -136.5t128.5 -388.5v-497q0 -526 -546 -527q-545 1 -545 529zM416 541q0 -305 250 -305q152 0 202 72.5t50 230.5v424q0 160 -50.5 231.5t-201.5 71.5q-250 0 -250 -303v-422z" />
<glyph unicode="1" d="M268 1214q-6 61 7.5 90t60.5 39q10 2 52 10.5t71.5 14.5t66.5 18.5t60 26.5q29 16 43 47q29 53 125 53q61 0 88.5 -19t27.5 -71v-1163h166q55 0 77 -30.5t22 -102.5q0 -68 -21.5 -97.5t-77.5 -29.5h-647q-53 0 -75.5 30.5t-22.5 96.5q0 70 22.5 101.5t75.5 31.5h186v873 l-213 -15q-49 -2 -68.5 18.5t-25.5 77.5z" />
<glyph unicode="2" d="M123 143q0 248 94 395.5t375 262.5q160 66 226.5 128t66.5 142q0 195 -207 195q-111 0 -165 -39t-97 -125q-25 -47 -56.5 -56.5t-99.5 19.5q-133 51 -88 147q68 145 203 228.5t303 83.5q262 0 384 -122t122 -331q0 -168 -106.5 -281.5t-340.5 -211.5q-111 -47 -174 -83 t-92 -73t-35 -64.5t-6 -81.5v-16h645h2q57 0 79 -30.5t22 -100.5q0 -68 -21.5 -98.5t-79.5 -30.5h-768q-100 0 -143 29.5t-43 113.5z" />
<glyph unicode="3" d="M123.5 358.5q17.5 34.5 77.5 61.5q125 59 161 -25q74 -160 267 -159q106 0 170.5 54t64.5 142v8q0 102 -63.5 157.5t-171.5 55.5h-60q-51 0 -71.5 29t-20.5 92.5t20.5 92t71.5 28.5h2h-2h60q102 0 160.5 48t58.5 128v21q0 74 -52.5 124t-160.5 50q-178 0 -242 -125 q-25 -47 -54.5 -56.5t-95 15t-87 57.5t-0.5 84q57 141 183 212t296 71q244 0 375 -110.5t131 -301.5v-22q0 -117 -61.5 -200t-159.5 -114q102 -31 170.5 -113.5t68.5 -205.5v-31q0 -203 -154.5 -327t-369.5 -124q-377 0 -506 283q-23 66 -5.5 100.5z" />
<glyph unicode="4" d="M117 418q-25 84 20 147l658 910q39 49 76.5 47t97.5 -47q55 -45 64 -79t-23 -85l-529 -738h277v144q0 66 33.5 90t113.5 24t114 -24.5t34 -89.5v-144h71q57 0 79 -30.5t22 -100.5q0 -68 -21.5 -97.5t-79.5 -29.5h-71v-215q0 -66 -34 -90t-114 -24t-113.5 24.5t-33.5 89.5 v215h-520q-47 0 -75 24t-46 79z" />
<glyph unicode="5" d="M148.5 354.5q13.5 32.5 70.5 67.5q121 70 164 -10q94 -176 270 -176q111 0 172.5 69.5t61.5 188.5v28q0 119 -60.5 183.5t-175.5 64.5q-117 0 -207 -94q-59 -63 -170 -17q-49 20 -70.5 46t-17.5 75l41 574q6 84 47 114.5t140 30.5h590q57 0 78.5 -30.5t21.5 -100.5 q0 -68 -21.5 -98.5t-78.5 -30.5h-519l-26 -332l2 -2q113 102 295 103q190 0 309 -122t119 -354v-53q0 -246 -146.5 -375t-382.5 -129q-350 0 -493 283q-27 64 -13.5 96.5z" />
<glyph unicode="6" d="M143 506v477q0 236 148.5 388.5t408.5 152.5q190 0 300 -71t155 -171q47 -104 -94 -149q-68 -25 -98.5 -19t-55.5 49q-61 102 -207 103q-262 0 -262 -287v-80l4 -2q121 111 306 111q219 0 351 -132.5t132 -359.5v-49q0 -211 -146.5 -351.5t-384.5 -140.5 q-270 0 -413.5 143.5t-143.5 387.5zM438 489q0 -115 67.5 -184t192.5 -69q111 0 174.5 70.5t63.5 182.5v15q0 121 -64.5 193.5t-175.5 72.5q-119 0 -188.5 -72.5t-69.5 -193.5v-15z" />
<glyph unicode="7" d="M160 1370q0 68 21.5 98.5t78.5 30.5h852q68 0 68 -98q0 -70 -33 -117q-209 -295 -355.5 -611.5t-146.5 -572.5q0 -66 -33.5 -90t-113.5 -24t-114 24.5t-34 89.5q0 139 42 296t119 314.5t143.5 272.5t158.5 256h-553q-57 0 -78.5 30.5t-21.5 100.5z" />
<glyph unicode="8" d="M92 410v30q0 137 63.5 222.5t198.5 140.5q-96 29 -153.5 112.5t-57.5 204.5v23q0 180 132.5 280.5t392.5 100.5q258 0 390 -100.5t132 -280.5v-23q0 -121 -57.5 -205t-153.5 -112q135 -55 198.5 -140t63.5 -223v-30q0 -209 -152.5 -322t-420.5 -113q-270 0 -423 113 t-153 322zM387 440q0 -109 65.5 -160t215.5 -51q147 0 212.5 51.5t65.5 159.5v21q0 109 -66.5 161t-211.5 52q-147 0 -214 -52.5t-67 -160.5v-21zM426 1096q0 -102 59.5 -148.5t182.5 -46.5q121 0 180 46t59 149v10q0 100 -54 140t-185 40q-133 0 -187.5 -40t-54.5 -140v-10 z" />
<glyph unicode="9" d="M106 971v55q0 213 147.5 355.5t399.5 142.5q240 0 393.5 -129t153.5 -367v-498q0 -154 -48 -266t-130 -172.5t-173 -88.5t-196 -28q-180 0 -314 67t-196 185q-25 55 -1 89t96 61q66 25 95 18.5t56 -45.5q78 -115 254 -114q121 0 190.5 59t69.5 184v111 q-109 -119 -297 -119q-231 0 -365.5 138.5t-134.5 361.5zM401 977q0 -127 64.5 -197.5t187.5 -70.5t186.5 70.5t63.5 197.5v27q0 125 -63.5 193.5t-186.5 68.5q-125 0 -188.5 -69t-63.5 -193v-27z" />
<glyph unicode=":" horiz-adv-x="483" d="M100 92v107q0 59 33 82.5t103 23.5q72 0 104.5 -23.5t32.5 -82.5v-107q0 -59 -33 -82.5t-104 -23.5q-70 0 -103 23.5t-33 82.5zM100 920v106q0 59 33 83t103 24q72 0 104.5 -24t32.5 -83v-106q0 -59 -33 -83t-104 -24q-70 0 -103 24t-33 83z" />
<glyph unicode=";" horiz-adv-x="499" d="M-26 -219q-1 31 26 53q70 53 92.5 131t24.5 238q0 61 31.5 83.5t105.5 22.5q76 0 107.5 -22.5t31.5 -83.5q0 -180 -97 -322.5t-214 -189.5q-45 -18 -86 33q-21 26 -22 57zM117 920v106q0 59 32.5 83t102.5 24q72 0 104.5 -24t32.5 -83v-106q0 -59 -32.5 -83t-104.5 -24 q-70 0 -102.5 24t-32.5 83z" />
<glyph unicode="&#x3c;" d="M209 633q0 57 13.5 86t53.5 41l723 244q43 14 63.5 -14.5t20.5 -90.5q0 -74 -15 -100.5t-52 -36.5l-492 -129l492 -133q37 -10 52 -37t15 -101q0 -61 -20.5 -89.5t-63.5 -14.5l-718 240q-45 14 -58.5 43t-13.5 92z" />
<glyph unicode="=" d="M223 459q0 63 19.5 91t68.5 28h711q49 0 68.5 -28t19.5 -91q0 -59 -20.5 -86t-67.5 -27h-711q-47 0 -67.5 27t-20.5 86zM223 801q0 63 19.5 91t68.5 28h711q49 0 68.5 -28t19.5 -91q0 -59 -20.5 -86t-67.5 -27h-711q-47 0 -67.5 27t-20.5 86z" />
<glyph unicode="&#x3e;" d="M252 362q0 74 15.5 100.5t51.5 37.5l492 133l-492 129q-37 10 -52 36.5t-15 100.5q0 61 20.5 90t63.5 15l723 -244q41 -12 54 -41t13 -86q0 -63 -13 -92t-58 -43l-719 -240q-43 -14 -63.5 14.5t-20.5 89.5z" />
<glyph unicode="?" horiz-adv-x="880" d="M55 1391q127 145 359 145q190 0 309 -108.5t119 -262.5q0 -80 -34 -151.5t-82 -125.5t-96 -105.5t-82 -114t-34 -127.5v-11q0 -53 -25.5 -72.5t-89.5 -19.5q-66 0 -91 18.5t-25 71.5v27q0 84 29.5 157.5t71.5 126t83 98.5t70.5 96t29.5 100q0 74 -44 118.5t-130 44.5 q-102 0 -188 -92q-61 -66 -137 19q-83 88 -13 168zM272 86v92q0 51 31 71.5t96.5 20.5t96 -20.5t30.5 -71.5v-92q0 -51 -30.5 -71.5t-96 -20.5t-96.5 20.5t-31 71.5z" />
<glyph unicode="@" horiz-adv-x="1683" d="M100 457v299q0 72 21.5 149.5t77 165.5t137.5 157.5t220 115t308 45.5q182 0 319.5 -46.5t211 -110t119 -149.5t57.5 -149.5t12 -122.5v-283q0 -352 -307 -352q-143 0 -227 92l-5 4q-111 -111 -272 -110q-115 0 -202 68.5t-87 181.5v22q0 156 115 227.5t391 59.5v29 q0 61 -41 102t-121 41q-100 0 -139 -84q-18 -35 -39.5 -42t-62.5 9q-98 37 -66 107q39 82 124 133t198 51q180 0 270 -93t90 -251v-287q0 -45 26.5 -70.5t63.5 -25.5q43 0 71 31.5t28 95.5v317q0 61 -22.5 125t-76 132.5t-164 112.5t-262.5 44q-127 0 -226 -28.5 t-159.5 -75.5t-99.5 -113t-53.5 -131.5t-14.5 -138.5v-222q0 -207 136.5 -343t375.5 -136q244 0 404 62q66 25 90 -54q16 -57 11 -80.5t-34 -37.5q-14 -8 -63 -23.5t-168 -36t-240 -20.5q-170 0 -303 48t-209.5 117.5t-127 161t-68 167t-17.5 143.5zM692 424q0 -37 31 -62.5 t82 -25.5q115 0 182 82v147q-98 4 -161.5 -5t-90 -31.5t-35 -43t-8.5 -51.5v-10z" />
<glyph unicode="A" horiz-adv-x="1277" d="M35 100l424 1323q16 53 62 73t141 20q145 0 174 -93l407 -1317q7 -22 7 -39q0 -79 -132 -79q-78 0 -112.5 17.5t-49.5 66.5l-88 309h-473l-96 -313q-14 -47 -47 -63.5t-102 -16.5q-80 0 -107 26q-16 16 -16 43q0 19 8 43zM469 623h332l-160 571z" />
<glyph unicode="B" horiz-adv-x="1259" d="M131 145v1209q0 84 43 114.5t143 30.5h377q215 0 333 -100.5t118 -270.5v-32q0 -113 -57.5 -197t-155.5 -119q117 -23 187.5 -114t70.5 -226v-26q0 -184 -132 -299t-366 -115h-375q-100 0 -143 30.5t-43 114.5zM426 260h192q145 0 211 43t66 154q-2 195 -238 194h-231 v-391zM426 887h195q236 0 235 170v22q0 96 -62.5 133t-191.5 37h-176v-362z" />
<glyph unicode="C" horiz-adv-x="1239" d="M111 510v465q0 248 141 398.5t418 150.5q207 0 328.5 -90.5t166.5 -235.5q7 -23 7 -41q0 -30 -18 -48q-30 -30 -105 -46q-40 -8 -67 -8q-23 0 -37 6q-30 12 -48 59q-57 145 -231 146q-127 0 -193.5 -85t-66.5 -235v-397q0 -147 67.5 -230t194.5 -83q172 0 231 157 q20 56 81 56q37 0 89 -21q61 -27 80 -58q9 -15 9 -38q0 -25 -11 -60q-45 -119 -170 -208t-311 -89q-276 0 -415.5 137.5t-139.5 397.5z" />
<glyph unicode="D" horiz-adv-x="1331" d="M131 145v1209q0 84 43 114.5t143 30.5h353q274 0 412.5 -140t138.5 -368v-504q0 -217 -139.5 -352t-411.5 -135h-353q-100 0 -143 30.5t-43 114.5zM426 260h205q158 0 226.5 68.5t68.5 212.5v405q0 145 -70 219t-225 74h-205v-979z" />
<glyph unicode="E" horiz-adv-x="1087" d="M131 145v1209q0 84 43 114.5t143 30.5h584q57 0 78.5 -30.5t21.5 -100.5q0 -68 -21.5 -98.5t-78.5 -30.5h-475v-352h428h-2h2q53 0 74.5 -30t21.5 -97q0 -66 -21.5 -95.5t-74.5 -29.5h-428v-375h473h2q57 0 78.5 -30.5t21.5 -100.5q0 -68 -21.5 -98.5t-78.5 -30.5h-584 q-100 0 -143 30.5t-43 114.5z" />
<glyph unicode="F" horiz-adv-x="1019" d="M131 100v1254q0 84 43 114.5t143 30.5h562q57 0 78.5 -30.5t21.5 -100.5q0 -68 -21.5 -98.5t-78.5 -30.5h-453v-393h408q53 0 74.5 -30t21.5 -97q0 -66 -21.5 -95.5t-74.5 -29.5h-408v-494q0 -66 -34 -90t-113.5 -24t-113.5 24t-34 90z" />
<glyph unicode="G" d="M111 496v524q0 229 153.5 366.5t419.5 137.5q406 0 508 -326q7 -23 7 -41q0 -30 -18 -48q-30 -30 -106 -46q-40 -8 -66 -8q-23 0 -37 6q-30 12 -48 59q-57 145 -230 146q-289 0 -288 -293v-445q0 -293 284 -292q276 0 277 294v68h-195q-47 0 -66.5 25.5t-19.5 85t19.5 86 t66.5 26.5h2h-2h328q80 0 117.5 -30.5t37.5 -104.5v-192q0 -229 -155.5 -374t-409.5 -145q-281 0 -430 135.5t-149 385.5z" />
<glyph unicode="H" horiz-adv-x="1427" d="M131 100v1299q0 66 34 90t113.5 24t113.5 -24.5t34 -89.5v-520h575v520q0 66 34 90t114 24t113.5 -24.5t33.5 -89.5v-1299q0 -66 -33.5 -90t-113.5 -24t-114 24.5t-34 89.5v518h-575v-518q0 -66 -34 -90t-113.5 -24t-113.5 24t-34 90z" />
<glyph unicode="I" horiz-adv-x="577" d="M141 100v1299q0 66 34 90t114 24t113.5 -24.5t33.5 -89.5v-1299q0 -66 -33.5 -90t-113.5 -24t-114 24t-34 90z" />
<glyph unicode="J" horiz-adv-x="966" d="M61 102q-33 31 -33 70q0 45 46 98q54 65 105 65q29 0 57 -22q78 -59 165 -59q74 0 116 45t42 127v960v-2q0 66 34 90.5t113.5 24.5t113.5 -24.5t34 -90.5v-935q0 -238 -115.5 -356t-328.5 -118q-216 0 -349 127z" />
<glyph unicode="K" horiz-adv-x="1251" d="M131 100v1299q0 66 34 90t113.5 24t113.5 -24.5t34 -89.5v-531l444 559q43 55 82 70.5t133 15.5q139 0 140 -53q0 -25 -43 -80l-385 -477l405 -766q35 -66 35 -84q0 -68 -147 -67q-88 0 -121 14t-62 76l-313 622l-168 -211v-387q0 -66 -34 -90t-113.5 -24t-113.5 24 t-34 90z" />
<glyph unicode="L" horiz-adv-x="1054" d="M131 131v1268q0 66 34 90t113.5 24t113.5 -24.5t34 -89.5v-1139h522h2q57 0 79 -30.5t22 -100.5q0 -68 -21.5 -98.5t-79.5 -30.5h-651q-90 0 -129 28.5t-39 102.5z" />
<glyph unicode="M" horiz-adv-x="1695" d="M131 88v1292q0 59 43 92t154 33q123 0 171 -22.5t68 -98.5l187 -649q70 -248 92 -473q16 190 100 477q100 326 199 652q20 72 66 93t165 21q106 0 147.5 -31.5t41.5 -89.5v-1294q0 -59 -31 -81.5t-104 -22.5q-72 0 -103 22.5t-31 81.5v711q0 229 15 399h-4l-320 -1141 q-20 -74 -145 -73q-80 0 -118 15t-50 58l-289 1153h-6q14 -168 14 -376v-748q0 -57 -30.5 -79.5t-100 -22.5t-100.5 22.5t-31 79.5z" />
<glyph unicode="N" horiz-adv-x="1429" d="M131 96v1284q0 78 38 104.5t159 26.5q117 0 163 -20.5t74 -83.5l301 -651q106 -217 172 -445h6q-25 227 -24 459v635q0 61 31.5 84.5t107.5 23.5t108.5 -22.5t32.5 -85.5v-1296q0 -72 -35.5 -96.5t-150.5 -24.5q-113 0 -156 20.5t-71 79.5l-316 657q-55 117 -180 441h-6 q27 -240 27 -406v-684q0 -63 -33 -86.5t-108.5 -23.5t-107.5 23.5t-32 86.5z" />
<glyph unicode="O" horiz-adv-x="1392" d="M111 518v469q0 240 150.5 388.5t434.5 148.5q287 0 436.5 -149.5t149.5 -393.5v-469q0 -248 -149.5 -392.5t-436.5 -144.5q-289 0 -437 146.5t-148 396.5zM406 557q0 -158 67.5 -239.5t222.5 -81.5q291 0 291 317v389q0 324 -291 324q-156 0 -223 -82t-67 -238v-389z" />
<glyph unicode="P" horiz-adv-x="1204" d="M131 100v1266q0 76 40 104.5t130 28.5h309q260 0 392.5 -124t132.5 -341v-86q0 -215 -133.5 -339t-395.5 -124h-180v-385q0 -66 -34 -90t-113.5 -24t-113.5 24t-34 90zM426 743h160q143 0 197.5 52.5t54.5 175.5v39q0 125 -54.5 178t-197.5 53h-160v-498z" />
<glyph unicode="Q" horiz-adv-x="1392" d="M111 512v352v117q-2 242 148.5 392.5t437 150.5t436 -149.5t149.5 -393.5v-469q0 -338 -262 -471l133 -248q13 -23 13 -40q0 -46 -95 -46q-78 0 -103.5 12.5t-49.5 59.5l-109 205q-49 -8 -113 -9q-287 0 -436 144.5t-149 392.5zM406 557q0 -260 178 -309q57 -14 92 -15 l-94 177q-14 24 -14 41q0 14 9 23q19 22 87 22q78 0 103.5 -12.5t49.5 -59.5l72 -135q98 78 98 264v395q0 317 -290.5 317.5t-290.5 -313.5v-395z" />
<glyph unicode="R" horiz-adv-x="1243" d="M131 100v1266q0 76 40 104.5t130 28.5h377q240 0 358.5 -114.5t118.5 -315.5v-108q0 -281 -242 -392l228 -430q35 -66 35 -86q0 -68 -150 -67q-88 0 -122 15t-62 77l-228 454h-188v-432q0 -66 -34 -90t-113.5 -24t-113.5 24t-34 90zM426 784h201q123 0 178 48.5t55 160.5 v45q0 111 -54 157t-177 46h-203v-457z" />
<glyph unicode="S" horiz-adv-x="1157" d="M74 256q-11 30 -11 53q0 24 12 40q24 32 89 57q49 16 80 16q15 0 26 -4q33 -12 62 -72q57 -121 239 -121q80 0 147.5 43t67.5 127q0 80 -59 130t-211 116q-227 98 -325.5 198.5t-98.5 274.5q0 184 136.5 297t330.5 113q201 0 321.5 -76t168.5 -201q8 -20 7 -38 q0 -70 -122 -99q-41 -11 -69 -11q-14 0 -24 3q-32 8 -50 47q-59 123 -226 123q-90 0 -137 -42t-47 -116q0 -70 57.5 -109.5t229.5 -115.5q27 -12 41 -19q197 -88 286.5 -189t89.5 -269q0 -190 -142 -313.5t-380 -123.5q-201 0 -323.5 78t-165.5 203z" />
<glyph unicode="T" horiz-adv-x="1120" d="M-16 1370q0 70 21.5 99.5t78.5 29.5h956q57 0 79 -29.5t22 -99.5q0 -68 -21.5 -98.5t-79.5 -30.5h-331v-1141q0 -66 -34 -90t-116 -24q-80 0 -113.5 24.5t-33.5 89.5v1141h-328q-57 0 -78.5 30.5t-21.5 98.5z" />
<glyph unicode="U" horiz-adv-x="1372" d="M121 467v932q0 66 33.5 90t113.5 24t114 -24.5t34 -89.5v-873q0 -295 270 -295q279 0 279 295v877q0 63 32.5 86.5t110.5 23.5t110.5 -23.5t32.5 -86.5v-936q0 -225 -154.5 -358.5t-410.5 -133.5q-272 0 -418.5 130.5t-146.5 361.5z" />
<glyph unicode="V" horiz-adv-x="1255" d="M25 1391q-6 21 -7 38q0 33 23 54q35 31 115 30.5t115.5 -17.5t50.5 -69l178 -630q78 -262 123 -551h4q37 219 135 551l190 633q14 49 50 66t110 17q84 0 113 -28q17 -17 16 -45q0 -20 -8 -45l-422 -1315q-16 -53 -63.5 -72.5t-141.5 -19.5q-147 0 -176 92z" />
<glyph unicode="W" horiz-adv-x="1849" d="M8 1391q-4 19 -4 35q0 37 23 58q33 30 120 29q70 0 104 -18t46 -70l115 -538q82 -373 104 -641h4q37 328 111 637l129 544q10 49 45 67.5t104 18.5q133 0 152 -86l135 -538q96 -383 131 -643h4q29 270 109 643l114 541q10 49 44 66t100 17q84 0 116 -27q22 -19 21 -55 q0 -16 -4 -36l-326 -1323q-23 -88 -182 -88q-82 0 -126 18t-56 70l-150 643q-39 164 -76 372h-2q-27 -182 -69 -372l-146 -643q-18 -88 -182 -88q-82 0 -125 18t-55 70z" />
<glyph unicode="X" horiz-adv-x="1282" d="M25 37q0 31 24 65l432 650l-391 634q-25 39 -24 66q0 33 26.5 47t106.5 14q84 0 116.5 -12t65.5 -61l272 -469l269 463q31 55 61.5 67t134.5 12q119 0 119 -49q0 -29 -25 -63l-409 -635l430 -664q25 -35 24 -61q0 -55 -122 -55q-104 0 -137 9t-58 54l-303 500l-285 -479 q-33 -57 -66.5 -70.5t-138.5 -13.5q-122 0 -122 51z" />
<glyph unicode="Y" horiz-adv-x="1230" d="M14 1452q0 33 28 47t105 14q88 0 120 -11t59 -62l295 -586l280 580q27 55 58.5 67t138.5 12q129 0 129 -49q0 -20 -25 -63l-438 -813v-488q0 -66 -34 -90t-113.5 -24t-113.5 24.5t-34 89.5v488l-430 798q-25 48 -25 66z" />
<glyph unicode="Z" horiz-adv-x="1163" d="M68 104q-9 30 -9 57q0 50 29 91l653 987h-524q-57 0 -78.5 30.5t-21.5 98.5q0 70 21.5 100.5t78.5 30.5h793q43 0 65.5 -23.5t34.5 -74.5q3 -15 3 -29q0 -51 -34 -102l-663 -1010h602h-2h2q57 0 78.5 -30.5t21.5 -100.5q0 -68 -21.5 -98.5t-78.5 -30.5h-830 q-85 0 -120 104z" />
<glyph unicode="[" horiz-adv-x="780" d="M170 -170v1600q0 74 39 102.5t129 28.5h313h2q51 0 70.5 -28t19.5 -91q0 -61 -19 -89t-71 -28h-202v-1391h202q51 0 70.5 -27.5t19.5 -88.5q0 -63 -19 -91t-71 -28h-2h-313q-90 0 -129 28.5t-39 102.5z" />
<glyph unicode="\" horiz-adv-x="802" d="M30.5 1499.5q16.5 18.5 96.5 18.5q90 0 119.5 -15.5t58.5 -91.5l504 -1335q18 -49 -9.5 -69.5t-97.5 -20.5q-86 0 -110.5 14t-50.5 82l-504 1335q-23 64 -6.5 82.5z" />
<glyph unicode="]" horiz-adv-x="780" d="M37 -182q0 61 19.5 88.5t70.5 27.5h203v1391h-203q-51 0 -70.5 27.5t-19.5 89.5q0 63 19.5 91t70.5 28h2h313q90 0 129 -29t39 -102v-1600q0 -74 -39 -102.5t-129 -28.5h-313h-2q-51 0 -70.5 28t-19.5 91z" />
<glyph unicode="^" d="M238 729l276 715q16 43 53 56t101 13q72 0 107.5 -12t51.5 -55l271 -717q18 -45 -13.5 -67.5t-97.5 -22.5q-78 0 -105.5 16.5t-41.5 55.5l-172 503l-172 -503q-14 -39 -42 -55.5t-106 -16.5q-66 0 -97 22.5t-13 67.5z" />
<glyph unicode="_" horiz-adv-x="786" d="M-4 -133h795v-125h-795v125z" />
<glyph unicode="`" horiz-adv-x="585" d="M110.5 1545.5q22.5 23.5 88.5 23.5q115 0 149 -60l123 -211q41 -72 -70 -71q-74 0 -110 49l-174 207q-29 39 -6.5 62.5z" />
<glyph unicode="a" horiz-adv-x="1124" d="M72 299v14q0 349 495 349q69 0 148 -7v84q0 170 -189 170q-113 0 -170 -88q-29 -47 -58 -52q-4 -1 -9 -1q-29 0 -78 27q-61 31 -79 62q-7 13 -7 29q0 25 16 60q57 100 157.5 148.5t268.5 48.5q186 0 307 -110.5t121 -309.5v-633q0 -61 -31.5 -83.5t-105.5 -22.5 t-104.5 22.5t-30.5 83.5v49q-123 -160 -315 -159q-154 0 -245 92t-91 227zM356 330q0 -53 34 -87t95 -34q147 0 230 115v157q-45 2 -85 3q-141 0 -199 -29q-75 -37 -75 -121v-4z" />
<glyph unicode="b" horiz-adv-x="1247" d="M131 92v1340q0 63 33 86.5t110.5 23.5t110.5 -23.5t33 -86.5v-461q143 172 336 172q180 0 286.5 -120t106.5 -329v-276q0 -213 -128 -328t-308 -115q-211 0 -301 152v-35q0 -59 -32 -82.5t-107.5 -23.5t-107.5 23.5t-32 82.5zM418 471q0 -111 61.5 -186.5t169.5 -75.5 q211 0 211 237v199q0 264 -211 264q-92 0 -161.5 -64.5t-69.5 -174.5v-199z" />
<glyph unicode="c" horiz-adv-x="1103" d="M102 424v268q0 213 137.5 332t335.5 119q162 0 276 -76t150 -217q5 -20 5 -36q0 -32 -18 -51q-28 -30 -97 -44q-38 -9 -65 -9q-23 0 -38 7q-31 14 -45 65q-16 55 -61 91t-107 36q-186 0 -186 -233v-252q0 -215 197 -215q66 0 102.5 31.5t67.5 91.5q22 43 67 42 q39 0 97 -32q57 -35 70 -68q4 -11 5 -25q0 -29 -18 -71q-47 -94 -148.5 -148.5t-250.5 -54.5q-215 0 -345.5 115t-130.5 334z" />
<glyph unicode="d" horiz-adv-x="1249" d="M102 420v278q0 201 115 323t311 122q184 0 303 -101v390q0 63 33 86.5t111 23.5t110.5 -23.5t32.5 -86.5v-1336q0 -63 -32.5 -86.5t-110.5 -23.5q-76 0 -105.5 23.5t-29.5 86.5v19q-113 -139 -320 -140q-182 0 -300 116t-118 329zM389 451q0 -242 215 -242 q119 0 173 75.5t54 198.5v199q0 100 -65.5 163.5t-155.5 63.5q-104 0 -162.5 -60.5t-58.5 -211.5v-186z" />
<glyph unicode="e" horiz-adv-x="1138" d="M102 424v256q0 215 129 339t344 124q465 0 465 -492v-61q0 -61 -36.5 -96t-100.5 -35h-518v-45q0 -205 195 -205q137 0 204 102q23 35 66 35q40 0 98 -31q53 -29 66 -59q3 -8 3 -19q0 -28 -24 -69q-131 -193 -413 -193q-233 0 -355.5 119t-122.5 330zM385 653h383v60 q0 197 -195 196q-188 0 -188 -219v-37z" />
<glyph unicode="f" horiz-adv-x="829" d="M55 964.5q0 63.5 18.5 89t69.5 25.5h74v58q0 399 383 399q160 0 262 -98q34 -40 35 -69q0 -32 -49 -81q-52 -50 -92 -50q-27 0 -47 24q-39 41 -103 41q-102 0 -102 -117v-107h219q51 0 69.5 -25.5t18.5 -89t-18.5 -89t-69.5 -25.5h-219v-754q0 -63 -33 -86.5 t-110.5 -23.5t-110.5 23.5t-33 86.5v754h-74q-51 0 -69.5 25.5t-18.5 89z" />
<glyph unicode="g" horiz-adv-x="1099" d="M39 -115q0 84 51 148.5t135 101.5q-96 55 -96 162q0 121 119 190q-160 92 -160 283v18q0 166 121 260.5t328 94.5q145 0 262 -56q139 90 258 91q43 0 59.5 -22.5t16.5 -76t-16.5 -76t-59.5 -22.5h-125q51 -82 51 -176v-55q0 -145 -124 -236.5t-339 -91.5q-59 0 -125 10 q-25 -25 -24 -51q0 -45 67 -55l299 -39q180 -23 252 -113t72 -246q0 -160 -133 -267t-387 -107q-244 0 -373 85.5t-129 245.5zM311 -76q0 -152 230 -151q246 0 245 149q0 59 -31.5 91t-117.5 44l-137 17l-72 10q-117 -49 -117 -160zM352 776q0 -152 185 -151q182 0 182 151 q0 164 -182 164q-92 0 -138.5 -44t-46.5 -120z" />
<glyph unicode="h" horiz-adv-x="1222" d="M131 96v1336q0 63 33 86.5t110.5 23.5t110.5 -23.5t33 -86.5v-465q45 51 83 84.5t107.5 62.5t153.5 29q154 0 247 -97.5t93 -263.5v-686q0 -63 -34 -86.5t-111.5 -23.5t-110.5 23.5t-33 86.5v629q0 184 -160 184q-82 0 -142 -49t-93 -125v-639q0 -63 -33 -86.5 t-110.5 -23.5t-110.5 23.5t-33 86.5z" />
<glyph unicode="i" horiz-adv-x="542" d="M127 96q0 -63 33 -86.5t110.5 -23.5t110.5 23.5t33 86.5v926q0 63 -33 87t-110.5 24t-110.5 -24t-33 -87v-926zM127 1352v96q0 96 143.5 96t143.5 -96v-96q0 -96 -143.5 -96t-143.5 96z" />
<glyph unicode="j" horiz-adv-x="561" d="M23 -207q66 76 94 145.5t28 170.5v913q0 63 33 87t111 24t110.5 -24t32.5 -87v-911q0 -279 -211 -502q-28 -29 -62 -30q-45 0 -104 50q-61 51 -61 100q1 32 29 64zM145 1352v96q0 96 143.5 96t143.5 -96v-96q0 -96 -143.5 -96t-143.5 96z" />
<glyph unicode="k" horiz-adv-x="1153" d="M131 96v1336q0 63 33 86.5t110.5 23.5t110.5 -23.5t33 -86.5v-752l317 367q47 53 85 69.5t130 16.5q129 0 129 -58q0 -33 -43 -76l-282 -307l327 -563q33 -57 33 -80q0 -63 -139 -63q-84 0 -115 13t-61 69l-242 430l-139 -142v-260q0 -63 -33 -86.5t-110.5 -23.5 t-110.5 23.5t-33 86.5z" />
<glyph unicode="l" horiz-adv-x="550" d="M131 104v1328q0 63 33 86.5t110.5 23.5t110.5 -23.5t33 -86.5v-1328q0 -63 -33 -86.5t-110.5 -23.5t-110.5 23.5t-33 86.5z" />
<glyph unicode="m" horiz-adv-x="1783" d="M127 98v928q0 59 31.5 83t107.5 24t108 -24t32 -83v-55q125 172 335 172q190 0 267 -197q131 197 350 197q141 0 222 -100.5t81 -256.5v-688q0 -63 -33 -86.5t-110.5 -23.5t-110.5 23.5t-33 86.5v631q0 180 -129 180q-86 0 -139 -54t-68 -120v-637q0 -63 -32.5 -86.5 t-110.5 -23.5t-110.5 23.5t-32.5 86.5v631q0 180 -138 180q-82 0 -133 -54t-67 -118v-639q0 -63 -33 -86.5t-110.5 -23.5t-110.5 23.5t-33 86.5z" />
<glyph unicode="n" horiz-adv-x="1218" d="M127 98v928q0 59 31.5 83t107.5 24t108 -24t32 -83v-63q158 180 366 180q154 0 239 -97.5t85 -242.5v-705q0 -63 -33 -86.5t-111 -23.5t-110.5 23.5t-32.5 86.5v627q0 184 -156 184q-158 0 -239 -174v-637q0 -63 -33 -86.5t-110.5 -23.5t-110.5 23.5t-33 86.5z" />
<glyph unicode="o" horiz-adv-x="1198" d="M102 406v299q0 211 129 324.5t369 113.5q236 0 366 -114t130 -324v-291q0 -209 -130 -324t-368 -115t-367 114t-129 317zM389 430q0 -221 209 -221q96 0 153.5 52t57.5 167v262q0 115 -57.5 167t-153.5 52q-209 0 -209 -221v-258z" />
<glyph unicode="p" horiz-adv-x="1241" d="M125 -324v1346q0 59 31.5 82.5t107.5 23.5t107.5 -23.5t31.5 -82.5v-57q137 178 345 178q180 0 286.5 -120t106.5 -329v-276q0 -213 -128 -328t-308 -115q-203 0 -293 152v-451q0 -63 -33 -86.5t-111 -23.5t-110.5 23.5t-32.5 86.5zM412 457q0 -109 60 -178.5t169 -69.5 q211 0 211 237v199q0 264 -209 264q-92 0 -161.5 -64.5t-69.5 -174.5v-213z" />
<glyph unicode="q" horiz-adv-x="1249" d="M102 403v304q0 197 117 316.5t297 119.5q215 0 324 -146v25q0 59 31.5 82.5t107.5 23.5t107.5 -23.5t31.5 -82.5v-1346q0 -63 -32.5 -86.5t-110.5 -23.5t-111 23.5t-33 86.5v441q-129 -141 -317 -142q-178 0 -295 116.5t-117 311.5zM389 434q0 -100 52.5 -162.5 t156.5 -62.5q233 0 233 272v178q0 113 -59 181.5t-164 68.5q-121 0 -170 -73.5t-49 -178.5v-223z" />
<glyph unicode="r" horiz-adv-x="784" d="M127 98v924q0 59 31.5 82.5t107.5 23.5t108 -23.5t32 -82.5v-94q119 213 292 213q61 0 79 -34q11 -21 11 -55q0 -20 -4 -44q-12 -76 -36 -107q-22 -27 -52 -27h-8t-17.5 1.5t-19.5 1.5q-92 0 -153.5 -59.5t-83.5 -137.5v-582q0 -63 -33 -86.5t-110.5 -23.5t-110.5 23.5 t-33 86.5z" />
<glyph unicode="s" horiz-adv-x="956" d="M82 258q14 33 70 68q49 29 86 28q54 0 81 -59q45 -96 177 -96q63 0 102 29.5t39 76.5q0 39 -41 70t-102.5 51t-132 51t-132 68t-102.5 103.5t-41 154.5q0 152 110.5 246t292.5 94q139 0 237.5 -61.5t135.5 -163.5q6 -19 7 -35q0 -67 -111 -90q-36 -9 -62 -10q-14 0 -24 3 q-29 8 -45 43q-39 86 -154 86q-129 0 -129 -96q0 -43 56.5 -73.5t137 -59.5t162.5 -67.5t138.5 -115.5t56.5 -186q0 -150 -108.5 -246t-290.5 -96q-305 0 -402 189q-17 40 -17 68q0 15 5 26z" />
<glyph unicode="t" horiz-adv-x="806" d="M25 964.5q0 63.5 18 89t70 25.5h73v178q0 61 32 84t107.5 23t107.5 -22.5t32 -84.5v-178h147q51 0 69.5 -25.5t18.5 -89t-18 -89t-70 -25.5h-139v-463q0 -90 29.5 -122t124.5 -32h6q53 0 71.5 -25.5t18.5 -91t-18.5 -91t-71.5 -25.5h-70q-168 0 -272.5 78t-104.5 256v516 h-73q-51 0 -69.5 25.5t-18.5 89z" />
<glyph unicode="u" horiz-adv-x="1218" d="M121 315v705q0 63 32.5 86.5t110.5 23.5t112 -23.5t34 -86.5v-631q0 -180 145 -180q68 0 135.5 38t114.5 105v668q0 63 32.5 86.5t110.5 23.5t111 -23.5t33 -86.5v-924q0 -59 -32 -82.5t-107.5 -23.5t-107.5 23.5t-32 82.5v19q-168 -139 -348 -140q-170 0 -257 89 t-87 251z" />
<glyph unicode="v" horiz-adv-x="1075" d="M43 1004q-9 26 -9 46q0 32 21 51q35 32 119 32q80 0 117 -19.5t53 -73.5l121 -397q49 -166 86 -410h4q31 219 86 410l121 406q14 49 48 66.5t108 17.5q127 0 127 -76q0 -19 -9 -43l-317 -944q-29 -86 -164 -86q-86 0 -128 18t-60 68z" />
<glyph unicode="w" horiz-adv-x="1548" d="M49 1014q-6 21 -5 38q0 33 21 52q32 29 117 29q68 0 100.5 -17.5t45.5 -68.5l92 -420q47 -215 67 -394h5q18 164 67 394l88 422q10 49 45 66.5t103 17.5q129 0 147 -84l86 -424q43 -203 64 -392h4q25 197 67 394l97 428q10 45 38.5 61.5t85.5 16.5q74 0 102 -26 q18 -17 18 -48q0 -16 -5 -35l-235 -958q-23 -82 -179 -82q-76 0 -115.5 17t-49.5 65l-74 315q-47 213 -64 369h-4q-18 -143 -73 -412l-56 -270q-18 -84 -172 -84q-78 0 -119 17t-53 67z" />
<glyph unicode="x" horiz-adv-x="1064" d="M53 16q-11 12 -11 30q0 25 21 60l299 457l-290 457q-17 27 -17 49q0 20 15 34q31 30 116 30q127 0 172 -76l174 -297l166 289q35 55 65 69.5t116 14.5q118 0 118 -57q0 -25 -24 -62l-299 -453l295 -463q17 -27 16 -48q0 -20 -15 -35q-32 -30 -118 -29q-129 0 -174 75 l-172 301l-164 -290q-33 -55 -62.5 -69.5t-117.5 -14.5q-82 -1 -109 28z" />
<glyph unicode="y" horiz-adv-x="1046" d="M31 1006q-10 28 -10 49q0 29 18 47q31 31 119 31q84 0 119.5 -18.5t52.5 -74.5l207 -708l215 715q14 51 46.5 68.5t106.5 17.5q90 0 118 -28q15 -15 15 -41q0 -21 -10 -50l-360 -983q-57 -160 -138 -260.5t-190 -180.5q-39 -25 -68 -25q-9 0 -17 3q-34 10 -75 67 q-44 57 -44 95q0 37 48 71q70 45 116 92.5t81 126.5z" />
<glyph unicode="z" horiz-adv-x="985" d="M70 78q-7 23 -7 43q0 37 21 67l479 699h-364q-53 0 -71.5 25.5t-18.5 91t18 91t72 25.5h643q63 0 90 -78q6 -20 6 -39q0 -39 -25 -73l-473 -697h416q53 0 71.5 -25.5t18.5 -91t-18.5 -91t-71.5 -25.5h-696q-63 0 -90 78z" />
<glyph unicode="{" horiz-adv-x="796" d="M45 625q0 104 68 112q92 8 119.5 53.5t27.5 170.5v323q0 129 76 207t209 78h69h2q51 0 71 -28t20 -91q0 -61 -19.5 -89t-71.5 -28h-14q-94 0 -94 -98v-367q0 -90 -57.5 -154.5t-143.5 -80.5v-4q80 -14 140.5 -85t60.5 -161v-334q0 -63 23.5 -92t80.5 -29h6q51 0 71 -27.5 t20 -88.5q0 -63 -19.5 -92t-71.5 -29h-73q-133 0 -209 81t-76 212v372q0 135 -147 158q-68 9 -68 111z" />
<glyph unicode="|" horiz-adv-x="583" d="M158 -442v1988q0 59 30.5 82t104.5 23t104.5 -22.5t30.5 -82.5v-1988q0 -59 -30.5 -82t-104.5 -23t-104.5 23t-30.5 82z" />
<glyph unicode="}" horiz-adv-x="806" d="M98 1448q0 63 19.5 92t70.5 29h74q133 0 209 -81t76 -212v-373q0 -137 147 -158q68 -8 68 -110q0 -104 -68 -113q-92 -8 -119.5 -53t-27.5 -170v-324q0 -129 -76 -206.5t-209 -77.5h-69h-3q-51 0 -70.5 27.5t-19.5 91.5q0 61 19.5 88.5t70.5 27.5h15q94 0 94 99v366 q0 90 57.5 154.5t143.5 81.5v4q-80 14 -140.5 84.5t-60.5 161.5v333q0 63 -23.5 92t-80.5 29h-7q-51 0 -70.5 28t-19.5 89z" />
<glyph unicode="~" d="M203 662q27 41 109.5 94t162.5 53q86 0 205 -53.5t170 -53.5q68 0 131 60q53 51 127 -23q68 -68 25 -123q-43 -57 -115 -98t-144 -41q-106 0 -221.5 53.5t-165.5 53.5q-61 0 -133 -68q-53 -51 -127 23q-65 66 -24 123z" />
<glyph unicode="&#xa1;" horiz-adv-x="641" d="M186 -274l35 892q2 43 22.5 59.5t75.5 16.5q53 0 74 -16t23 -62l37 -890q2 -57 -30 -80t-103.5 -23t-103.5 23t-30 80zM190 963v92q0 51 31 71.5t96.5 20.5t96 -20.5t30.5 -71.5v-92q0 -51 -30.5 -72t-96 -21t-96.5 21t-31 72z" />
<glyph unicode="&#xa2;" d="M225 424v270q0 170 88 279.5t234 150.5v111q0 63 32.5 87t110.5 24t111 -24t33 -87v-107q236 -53 301 -278q16 -55 -11.5 -86t-99.5 -45q-72 -16 -102.5 -2t-44.5 65q-37 125 -179 125q-186 0 -186 -256v-225q0 -215 190 -215q121 0 181 123q39 80 161 8 q57 -35 71.5 -68.5t-13.5 -95.5q-80 -152 -268 -188v-111q0 -63 -33 -86.5t-111 -23.5t-110.5 23.5t-32.5 86.5v113q-150 33 -236 143.5t-86 288.5z" />
<glyph unicode="&#xa3;" d="M109 723q0 66 20.5 94.5t73.5 28.5h96q-2 23 -16.5 102.5t-14.5 134.5q0 207 139.5 324t364.5 117q158 0 271.5 -77t164.5 -218q35 -96 -108 -127q-68 -12 -93.5 -2t-45.5 53q-61 137 -201 137q-92 0 -145.5 -52t-53.5 -148q0 -39 15.5 -129.5t17.5 -114.5h264 q53 0 73.5 -29t20.5 -94q0 -63 -20.5 -91t-73.5 -28h-256q0 -199 -102 -362h583q53 0 74 -29t21 -94q0 -63 -20.5 -91t-74.5 -28h-835q-59 0 -84 74q-18 61 12 102q139 174 139 393v35h-112q-53 0 -73.5 28t-20.5 91z" />
<glyph unicode="&#xa4;" d="M55 594q0 59 18.5 86t65.5 27h103v73h-103q-47 0 -65.5 25.5t-18.5 81.5q0 59 18.5 85.5t65.5 26.5h103v27q0 217 135 356.5t362 139.5q225 0 339 -79t167 -216q23 -57 -9 -89t-108 -48q-76 -14 -102.5 -2t-46.5 61q-57 133 -227 133q-106 0 -160.5 -66.5t-54.5 -179.5 v-37h239q47 0 65.5 -26.5t18.5 -85.5q0 -106 -84 -107h-239v-73h239q47 0 65.5 -27t18.5 -86q0 -55 -18.5 -81t-65.5 -26h-239v-26q0 -113 54 -179.5t161 -66.5q170 0 227 133q20 49 47 61.5t102 -1.5q76 -16 108 -48t9 -90q-53 -137 -166.5 -216t-339.5 -79 q-227 0 -362 139.5t-135 356.5v16h-103q-47 0 -65.5 26t-18.5 81z" />
<glyph unicode="&#xa5;" d="M63 1452q0 33 28 47t106 14q88 0 119.5 -11t58.5 -62l295 -586l276 580q27 55 58.5 67t138.5 12q129 0 129 -49q0 -20 -25 -63l-434 -813v-21h209q49 0 68.5 -27.5t19.5 -90.5q0 -59 -19.5 -86t-68.5 -27h-209v-236q0 -66 -34 -90t-113.5 -24t-113.5 24.5t-34 89.5v236 h-221q-49 0 -68.5 26.5t-19.5 86.5q0 63 19.5 90.5t68.5 27.5h221v21l-430 798q-25 48 -25 66z" />
<glyph unicode="&#xa6;" horiz-adv-x="575" d="M158 342q0 59 30.5 81.5t104.5 22.5t104.5 -22.5t30.5 -81.5v-786q0 -59 -30.5 -82t-104.5 -23t-104.5 22.5t-30.5 82.5v786zM158 760v786q0 59 30.5 82t104.5 23t104.5 -22.5t30.5 -82.5v-786q0 -59 -30.5 -82t-104.5 -23t-104.5 23t-30.5 82z" />
<glyph unicode="&#xa7;" horiz-adv-x="1085" d="M111 1231q0 115 102 208t305 93q281 0 352 -209q33 -86 -96 -117q-96 -23 -121 35q-39 80 -135 80q-121 0 -121 -82q0 -41 55.5 -86t206.5 -111q158 -70 230 -144.5t72 -192.5q0 -172 -179 -256q195 -123 195 -297q0 -141 -126 -238.5t-312 -97.5q-283 0 -377 184 q-27 59 -13.5 91t66.5 63q115 68 162 -27q43 -96 164 -96q127 0 127 121q0 61 -60.5 109t-187.5 108q-143 63 -218 138t-75 189q0 166 168 242q-184 115 -184 293zM395 696.5q0 -55.5 51.5 -96.5t114.5 -41q131 0 131 129q0 61 -51 97t-123 36q-55 0 -89 -34.5t-34 -90z" />
<glyph unicode="&#xa8;" horiz-adv-x="880" d="M109 1341v105q0 49 28.5 68.5t92 19.5t92 -19.5t28.5 -68.5v-105q0 -49 -28.5 -68.5t-90.5 -19.5q-63 0 -92.5 19.5t-29.5 68.5zM530 1341v105q0 49 29 68.5t92.5 19.5t92 -19.5t28.5 -68.5v-105q0 -49 -28.5 -68.5t-90.5 -19.5q-63 0 -93 19.5t-30 68.5z" />
<glyph unicode="&#xa9;" horiz-adv-x="1552" d="M41 731q0 315 213 519t520 204q334 0 535.5 -203.5t201.5 -519.5q0 -301 -217 -516t-520 -215q-326 0 -529.5 200.5t-203.5 530.5zM219 733q0 -244 151.5 -406.5t405.5 -162.5q229 0 393 169t164 400q0 236 -153.5 396.5t-403.5 160.5q-248 0 -402.5 -160.5 t-154.5 -396.5zM436 623q0 -160 95.5 -245t252.5 -85q219 0 295 149q18 45 9 70t-52 51q-90 53 -121 -8q-23 -43 -49 -66.5t-75 -23.5q-143 0 -144 158v186q0 170 137 170q45 0 78 -25.5t45 -66.5q10 -37 33 -48.5t76 1.5q51 12 71.5 33.5t8.5 62.5q-27 102 -110 158.5 t-202 56.5q-147 0 -247.5 -87t-100.5 -245v-196z" />
<glyph unicode="&#xaa;" horiz-adv-x="888" d="M82 915v9q0 139 115.5 204.5t369.5 63.5v22q0 135 -135 136q-90 0 -143 -72q-27 -37 -47.5 -41t-65.5 20q-94 45 -53 115q45 78 122 115t206 37q158 0 252 -83t94 -235v-436q0 -47 -23.5 -64.5t-83.5 -17.5q-55 0 -78.5 17.5t-23.5 64.5v21q-119 -111 -266 -111 q-102 0 -171 64.5t-69 170.5zM289 930q0 -37 26.5 -58.5t71.5 -21.5q104 0 180 84v117q-162 8 -220 -23t-58 -90v-8z" />
<glyph unicode="&#xab;" horiz-adv-x="1193" d="M119 541q-47 74 0 145l243 354q27 41 59 44t81 -27q98 -63 51 -131l-217 -312l217 -313q47 -68 -51 -131q-49 -31 -81 -28t-59 44zM618 541q-47 74 0 145l244 354q27 41 58.5 44t80.5 -27q98 -63 52 -131l-217 -312l217 -313q47 -68 -52 -131q-49 -31 -80.5 -28t-58.5 44 z" />
<glyph unicode="&#xac;" d="M115 647q0 55 17.5 79t62.5 24h921q51 0 70.5 -27t19.5 -88v-350q0 -45 -22.5 -61.5t-75.5 -16.5t-75.5 16.5t-22.5 61.5v260h-815q-45 0 -62.5 23.5t-17.5 78.5z" />
<glyph unicode="&#xad;" horiz-adv-x="1013" d="M102 618q0 59 18.5 86t65.5 27h641q47 0 65.5 -26.5t18.5 -86.5q0 -57 -18.5 -82.5t-65.5 -25.5h-641q-47 0 -65.5 25.5t-18.5 82.5z" />
<glyph unicode="&#xae;" horiz-adv-x="997" d="M70 1096q0 178 126 303t304 125q176 0 302 -126t126 -302q0 -178 -125 -298t-303 -120q-180 0 -305 121t-125 297zM178 1096q0 -133 92 -227.5t229.5 -94.5t228.5 94.5t91 227.5q0 137 -94 234t-225 97q-139 0 -230.5 -95t-91.5 -236zM348 913v363q0 39 55 39h119 q76 0 114 -36t38 -93v-19q0 -84 -88 -120l63 -121q8 -16 8 -27q0 -18 -47 -18q-45 0 -57 26l-64 131h-47v-125q0 -33 -47 -33t-47 33zM442 1110h64q74 0 74 59v13q0 59 -72 59h-66v-131z" />
<glyph unicode="&#xaf;" horiz-adv-x="778" d="M94 1434q0 57 18.5 82.5t63.5 25.5h426q43 0 61.5 -25.5t18.5 -82.5q0 -55 -18.5 -80t-61.5 -25h-426q-45 0 -63.5 25t-18.5 80z" />
<glyph unicode="&#xb0;" horiz-adv-x="851" d="M82 1200q0 141 100.5 238.5t241.5 97.5q152 0 249 -94t97 -242q0 -141 -101.5 -238.5t-244.5 -97.5q-147 0 -244.5 94.5t-97.5 241.5zM266 1200q0 -66 43 -112t113 -46q68 0 114 44t46 114q0 68 -44 114t-116 46q-66 0 -111 -45t-45 -115z" />
<glyph unicode="&#xb1;" d="M137 117q0 61 19.5 87.5t70.5 26.5h310v285h-310q-51 0 -70.5 26.5t-19.5 90.5q0 61 19.5 88t70.5 27h310v311q0 57 28.5 78.5t98 21.5t99.5 -21.5t30 -78.5v-311h313q51 0 70.5 -27t19.5 -88q0 -63 -19.5 -90t-70.5 -27h-313v-285h313q51 0 70.5 -26.5t19.5 -87.5 q0 -63 -19.5 -90t-70.5 -27h-879q-51 0 -70.5 27t-19.5 90z" />
<glyph unicode="&#xb2;" horiz-adv-x="722" d="M51 793v47q0 199 191 295q20 10 56 27.5t57.5 28.5t45 26.5t34.5 33t11 35.5q0 72 -88 72q-100 0 -137 -84q-27 -55 -98 -23q-86 33 -55 97q96 176 297 176q137 0 211.5 -60.5t74.5 -177.5q0 -92 -71.5 -153.5t-200.5 -120.5q-74 -35 -99.5 -61.5t-25.5 -71.5h309 q63 0 64 -86q0 -84 -64 -84h-448q-64 0 -64 84z" />
<glyph unicode="&#xb3;" horiz-adv-x="704" d="M53 1350q31 72 110 123t185 51q141 0 211 -60.5t70 -158.5v-11q0 -55 -33 -104t-76 -62q47 -18 79 -62t32 -99v-21q0 -106 -75 -177t-206 -71q-111 0 -185.5 42t-105.5 110q-31 66 43 100q76 35 103 -12q41 -72 129 -72q92 0 92 86v13q0 39 -27.5 63.5t-68.5 24.5h-60 q-55 0 -55 71q0 74 55 74h47q43 0 76 24.5t33 59.5v6q0 33 -22.5 55.5t-65.5 22.5q-92 0 -135 -80q-27 -53 -92 -24q-81 31 -58 88z" />
<glyph unicode="&#xb4;" horiz-adv-x="585" d="M113 1298l123 211q35 59 149 60q66 0 88.5 -23.5t-6.5 -62.5l-174 -207q-37 -49 -111 -49q-110 -1 -69 71z" />
<glyph unicode="&#xb5;" d="M178 -348v1368q0 63 33 86.5t110.5 23.5t111.5 -23.5t34 -86.5v-582q0 -82 46 -132t136 -50q84 0 147.5 48t73.5 112v604q0 63 33 86.5t111 23.5t110.5 -23.5t32.5 -86.5v-924q0 -61 -29.5 -83.5t-103.5 -22.5t-103.5 22.5t-29.5 83.5v31q-84 -152 -244 -152 q-131 0 -180 86v-409q0 -63 -34 -87t-111.5 -24t-110.5 24t-33 87z" />
<glyph unicode="&#xb6;" horiz-adv-x="1273" d="M41 924q0 254 168 414.5t446 160.5h484h2q47 0 64.5 -24.5t17.5 -81.5q0 -55 -17.5 -80t-64.5 -25h-72v-1487v-2q0 -53 -27.5 -73.5t-93 -20.5t-93.5 20.5t-28 73.5v1489h-127v-852h-155q-244 0 -374 132.5t-130 355.5z" />
<glyph unicode="&#xb7;" horiz-adv-x="526" d="M119 696q0 57 33.5 80t105.5 23t105.5 -22.5t33.5 -80.5v-118q0 -57 -32.5 -80t-104.5 -23t-105.5 22.5t-33.5 80.5z" />
<glyph unicode="&#xb8;" horiz-adv-x="954" d="M236 -283q27 76 86 41q70 -43 141 -43q70 0 69 58q0 53 -92 53q-23 0 -34 1t-24 10t-13 30v164h176v-94q82 0 128 -49.5t46 -118.5v-15q0 -72 -65.5 -126t-172.5 -54q-139 0 -231 68q-32 24 -14 75z" />
<glyph unicode="&#xb9;" horiz-adv-x="589" d="M33 1327q-4 41 4 59.5t39 24.5q115 27 145 45q18 10 29 31q18 35 96 35q41 0 58.5 -12.5t17.5 -47.5v-592h84q35 0 48 -18t13 -64q0 -41 -13 -59t-48 -18h-377q-35 0 -48 18.5t-13 58.5q0 45 13 63.5t48 18.5h94v404l-131 -12q-31 -2 -43 12t-16 53z" />
<glyph unicode="&#xba;" horiz-adv-x="870" d="M72 993v230q0 150 100 225.5t262 75.5q166 0 266.5 -77t100.5 -235v-219q0 -158 -102.5 -234.5t-264.5 -76.5q-172 0 -267 78.5t-95 232.5zM276 1004q0 -68 41 -111t117 -43q160 0 160 154v202q0 150 -160 150q-80 0 -119 -42t-39 -108v-202z" />
<glyph unicode="&#xbb;" horiz-adv-x="1196" d="M143 301l217 313l-217 312q-47 68 52 131q49 31 80.5 27.5t58.5 -44.5l244 -354q47 -72 0 -145l-244 -355q-27 -41 -58.5 -44t-80.5 28q-99 63 -52 131zM643 301l217 313l-217 312q-47 68 51 131q49 31 81 27.5t59 -44.5l243 -354q47 -72 0 -145l-243 -355 q-27 -41 -59 -44t-81 28q-98 63 -51 131z" />
<glyph unicode="&#xbc;" horiz-adv-x="1542" d="M51 1305q-4 41 4 59t39 25q115 27 146 45q18 10 28 30q18 35 97 35q41 0 58 -12t17 -47v-576h84q35 0 48.5 -18.5t13.5 -63.5q0 -41 -13.5 -59t-48.5 -18h-377q-35 0 -48 18t-13 59q0 45 13.5 63.5t47.5 18.5h95v387l-131 -12q-31 -2 -43.5 12.5t-16.5 53.5zM329.5 11.5 q-20.5 17.5 0.5 54.5l747 1359q35 61 58.5 74.5t91.5 13.5q111 0 61 -81l-745 -1360q-31 -53 -52.5 -65.5t-87.5 -12.5q-53 0 -73.5 17.5zM846 266q-16 55 14 101l338 516q29 33 52.5 31.5t64.5 -31.5q37 -31 43 -52.5t-17 -56.5l-276 -409h133v57q0 41 20.5 56.5t71.5 15.5 q49 0 70.5 -15.5t21.5 -56.5v-57h48q35 0 49 -19.5t14 -64.5q0 -43 -13.5 -61.5t-49.5 -18.5h-48v-99q0 -45 -22.5 -61t-75.5 -16t-74.5 16t-21.5 61v99h-262q-33 0 -50.5 15t-29.5 50z" />
<glyph unicode="&#xbd;" horiz-adv-x="1640" d="M51 1305q-4 41 4 59t39 25q115 27 146 45q18 10 28 30q18 35 97 35q41 0 58 -12t17 -47v-576h84q35 0 48.5 -18.5t13.5 -63.5q0 -41 -13.5 -59t-48.5 -18h-377q-35 0 -48 18t-13 59q0 45 13.5 63.5t47.5 18.5h95v387l-131 -12q-31 -2 -43.5 12.5t-16.5 53.5zM329.5 11.5 q-20.5 17.5 0.5 54.5l747 1359q35 61 58.5 74.5t91.5 13.5q111 0 61 -81l-745 -1360q-31 -53 -52.5 -65.5t-87.5 -12.5q-53 0 -73.5 17.5zM979 190v48q0 199 190 294q20 10 56.5 28t58 29t45 26.5t34.5 33t11 35.5q0 72 -88 72q-100 0 -137 -84q-27 -55 -98 -23 q-86 33 -56 96q96 176 297 177q137 0 212 -60.5t75 -177.5q0 -92 -71.5 -153.5t-200.5 -120.5q-74 -35 -99.5 -61.5t-25.5 -72.5h309q63 0 63 -86q0 -84 -63 -84h-449q-63 0 -63 84z" />
<glyph unicode="&#xbe;" horiz-adv-x="1544" d="M70 1286q31 72 109.5 123t185.5 51q141 0 210.5 -60.5t69.5 -158.5v-10q0 -55 -32.5 -104.5t-75.5 -61.5q47 -18 78.5 -62.5t31.5 -99.5v-20q0 -106 -74.5 -177t-205.5 -71q-111 0 -186 42t-105 109q-31 66 43 101q76 35 102 -13q41 -72 129 -71q92 0 92 86v12 q0 39 -27.5 63.5t-68.5 24.5h-59q-55 0 -56 72q0 74 56 74h47q43 0 75.5 24.5t32.5 59.5v6q0 33 -22.5 55.5t-65.5 22.5q-92 0 -135 -80q-27 -53 -92 -25q-80 31 -57 88zM329.5 11.5q-20.5 17.5 0.5 54.5l747 1359q35 61 58.5 74.5t91.5 13.5q111 0 61 -81l-745 -1360 q-31 -53 -52.5 -65.5t-87.5 -12.5q-53 0 -73.5 17.5zM846 266q-16 55 14 101l338 516q29 33 52.5 31.5t64.5 -31.5q37 -31 43 -52.5t-17 -56.5l-276 -409h133v57q0 41 20.5 56.5t71.5 15.5q49 0 70.5 -15.5t21.5 -56.5v-57h48q35 0 49 -19.5t14 -64.5q0 -43 -13.5 -61.5 t-49.5 -18.5h-48v-99q0 -45 -22.5 -61t-75.5 -16t-74.5 16t-21.5 61v99h-262q-33 0 -50.5 15t-29.5 50z" />
<glyph unicode="&#xbf;" horiz-adv-x="925" d="M72 -80q0 80 33.5 151.5t82 126t96.5 105.5t81.5 113.5t33.5 128.5v10q0 53 26 72.5t89 19.5q66 0 91.5 -18.5t25.5 -71.5v-27q0 -84 -30 -157.5t-71 -125.5t-82.5 -98.5t-71.5 -96.5t-30 -99q0 -74 44 -119t130 -45q102 0 189 92q61 66 137 -18q82 -88 12 -168 q-127 -145 -358 -146q-190 0 -309 108.5t-119 262.5zM387 907v92q0 51 31 72t96.5 21t96 -20.5t30.5 -72.5v-92q0 -51 -30.5 -71.5t-96 -20.5t-96.5 20.5t-31 71.5z" />
<glyph unicode="&#xc0;" horiz-adv-x="1277" d="M35 100l424 1323q16 53 62 73t141 20q145 0 174 -93l407 -1317q37 -119 -125 -118q-78 0 -112.5 17.5t-49.5 66.5l-88 309h-473l-96 -313q-14 -47 -47 -63.5t-102 -16.5q-80 0 -106.5 26.5t-8.5 85.5zM342 1958.5q23 23.5 88 23.5q115 0 150 -59l122 -211q41 -72 -69 -72 q-74 0 -111 50l-174 206q-29 39 -6 62.5zM469 623h332l-160 571z" />
<glyph unicode="&#xc1;" horiz-adv-x="1277" d="M35 100l424 1323q16 53 62 73t141 20q145 0 174 -93l407 -1317q37 -119 -125 -118q-78 0 -112.5 17.5t-49.5 66.5l-88 309h-473l-96 -313q-14 -47 -47 -63.5t-102 -16.5q-80 0 -106.5 26.5t-8.5 85.5zM469 623h332l-160 571zM586 1712l123 211q35 59 149 59 q66 0 88.5 -23.5t-6.5 -62.5l-174 -206q-37 -49 -111 -50q-110 0 -69 72z" />
<glyph unicode="&#xc2;" horiz-adv-x="1277" d="M35 100l424 1323q16 53 62 73t141 20q145 0 174 -93l407 -1317q37 -119 -125 -118q-78 0 -112.5 17.5t-49.5 66.5l-88 309h-473l-96 -313q-14 -47 -47 -63.5t-102 -16.5q-80 0 -106.5 26.5t-8.5 85.5zM381 1700l143 219q33 51 107 51q84 0 117 -49l145 -221 q18 -29 -6.5 -47.5t-71.5 -18.5q-37 0 -59.5 8.5t-28.5 16.5t-16 27l-74 141l-74 -141q-10 -18 -16 -26.5t-28.5 -17t-59.5 -8.5q-47 0 -71.5 18.5t-6.5 47.5zM469 623h332l-160 571z" />
<glyph unicode="&#xc3;" horiz-adv-x="1277" d="M35 100l424 1323q16 53 62 73t141 20q145 0 174 -93l407 -1317q37 -119 -125 -118q-78 0 -112.5 17.5t-49.5 66.5l-88 309h-473l-96 -313q-14 -47 -47 -63.5t-102 -16.5q-80 0 -106.5 26.5t-8.5 85.5zM297 1821q94 129 215 129q61 2 137 -40t101 -42q18 0 35.5 10 t22.5 16.5t26 28.5q43 49 110 -14q53 -57 21 -107q-94 -131 -213 -131q-68 0 -140.5 42t-99.5 42q-18 0 -35.5 -10t-22.5 -16.5t-26 -28.5q-43 -49 -111 14q-53 58 -20 107zM469 623h332l-160 571z" />
<glyph unicode="&#xc4;" horiz-adv-x="1277" d="M35 100l424 1323q16 53 62 73t141 20q145 0 174 -93l407 -1317q37 -119 -125 -118q-78 0 -112.5 17.5t-49.5 66.5l-88 309h-473l-96 -313q-14 -47 -47 -63.5t-102 -16.5q-80 0 -106.5 26.5t-8.5 85.5zM309 1761v105q0 49 29 68.5t92.5 19.5t92 -19.5t28.5 -68.5v-105 q0 -49 -28.5 -68.5t-90.5 -19.5q-63 0 -93 19.5t-30 68.5zM469 623h332l-160 571zM731 1761v105q0 49 28.5 68.5t92 19.5t92.5 -19.5t29 -68.5v-105q0 -49 -29 -68.5t-90 -19.5q-63 0 -93 19.5t-30 68.5z" />
<glyph unicode="&#xc5;" horiz-adv-x="1277" d="M35 100l424 1323q16 53 62 73t141 20q145 0 174 -93l407 -1317q37 -119 -125 -118q-78 0 -112.5 17.5t-49.5 66.5l-88 309h-473l-96 -313q-14 -47 -47 -63.5t-102 -16.5q-80 0 -106.5 26.5t-8.5 85.5zM438 1772q0 90 60.5 146t148.5 56q92 0 152.5 -56t60.5 -146 q0 -86 -60.5 -142.5t-152.5 -56.5q-88 0 -148.5 56.5t-60.5 142.5zM469 623h332l-160 571zM567 1772q0 -33 22.5 -54.5t57.5 -21.5q37 0 60.5 21.5t23.5 54.5q0 37 -23.5 58t-60.5 21q-35 0 -57.5 -21t-22.5 -58z" />
<glyph unicode="&#xc6;" horiz-adv-x="1763" d="M20 100l611 1274q61 125 184 125h762q57 0 78.5 -30.5t21.5 -100.5q0 -68 -21.5 -98.5t-78.5 -30.5h-475v-352h428h-2h2q53 0 74.5 -30t21.5 -97q0 -66 -21.5 -95.5t-74.5 -29.5h-428v-375h473h2q57 0 78.5 -30.5t21.5 -100.5q0 -68 -21.5 -98.5t-78.5 -30.5h-584 q-100 0 -143 30.5t-43 114.5v162h-383l-109 -235q-25 -51 -57.5 -68.5t-107.5 -17.5q-82 0 -120.5 28.5t-9.5 85.5zM539 551h268v577z" />
<glyph unicode="&#xc7;" horiz-adv-x="1239" d="M111 510v465q0 248 141 398.5t418 150.5q207 0 328.5 -90.5t166.5 -235.5q18 -59 -11.5 -89t-104.5 -46q-74 -14 -104 -2t-48 59q-57 145 -231 146q-127 0 -193.5 -85t-66.5 -235v-397q0 -147 67.5 -230t194.5 -83q172 0 231 157q33 90 170 35q61 -27 79.5 -58.5 t-1.5 -97.5q-41 -104 -155.5 -190t-272.5 -102v-62q86 0 138 -45t52 -123v-14q0 -72 -65.5 -126t-171.5 -54q-139 0 -232 67q-33 25 -14 76q27 76 86 41q70 -43 141 -43q70 0 70 57q0 53 -92 53q-23 0 -34 1.5t-24.5 10.5t-13.5 29v134q-448 49 -448 528z" />
<glyph unicode="&#xc8;" horiz-adv-x="1087" d="M131 145v1209q0 84 43 114.5t143 30.5h584q57 0 78.5 -30.5t21.5 -100.5q0 -68 -21.5 -98.5t-78.5 -30.5h-475v-352h428h-2h2q53 0 74.5 -30t21.5 -97q0 -66 -21.5 -95.5t-74.5 -29.5h-428v-375h473h2q57 0 78.5 -30.5t21.5 -100.5q0 -68 -21.5 -98.5t-78.5 -30.5h-584 q-100 0 -143 30.5t-43 114.5zM280.5 1954.5q22.5 23.5 88.5 23.5q115 0 149 -59l123 -211q41 -72 -70 -72q-74 0 -110 50l-174 206q-29 39 -6.5 62.5z" />
<glyph unicode="&#xc9;" horiz-adv-x="1087" d="M131 145v1209q0 84 43 114.5t143 30.5h584q57 0 78.5 -30.5t21.5 -100.5q0 -68 -21.5 -98.5t-78.5 -30.5h-475v-352h428h-2h2q53 0 74.5 -30t21.5 -97q0 -66 -21.5 -95.5t-74.5 -29.5h-428v-375h473h2q57 0 78.5 -30.5t21.5 -100.5q0 -68 -21.5 -98.5t-78.5 -30.5h-584 q-100 0 -143 30.5t-43 114.5zM494 1708l122 211q35 59 150 59q66 0 88.5 -23.5t-6.5 -62.5l-174 -206q-37 -49 -111 -50q-110 0 -69 72z" />
<glyph unicode="&#xca;" horiz-adv-x="1087" d="M131 145v1209q0 84 43 114.5t143 30.5h584q57 0 78.5 -30.5t21.5 -100.5q0 -68 -21.5 -98.5t-78.5 -30.5h-475v-352h428h-2h2q53 0 74.5 -30t21.5 -97q0 -66 -21.5 -95.5t-74.5 -29.5h-428v-375h473h2q57 0 78.5 -30.5t21.5 -100.5q0 -68 -21.5 -98.5t-78.5 -30.5h-584 q-100 0 -143 30.5t-43 114.5zM307 1720l144 219q33 51 106 52q84 0 117 -49l145 -222q18 -29 -6.5 -47t-71.5 -18q-37 0 -59.5 8t-28.5 16.5t-16 26.5l-74 141l-74 -141q-10 -18 -16 -26.5t-28.5 -16.5t-59.5 -8q-47 0 -71.5 18t-6.5 47z" />
<glyph unicode="&#xcb;" horiz-adv-x="1087" d="M131 145v1209q0 84 43 114.5t143 30.5h584q57 0 78.5 -30.5t21.5 -100.5q0 -68 -21.5 -98.5t-78.5 -30.5h-475v-352h428h-2h2q53 0 74.5 -30t21.5 -97q0 -66 -21.5 -95.5t-74.5 -29.5h-428v-375h473h2q57 0 78.5 -30.5t21.5 -100.5q0 -68 -21.5 -98.5t-78.5 -30.5h-584 q-100 0 -143 30.5t-43 114.5zM229 1763v105q0 49 29 68.5t92.5 19.5t92 -19.5t28.5 -68.5v-105q0 -49 -28.5 -68.5t-90.5 -19.5q-63 0 -93 19.5t-30 68.5zM651 1763v105q0 49 29 68.5t92.5 19.5t92 -19.5t28.5 -68.5v-105q0 -49 -28.5 -68.5t-90.5 -19.5q-63 0 -93 19.5 t-30 68.5z" />
<glyph unicode="&#xcc;" horiz-adv-x="577" d="M-20.5 1958.5q22.5 23.5 88.5 23.5q115 0 149 -59l123 -211q41 -72 -70 -72q-74 0 -110 50l-174 206q-29 39 -6.5 62.5zM141 100v1299q0 66 34 90t114 24t113.5 -24.5t33.5 -89.5v-1299q0 -66 -33.5 -90t-113.5 -24t-114 24t-34 90z" />
<glyph unicode="&#xcd;" horiz-adv-x="577" d="M141 100v1299q0 66 34 90t114 24t113.5 -24.5t33.5 -89.5v-1299q0 -66 -33.5 -90t-113.5 -24t-114 24t-34 90zM240 1710l122 211q35 59 150 59q66 0 88.5 -23.5t-6.5 -62.5l-174 -206q-37 -49 -111 -50q-110 0 -69 72z" />
<glyph unicode="&#xce;" horiz-adv-x="577" d="M37 1700l143 219q33 51 107 51q84 0 116 -49l146 -221q18 -29 -6.5 -47.5t-71.5 -18.5q-37 0 -59.5 8.5t-28.5 16.5t-16 27l-74 141l-74 -141q-10 -18 -16 -26.5t-28.5 -17t-59.5 -8.5q-47 0 -71.5 18.5t-6.5 47.5zM141 100v1299q0 66 34 90t114 24t113.5 -24.5 t33.5 -89.5v-1299q0 -66 -33.5 -90t-113.5 -24t-114 24t-34 90z" />
<glyph unicode="&#xcf;" horiz-adv-x="577" d="M-43 1763v105q0 49 28.5 68.5t92 19.5t92.5 -19.5t29 -68.5v-105q0 -49 -29 -68.5t-90 -19.5q-63 0 -93 19.5t-30 68.5zM141 100v1299q0 66 34 90t114 24t113.5 -24.5t33.5 -89.5v-1299q0 -66 -33.5 -90t-113.5 -24t-114 24t-34 90zM379 1763v105q0 49 28.5 68.5t92 19.5 t92.5 -19.5t29 -68.5v-105q0 -49 -29 -68.5t-90 -19.5q-63 0 -93 19.5t-30 68.5z" />
<glyph unicode="&#xd0;" horiz-adv-x="1331" d="M16 762q0 63 19.5 91t68.5 28h27v473q0 84 43 114.5t143 30.5h353q274 0 412.5 -140t138.5 -368v-504q0 -217 -139.5 -352t-411.5 -135h-353q-100 0 -143 30.5t-43 114.5v502h-27q-47 0 -67.5 28t-20.5 87zM426 260h205q158 0 226.5 68.5t68.5 212.5v405q0 145 -70 219 t-225 74h-205v-358h238q49 0 68.5 -28t19.5 -91q0 -61 -19.5 -88t-68.5 -27h-238v-387z" />
<glyph unicode="&#xd1;" horiz-adv-x="1429" d="M131 96v1284q0 78 38 104.5t159 26.5q117 0 163 -20.5t74 -83.5l301 -651q106 -217 172 -445h6q-25 227 -24 459v635q0 61 31.5 84.5t107.5 23.5t108.5 -22.5t32.5 -85.5v-1296q0 -72 -35.5 -96.5t-150.5 -24.5q-113 0 -156 20.5t-71 79.5l-316 657q-55 117 -180 441h-6 q27 -240 27 -406v-684q0 -63 -33 -86.5t-108.5 -23.5t-107.5 23.5t-32 86.5zM414 1823q94 129 215 129q61 2 137 -40t100 -42q18 0 36 10t23 16.5t25 28.5q43 49 111 -14q53 -57 20 -107q-94 -131 -213 -131q-68 0 -140.5 42t-98.5 42q-18 0 -36 -10t-23 -16.5t-25 -28.5 q-43 -49 -111 14q-53 58 -20 107z" />
<glyph unicode="&#xd2;" horiz-adv-x="1392" d="M111 518v469q0 240 150.5 388.5t434.5 148.5q287 0 436.5 -149.5t149.5 -393.5v-469q0 -248 -149.5 -392.5t-436.5 -144.5q-289 0 -437 146.5t-148 396.5zM401.5 1961q22.5 24 87.5 24q115 0 150 -60l123 -211q41 -72 -70 -72q-74 0 -110 50l-174 206q-29 39 -6.5 63z M406 557q0 -158 67.5 -239.5t222.5 -81.5q291 0 291 317v389q0 324 -291 324q-156 0 -223 -82t-67 -238v-389z" />
<glyph unicode="&#xd3;" horiz-adv-x="1392" d="M111 518v469q0 240 150.5 388.5t434.5 148.5q287 0 436.5 -149.5t149.5 -393.5v-469q0 -248 -149.5 -392.5t-436.5 -144.5q-289 0 -437 146.5t-148 396.5zM406 557q0 -158 67.5 -239.5t222.5 -81.5q291 0 291 317v389q0 324 -291 324q-156 0 -223 -82t-67 -238v-389z M631 1714l123 211q35 59 149 60q66 0 88.5 -24t-6.5 -63l-174 -206q-37 -49 -111 -50q-110 0 -69 72z" />
<glyph unicode="&#xd4;" horiz-adv-x="1392" d="M111 518v469q0 240 150.5 388.5t434.5 148.5q287 0 436.5 -149.5t149.5 -393.5v-469q0 -248 -149.5 -392.5t-436.5 -144.5q-289 0 -437 146.5t-148 396.5zM406 557q0 -158 67.5 -239.5t222.5 -81.5q291 0 291 317v389q0 324 -291 324q-156 0 -223 -82t-67 -238v-389z M444 1704l144 219q33 51 106 51q84 0 117 -49l145 -221q18 -29 -6 -47.5t-71 -18.5q-37 0 -59.5 8.5t-29 16.5t-16.5 27l-74 141l-73 -141q-10 -18 -16.5 -26.5t-29 -17t-59.5 -8.5q-47 0 -71.5 18.5t-6.5 47.5z" />
<glyph unicode="&#xd5;" horiz-adv-x="1392" d="M111 518v469q0 240 150.5 388.5t434.5 148.5q287 0 436.5 -149.5t149.5 -393.5v-469q0 -248 -149.5 -392.5t-436.5 -144.5q-289 0 -437 146.5t-148 396.5zM379 1823q94 129 215 129q61 2 137 -40t100 -42q18 0 36 10t23 16.5t25 28.5q43 49 111 -14q53 -57 21 -107 q-94 -131 -213 -131q-68 0 -140.5 42t-99.5 42q-18 0 -35.5 -10t-23 -16.5t-25.5 -28.5q-43 -49 -111 14q-53 58 -20 107zM406 557q0 -158 67.5 -239.5t222.5 -81.5q291 0 291 317v389q0 324 -291 324q-156 0 -223 -82t-67 -238v-389z" />
<glyph unicode="&#xd6;" horiz-adv-x="1392" d="M111 518v469q0 240 150.5 388.5t434.5 148.5q287 0 436.5 -149.5t149.5 -393.5v-469q0 -248 -149.5 -392.5t-436.5 -144.5q-289 0 -437 146.5t-148 396.5zM369 1763v105q0 49 28.5 68.5t92 19.5t92 -19.5t28.5 -68.5v-105q0 -49 -28.5 -68.5t-89.5 -19.5q-63 0 -93 19.5 t-30 68.5zM406 557q0 -158 67.5 -239.5t222.5 -81.5q291 0 291 317v389q0 324 -291 324q-156 0 -223 -82t-67 -238v-389zM791 1763v105q0 49 28.5 68.5t92 19.5t92 -19.5t28.5 -68.5v-105q0 -49 -28.5 -68.5t-90.5 -19.5q-63 0 -92.5 19.5t-29.5 68.5z" />
<glyph unicode="&#xd7;" d="M182 274.5q-4 30.5 31 69.5l291 291l-285 285q-37 39 -33 69.5t50 73.5q45 45 75.5 50t69.5 -30l285 -286l286 286q39 37 70 33t74 -49q45 -45 50 -75.5t-30 -69.5l-287 -287l293 -291q37 -41 31 -71.5t-49 -73.5q-45 -45 -76 -49.5t-70 30.5l-290 291l-291 -291 q-41 -37 -72 -30.5t-74 49.5q-45 45 -49 75.5z" />
<glyph unicode="&#xd8;" horiz-adv-x="1392" d="M111 518v461q0 246 149.5 395.5t435.5 149.5q182 0 318 -68l22 39q35 61 58.5 74.5t89.5 13.5q111 0 61 -82l-90 -153q127 -150 127 -367v-461q0 -252 -148.5 -398.5t-437.5 -146.5q-168 0 -293 52l-26 -47q-29 -55 -49.5 -66.5t-87.5 -11.5q-53 0 -74 17.5t0 53.5 l92 152q-147 141 -147 393zM406 557q0 -84 14 -141l457 801q-70 49 -181 49q-156 0 -223 -82t-67 -238v-389zM541 264q57 -29 155 -28q291 0 291 317v389q0 68 -6 96z" />
<glyph unicode="&#xd9;" horiz-adv-x="1372" d="M121 467v932q0 66 33.5 90t113.5 24t114 -24.5t34 -89.5v-873q0 -295 270 -295q279 0 279 295v877q0 63 32.5 86.5t110.5 23.5t110.5 -23.5t32.5 -86.5v-936q0 -225 -154.5 -358.5t-410.5 -133.5q-272 0 -418.5 130.5t-146.5 361.5zM389.5 1961q22.5 24 87.5 24 q115 0 150 -60l123 -211q41 -72 -70 -72q-74 0 -111 50l-174 206q-28 39 -5.5 63z" />
<glyph unicode="&#xda;" horiz-adv-x="1372" d="M121 467v932q0 66 33.5 90t113.5 24t114 -24.5t34 -89.5v-873q0 -295 270 -295q279 0 279 295v877q0 63 32.5 86.5t110.5 23.5t110.5 -23.5t32.5 -86.5v-936q0 -225 -154.5 -358.5t-410.5 -133.5q-272 0 -418.5 130.5t-146.5 361.5zM625 1712l123 211q35 59 149 59 q66 0 88.5 -23.5t-6.5 -62.5l-174 -206q-37 -49 -111 -50q-110 0 -69 72z" />
<glyph unicode="&#xdb;" horiz-adv-x="1372" d="M121 467v932q0 66 33.5 90t113.5 24t114 -24.5t34 -89.5v-873q0 -295 270 -295q279 0 279 295v877q0 63 32.5 86.5t110.5 23.5t110.5 -23.5t32.5 -86.5v-936q0 -225 -154.5 -358.5t-410.5 -133.5q-272 0 -418.5 130.5t-146.5 361.5zM434 1724l144 220q33 51 106 51 q84 0 117 -49l145 -222q18 -29 -6.5 -47t-71.5 -18q-37 0 -59.5 8t-28.5 16.5t-16 26.5l-74 141l-74 -141q-10 -18 -16 -26.5t-28.5 -16.5t-59.5 -8q-47 0 -71.5 18t-6.5 47z" />
<glyph unicode="&#xdc;" horiz-adv-x="1372" d="M121 467v932q0 66 33.5 90t113.5 24t114 -24.5t34 -89.5v-873q0 -295 270 -295q279 0 279 295v877q0 63 32.5 86.5t110.5 23.5t110.5 -23.5t32.5 -86.5v-936q0 -225 -154.5 -358.5t-410.5 -133.5q-272 0 -418.5 130.5t-146.5 361.5zM356 1765v105q0 49 29 68.5t92.5 19.5 t92 -19.5t28.5 -68.5v-105q0 -49 -28.5 -68.5t-90.5 -19.5q-63 0 -93 19.5t-30 68.5zM778 1765v105q0 49 29 68.5t92.5 19.5t92 -19.5t28.5 -68.5v-105q0 -49 -28.5 -68.5t-90.5 -19.5q-63 0 -93 19.5t-30 68.5z" />
<glyph unicode="&#xdd;" horiz-adv-x="1230" d="M14 1452q0 33 28 47t105 14q88 0 120 -11t59 -62l295 -586l280 580q27 55 58.5 67t138.5 12q129 0 129 -49q0 -20 -25 -63l-438 -813v-488q0 -66 -34 -90t-113.5 -24t-113.5 24.5t-34 89.5v488l-430 798q-25 48 -25 66zM567 1708l123 211q35 59 150 59q66 0 88 -23.5 t-6 -62.5l-174 -206q-37 -49 -111 -50q-111 0 -70 72z" />
<glyph unicode="&#xde;" horiz-adv-x="1171" d="M131 100v1299q0 66 34 90t113.5 24t113.5 -24.5t34 -89.5v-131h186q510 0 510 -455v-119q0 -223 -137 -339.5t-379 -116.5h-180v-138q0 -66 -34 -90t-113.5 -24t-113.5 24t-34 90zM426 494h158q131 0 187 50t56 156v99q0 115 -62.5 163t-178.5 48h-160v-516z" />
<glyph unicode="&#xdf;" horiz-adv-x="1271" d="M123 104v961q0 471 491 471q199 0 327 -105.5t128 -281.5v-43q0 -178 -160 -264q121 -27 211 -117t90 -256v-53q0 -188 -99 -314.5t-325 -126.5q-184 0 -272 115q-61 82 27 152q90 84 141 20q45 -53 100 -53q141 0 142 207v41q0 147 -72 202.5t-168 55.5h-63 q-47 0 -65.5 26.5t-18.5 85.5q0 61 19 88t67 27h24q70 0 103.5 51t33.5 123q0 186 -182 187q-102 0 -147 -57.5t-45 -180.5v-961q0 -63 -33 -86.5t-111 -23.5t-110.5 23.5t-32.5 86.5z" />
<glyph unicode="&#xe0;" horiz-adv-x="1120" d="M72 299v14q0 397 643 342v84q0 170 -189 170q-113 0 -170 -88q-29 -47 -58.5 -52t-86.5 26q-61 31 -78.5 62.5t8.5 88.5q57 100 157.5 148.5t268.5 48.5q186 0 307 -110.5t121 -309.5v-633q0 -61 -31.5 -83.5t-105.5 -22.5t-104.5 22.5t-30.5 83.5v49 q-123 -160 -315 -159q-154 0 -245 92t-91 227zM260.5 1545.5q22.5 23.5 87.5 23.5q115 0 150 -60l123 -211q41 -72 -70 -71q-74 0 -111 49l-174 207q-28 39 -5.5 62.5zM356 330q0 -53 34 -87t95 -34q147 0 230 115v157q-209 10 -284 -26.5t-75 -120.5v-4z" />
<glyph unicode="&#xe1;" horiz-adv-x="1120" d="M72 299v14q0 397 643 342v84q0 170 -189 170q-113 0 -170 -88q-29 -47 -58.5 -52t-86.5 26q-61 31 -78.5 62.5t8.5 88.5q57 100 157.5 148.5t268.5 48.5q186 0 307 -110.5t121 -309.5v-633q0 -61 -31.5 -83.5t-105.5 -22.5t-104.5 22.5t-30.5 83.5v49 q-123 -160 -315 -159q-154 0 -245 92t-91 227zM356 330q0 -53 34 -87t95 -34q147 0 230 115v157q-209 10 -284 -26.5t-75 -120.5v-4zM500 1298l123 211q35 59 149 60q66 0 88.5 -23.5t-6.5 -62.5l-174 -207q-37 -49 -111 -49q-110 -1 -69 71z" />
<glyph unicode="&#xe2;" horiz-adv-x="1120" d="M72 299v14q0 397 643 342v84q0 170 -189 170q-113 0 -170 -88q-29 -47 -58.5 -52t-86.5 26q-61 31 -78.5 62.5t8.5 88.5q57 100 157.5 148.5t268.5 48.5q186 0 307 -110.5t121 -309.5v-633q0 -61 -31.5 -83.5t-105.5 -22.5t-104.5 22.5t-30.5 83.5v49 q-123 -160 -315 -159q-154 0 -245 92t-91 227zM317 1317l144 219q33 51 106 51q84 0 117 -49l145 -221q18 -29 -6 -47.5t-71 -18.5q-37 0 -59.5 8.5t-29 16.5t-16.5 27l-74 141l-73 -141q-10 -18 -16.5 -26.5t-29 -17t-59.5 -8.5q-47 0 -71.5 18.5t-6.5 47.5zM356 330 q0 -53 34 -87t95 -34q147 0 230 115v157q-209 10 -284 -26.5t-75 -120.5v-4z" />
<glyph unicode="&#xe3;" horiz-adv-x="1120" d="M72 299v14q0 397 643 342v84q0 170 -189 170q-113 0 -170 -88q-29 -47 -58.5 -52t-86.5 26q-61 31 -78.5 62.5t8.5 88.5q57 100 157.5 148.5t268.5 48.5q186 0 307 -110.5t121 -309.5v-633q0 -61 -31.5 -83.5t-105.5 -22.5t-104.5 22.5t-30.5 83.5v49 q-123 -160 -315 -159q-154 0 -245 92t-91 227zM223 1413q94 129 215 129q61 2 137 -40t101 -42q18 0 35.5 10.5t22.5 16.5t26 29q43 49 110 -15q53 -57 21 -106q-94 -131 -213 -131q-68 0 -140.5 42t-99.5 42q-18 0 -35.5 -10.5t-22.5 -16.5t-26 -29q-43 -49 -110 15 q-54 57 -21 106zM356 330q0 -53 34 -87t95 -34q147 0 230 115v157q-209 10 -284 -26.5t-75 -120.5v-4z" />
<glyph unicode="&#xe4;" horiz-adv-x="1120" d="M72 299v14q0 397 643 342v84q0 170 -189 170q-113 0 -170 -88q-29 -47 -58.5 -52t-86.5 26q-61 31 -78.5 62.5t8.5 88.5q57 100 157.5 148.5t268.5 48.5q186 0 307 -110.5t121 -309.5v-633q0 -61 -31.5 -83.5t-105.5 -22.5t-104.5 22.5t-30.5 83.5v49 q-123 -160 -315 -159q-154 0 -245 92t-91 227zM231 1341v105q0 49 29 68.5t92.5 19.5t92 -19.5t28.5 -68.5v-105q0 -49 -28.5 -68.5t-90.5 -19.5q-63 0 -93 19.5t-30 68.5zM356 330q0 -53 34 -87t95 -34q147 0 230 115v157q-209 10 -284 -26.5t-75 -120.5v-4zM653 1341v105 q0 49 29 68.5t92.5 19.5t92 -19.5t28.5 -68.5v-105q0 -49 -28.5 -68.5t-90.5 -19.5q-63 0 -93 19.5t-30 68.5z" />
<glyph unicode="&#xe5;" horiz-adv-x="1120" d="M72 299v14q0 397 643 342v84q0 170 -189 170q-113 0 -170 -88q-29 -47 -58.5 -52t-86.5 26q-61 31 -78.5 62.5t8.5 88.5q57 100 157.5 148.5t268.5 48.5q186 0 307 -110.5t121 -309.5v-633q0 -61 -31.5 -83.5t-105.5 -22.5t-104.5 22.5t-30.5 83.5v49 q-123 -160 -315 -159q-154 0 -245 92t-91 227zM354 1417q0 90 60.5 146.5t148.5 56.5q92 0 152.5 -56.5t60.5 -146.5q0 -86 -60.5 -142t-152.5 -56q-88 0 -148.5 56t-60.5 142zM356 330q0 -53 34 -87t95 -34q147 0 230 115v157q-209 10 -284 -26.5t-75 -120.5v-4zM483 1417 q0 -33 22.5 -54.5t57.5 -21.5q37 0 60.5 21.5t23.5 54.5q0 37 -23.5 58.5t-60.5 21.5q-35 0 -57.5 -21.5t-22.5 -58.5z" />
<glyph unicode="&#xe6;" horiz-adv-x="1728" d="M59 299v14q0 180 146.5 268.5t499.5 71.5v74q0 182 -179 182q-111 0 -170 -92q-29 -47 -58.5 -52t-86.5 26q-61 31 -78.5 62.5t8.5 88.5q117 201 406 201q174 0 307 -113q61 59 134 86t194 27q225 0 346 -129t121 -385v-39q0 -63 -36 -97t-100 -34h-526v-33 q0 -106 42 -161.5t159 -55.5q121 0 188 98q47 72 166 8q53 -29 64.5 -60.5t-21.5 -88.5q-137 -190 -397 -191q-266 0 -387 168q-168 -168 -379 -168q-166 0 -264.5 94.5t-98.5 229.5zM346 330q0 -53 34 -87t95 -34q162 0 244 115q-14 45 -14 137v20q-209 10 -284 -26.5 t-75 -120.5v-4zM987 653h387v58q0 76 -46 137t-148 61q-193 0 -193 -219v-37z" />
<glyph unicode="&#xe7;" horiz-adv-x="1103" d="M102 424v268q0 213 137.5 332t335.5 119q162 0 276 -76t150 -217q14 -57 -13 -87t-97 -44q-72 -16 -102.5 -2t-45.5 65q-16 55 -61 91t-107 36q-186 0 -186 -233v-252q0 -215 197 -215q66 0 102.5 31.5t67.5 91.5q41 80 164 10q57 -35 70.5 -67.5t-13.5 -96.5 q-88 -174 -332 -198v-43q82 0 128 -49.5t46 -118.5v-15q0 -72 -65.5 -126t-171.5 -54q-139 0 -232 68q-33 25 -14 75q27 76 86 41q70 -43 141 -43q70 0 70 58q0 53 -92 53q-23 0 -34 1t-24.5 10t-13.5 30v117q-170 27 -268.5 139.5t-98.5 300.5z" />
<glyph unicode="&#xe8;" horiz-adv-x="1138" d="M102 424q0 -211 122 -330t356 -119q283 0 413 193q33 57 20.5 88t-65.5 59q-119 63 -164 -4q-68 -102 -204 -102q-195 0 -195 205v45h518q63 0 100 34.5t37 96.5v61q0 492 -465 492q-215 0 -344 -124t-129 -339v-256zM266.5 1545.5q22.5 23.5 87.5 23.5q115 0 150 -60 l123 -211q41 -72 -70 -71q-74 0 -111 49l-174 207q-28 39 -5.5 62.5zM385 653v37q0 219 188 219q195 0 195 -196v-60h-383z" />
<glyph unicode="&#xe9;" horiz-adv-x="1138" d="M102 424v256q0 215 129 339t344 124q465 0 465 -492v-61q0 -61 -36.5 -96t-100.5 -35h-518v-45q0 -205 195 -205q137 0 204 102q45 68 164 4q53 -29 65.5 -59.5t-20.5 -87.5q-131 -193 -413 -193q-233 0 -355.5 119t-122.5 330zM385 653h383v60q0 197 -195 196 q-188 0 -188 -219v-37zM516 1298l123 211q35 59 149 60q66 0 88.5 -23.5t-6.5 -62.5l-174 -207q-37 -49 -110 -49q-111 -1 -70 71z" />
<glyph unicode="&#xea;" horiz-adv-x="1138" d="M102 424q0 -211 122 -330t356 -119q283 0 413 193q33 57 20.5 88t-65.5 59q-119 63 -164 -4q-68 -102 -204 -102q-195 0 -195 205v45h518q63 0 100 34.5t37 96.5v61q0 492 -465 492q-215 0 -344 -124t-129 -339v-256zM330 1317l143 219q33 51 107 51q84 0 116 -49 l146 -221q18 -29 -6.5 -47.5t-71.5 -18.5q-37 0 -59.5 8.5t-28.5 16.5t-17 27l-73 141l-74 -141q-10 -18 -16.5 -26.5t-29 -17t-58.5 -8.5q-47 0 -71.5 18.5t-6.5 47.5zM385 653v37q0 219 188 219q195 0 195 -196v-60h-383z" />
<glyph unicode="&#xeb;" horiz-adv-x="1138" d="M102 424q0 -211 122 -330t356 -119q283 0 413 193q33 57 20.5 88t-65.5 59q-119 63 -164 -4q-68 -102 -204 -102q-195 0 -195 205v45h518q63 0 100 34.5t37 96.5v61q0 492 -465 492q-215 0 -344 -124t-129 -339v-256zM258 1341v105q0 49 28.5 68.5t92 19.5t92.5 -19.5 t29 -68.5v-105q0 -49 -29 -68.5t-90 -19.5q-63 0 -93 19.5t-30 68.5zM385 653v37q0 219 188 219q195 0 195 -196v-60h-383zM680 1341v105q0 49 28.5 68.5t92 19.5t92.5 -19.5t29 -68.5v-105q0 -49 -29 -68.5t-90 -19.5q-63 0 -93 19.5t-30 68.5z" />
<glyph unicode="&#xec;" horiz-adv-x="542" d="M-28.5 1545.5q22.5 23.5 87.5 23.5q115 0 150 -60l123 -211q41 -72 -70 -71q-74 0 -110 49l-175 207q-28 39 -5.5 62.5zM127 96q0 -63 33 -86.5t110.5 -23.5t110.5 23.5t33 86.5v926q0 63 -33 87t-110.5 24t-110.5 -24t-33 -87v-926z" />
<glyph unicode="&#xed;" horiz-adv-x="542" d="M127 96v926q0 63 33 87t110.5 24t110.5 -24t33 -87v-926q0 -63 -33 -86.5t-110.5 -23.5t-110.5 23.5t-33 86.5zM223 1298l123 211q35 59 150 60q66 0 88 -23.5t-6 -62.5l-175 -207q-37 -49 -110 -49q-111 -1 -70 71z" />
<glyph unicode="&#xee;" horiz-adv-x="542" d="M14 1317l144 219q33 51 106 51q84 0 117 -49l145 -221q18 -29 -6 -47.5t-71 -18.5q-37 0 -59.5 8.5t-29 16.5t-16.5 27l-74 141l-73 -141q-10 -18 -16.5 -26.5t-29 -17t-59.5 -8.5q-47 0 -71.5 18.5t-6.5 47.5zM127 96q0 -63 33 -86.5t110.5 -23.5t110.5 23.5t33 86.5 v926q0 63 -33 87t-110.5 24t-110.5 -24t-33 -87v-926z" />
<glyph unicode="&#xef;" horiz-adv-x="524" d="M-61 1341v105q0 49 28.5 68.5t92 19.5t92 -19.5t28.5 -68.5v-105q0 -49 -28.5 -68.5t-90.5 -19.5q-63 0 -92.5 19.5t-29.5 68.5zM127 96q0 -63 33 -86.5t110.5 -23.5t110.5 23.5t33 86.5v926q0 63 -33 87t-110.5 24t-110.5 -24t-33 -87v-926zM360 1341v105q0 49 29 68.5 t92.5 19.5t92 -19.5t28.5 -68.5v-105q0 -49 -28.5 -68.5t-90.5 -19.5q-63 0 -93 19.5t-30 68.5z" />
<glyph unicode="&#xf0;" horiz-adv-x="1267" d="M113 432v203q0 217 129 334.5t354 117.5q72 0 145.5 -20t112.5 -51q-47 131 -139 207l-35 -41q-55 -70 -139 10q-80 70 -23 133l33 35l-25 20q-51 47 -54 84t44 92q86 104 158 48q27 -20 51 -43l43 47q35 37 66.5 33.5t74.5 -44.5q78 -74 21 -135l-45 -49 q260 -274 260 -733v-160q0 -113 -26.5 -206t-86 -172t-167 -123t-253.5 -44q-499 0 -499 457zM399 424q0 -121 62.5 -168t150.5 -47q119 0 182.5 48t63.5 192v165q0 123 -69.5 184.5t-172.5 61.5q-94 0 -155.5 -61.5t-61.5 -175.5v-199z" />
<glyph unicode="&#xf1;" horiz-adv-x="1218" d="M127 98v928q0 59 31.5 83t107.5 24t108 -24t32 -83v-63q158 180 366 180q154 0 239 -97.5t85 -242.5v-705q0 -63 -33 -86.5t-111 -23.5t-110.5 23.5t-32.5 86.5v627q0 184 -156 184q-158 0 -239 -174v-637q0 -63 -33 -86.5t-110.5 -23.5t-110.5 23.5t-33 86.5zM303 1413 q94 129 215 129q61 2 137 -40t101 -42q18 0 35.5 10.5t22.5 16.5t26 29q43 49 110 -15q53 -57 21 -106q-94 -131 -213 -131q-68 0 -140.5 42t-99.5 42q-18 0 -35.5 -10.5t-22.5 -16.5t-26 -29q-43 -49 -110 15q-54 57 -21 106z" />
<glyph unicode="&#xf2;" horiz-adv-x="1218" d="M113 406v299q0 211 129 324.5t370 113.5q236 0 365 -114t129 -324v-291q0 -211 -129 -325t-366.5 -114t-367.5 114t-130 317zM313.5 1545.5q22.5 23.5 87.5 23.5q115 0 150 -60l123 -211q41 -72 -70 -71q-74 0 -110 49l-175 207q-28 39 -5.5 62.5zM399 430 q0 -117 57.5 -169t153.5 -52q209 0 209 219v262q0 219 -209 219q-211 0 -211 -221v-258z" />
<glyph unicode="&#xf3;" horiz-adv-x="1218" d="M113 406v299q0 211 129 324.5t370 113.5q236 0 365 -114t129 -324v-291q0 -211 -129 -325t-366.5 -114t-367.5 114t-130 317zM399 430q0 -117 57.5 -169t153.5 -52q209 0 209 219v262q0 219 -209 219q-211 0 -211 -221v-258zM541 1298l123 211q35 59 149 60 q66 0 88.5 -23.5t-6.5 -62.5l-174 -207q-37 -49 -111 -49q-110 -1 -69 71z" />
<glyph unicode="&#xf4;" horiz-adv-x="1218" d="M113 406v299q0 211 129 324.5t370 113.5q236 0 365 -114t129 -324v-291q0 -211 -129 -325t-366.5 -114t-367.5 114t-130 317zM360 1317l144 219q33 51 106 51q84 0 117 -49l145 -221q18 -29 -6 -47.5t-71 -18.5q-37 0 -59.5 8.5t-29 16.5t-16.5 27l-74 141l-73 -141 q-10 -18 -16.5 -26.5t-29 -17t-59.5 -8.5q-47 0 -71.5 18.5t-6.5 47.5zM399 430q0 -117 57.5 -169t153.5 -52q209 0 209 219v262q0 219 -209 219q-211 0 -211 -221v-258z" />
<glyph unicode="&#xf5;" horiz-adv-x="1218" d="M113 406v299q0 211 129 324.5t370 113.5q236 0 365 -114t129 -324v-291q0 -211 -129 -325t-366.5 -114t-367.5 114t-130 317zM307 1413q94 129 215 129q61 2 137 -40t101 -42q18 0 35.5 10.5t22.5 16.5t26 29q43 49 110 -15q53 -57 21 -106q-94 -131 -213 -131 q-68 0 -140.5 42t-99.5 42q-18 0 -35.5 -10.5t-22.5 -16.5t-26 -29q-43 -49 -110 15q-54 57 -21 106zM399 430q0 -117 57.5 -169t153.5 -52q209 0 209 219v262q0 219 -209 219q-211 0 -211 -221v-258z" />
<glyph unicode="&#xf6;" horiz-adv-x="1218" d="M113 406v299q0 211 129 324.5t370 113.5q236 0 365 -114t129 -324v-291q0 -211 -129 -325t-366.5 -114t-367.5 114t-130 317zM301 1341v105q0 49 28.5 68.5t92 19.5t92.5 -19.5t29 -68.5v-105q0 -49 -29 -68.5t-90 -19.5q-63 0 -93 19.5t-30 68.5zM399 430 q0 -117 57.5 -169t153.5 -52q209 0 209 219v262q0 219 -209 219q-211 0 -211 -221v-258zM723 1341v105q0 49 28.5 68.5t92 19.5t92.5 -19.5t29 -68.5v-105q0 -49 -29 -68.5t-90 -19.5q-63 0 -93 19.5t-30 68.5z" />
<glyph unicode="&#xf7;" d="M156 629q0 63 19.5 91t68.5 28h850q49 0 68.5 -28t19.5 -91q0 -59 -19.5 -86t-68.5 -27h-850q-49 0 -68.5 27t-19.5 86zM539 160v98q0 55 30.5 77.5t96 22.5t97.5 -22.5t32 -77.5v-98q0 -55 -32 -78t-97.5 -23t-96 23t-30.5 78zM539 1006v98q0 55 30.5 77.5t96 22.5 t97.5 -22.5t32 -77.5v-98q0 -55 -32 -78t-97.5 -23t-96 23t-30.5 78z" />
<glyph unicode="&#xf8;" horiz-adv-x="1218" d="M113 406v299q0 211 129 324.5t370 113.5q127 0 228 -35l12 20q33 53 52.5 65.5t78.5 12.5q100 0 55 -73l-61 -103q129 -117 129 -325v-291q0 -211 -129 -325t-367 -114q-127 0 -231 35l-31 -53q-29 -49 -46 -59.5t-77 -10.5q-102 0 -65 66l80 135q-127 111 -127 318z M399 430q0 -25 4 -65l308 526q-43 18 -103 18q-209 0 -209 -221v-258zM506 227q47 -18 104 -18q209 0 209 219v262q0 6 -6 62z" />
<glyph unicode="&#xf9;" horiz-adv-x="1218" d="M121 315v705q0 63 32.5 86.5t110.5 23.5t112 -23.5t34 -86.5v-631q0 -180 145 -180q68 0 135.5 38t114.5 105v668q0 63 32.5 86.5t110.5 23.5t111 -23.5t33 -86.5v-924q0 -59 -32 -82.5t-107.5 -23.5t-107.5 23.5t-32 82.5v19q-168 -139 -348 -140q-170 0 -257 89 t-87 251zM309.5 1545.5q22.5 23.5 87.5 23.5q115 0 150 -60l123 -211q41 -72 -70 -71q-74 0 -111 49l-174 207q-28 39 -5.5 62.5z" />
<glyph unicode="&#xfa;" horiz-adv-x="1218" d="M121 315v705q0 63 32.5 86.5t110.5 23.5t112 -23.5t34 -86.5v-631q0 -180 145 -180q68 0 135.5 38t114.5 105v668q0 63 32.5 86.5t110.5 23.5t111 -23.5t33 -86.5v-924q0 -59 -32 -82.5t-107.5 -23.5t-107.5 23.5t-32 82.5v19q-168 -139 -348 -140q-170 0 -257 89 t-87 251zM547 1298l123 211q35 59 149 60q66 0 88.5 -23.5t-6.5 -62.5l-174 -207q-37 -49 -111 -49q-110 -1 -69 71z" />
<glyph unicode="&#xfb;" horiz-adv-x="1218" d="M121 315v705q0 63 32.5 86.5t110.5 23.5t112 -23.5t34 -86.5v-631q0 -180 145 -180q68 0 135.5 38t114.5 105v668q0 63 32.5 86.5t110.5 23.5t111 -23.5t33 -86.5v-924q0 -59 -32 -82.5t-107.5 -23.5t-107.5 23.5t-32 82.5v19q-168 -139 -348 -140q-170 0 -257 89 t-87 251zM350 1317l144 219q33 51 106 51q84 0 117 -49l145 -221q18 -29 -6.5 -47.5t-71.5 -18.5q-37 0 -59.5 8.5t-28.5 16.5t-16 27l-74 141l-74 -141q-10 -18 -16 -26.5t-28.5 -17t-59.5 -8.5q-47 0 -71.5 18.5t-6.5 47.5z" />
<glyph unicode="&#xfc;" horiz-adv-x="1218" d="M121 315v705q0 63 32.5 86.5t110.5 23.5t112 -23.5t34 -86.5v-631q0 -180 145 -180q68 0 135.5 38t114.5 105v668q0 63 32.5 86.5t110.5 23.5t111 -23.5t33 -86.5v-924q0 -59 -32 -82.5t-107.5 -23.5t-107.5 23.5t-32 82.5v19q-168 -139 -348 -140q-170 0 -257 89 t-87 251zM274 1341v105q0 49 29 68.5t92.5 19.5t92 -19.5t28.5 -68.5v-105q0 -49 -28.5 -68.5t-90.5 -19.5q-63 0 -93 19.5t-30 68.5zM696 1341v105q0 49 29 68.5t92.5 19.5t92 -19.5t28.5 -68.5v-105q0 -49 -28.5 -68.5t-90.5 -19.5q-63 0 -93 19.5t-30 68.5z" />
<glyph unicode="&#xfd;" horiz-adv-x="1046" d="M31 1006q-23 66 8 96.5t119 30.5q84 0 119.5 -18.5t52.5 -74.5l207 -708l215 715q14 51 46.5 68.5t106.5 17.5q90 0 118 -28t5 -91l-360 -983q-57 -160 -138 -260.5t-190 -180.5q-51 -33 -85 -22.5t-75 67.5q-43 55 -44 93.5t48 72.5q70 45 116 92.5t81 126.5zM475 1298 l123 211q35 59 150 60q66 0 88 -23.5t-7 -62.5l-174 -207q-37 -49 -110 -49q-111 -1 -70 71z" />
<glyph unicode="&#xfe;" horiz-adv-x="1247" d="M131 -326v1758q0 63 33 86.5t110.5 23.5t110.5 -23.5t33 -86.5v-457q147 168 342 168q178 0 282.5 -118t104.5 -300v-315q0 -203 -118 -319t-279 -116q-123 0 -197 36t-135 104v-441q0 -63 -33 -86.5t-110.5 -23.5t-110.5 23.5t-33 86.5zM418 461q0 -98 54 -175t177 -77 q211 0 211 227v236q0 111 -51 174t-143 63q-117 0 -182.5 -78.5t-65.5 -226.5v-143z" />
<glyph unicode="&#xff;" horiz-adv-x="1046" d="M31 1006q-23 66 8 96.5t119 30.5q84 0 119.5 -18.5t52.5 -74.5l207 -708l215 715q14 51 46.5 68.5t106.5 17.5q90 0 118 -28t5 -91l-360 -983q-57 -160 -138 -260.5t-190 -180.5q-51 -33 -85 -22.5t-75 67.5q-43 55 -44 93.5t48 72.5q70 45 116 92.5t81 126.5zM205 1341 v105q0 49 28.5 68.5t92 19.5t92 -19.5t28.5 -68.5v-105q0 -49 -28.5 -68.5t-89.5 -19.5q-63 0 -93 19.5t-30 68.5zM627 1341v105q0 49 28.5 68.5t92 19.5t92 -19.5t28.5 -68.5v-105q0 -49 -28.5 -68.5t-89.5 -19.5q-63 0 -93 19.5t-30 68.5z" />
<glyph unicode="&#x152;" horiz-adv-x="1945" d="M111 518v461q0 246 149.5 395.5t435.5 149.5q164 0 305 -92q31 68 173 67h583q57 0 79 -30.5t22 -100.5q0 -68 -21.5 -98.5t-79.5 -30.5h-475v-352h428h-2h2q53 0 74.5 -30t21.5 -97q0 -66 -21.5 -95.5t-74.5 -29.5h-428v-375h473h2q57 0 79 -30.5t22 -100.5 q0 -68 -21.5 -98.5t-79.5 -30.5h-583q-84 0 -126 20.5t-55 71.5q-98 -117 -297 -117q-289 0 -437 146.5t-148 396.5zM406 557q0 -158 67.5 -239.5t222.5 -81.5q291 0 291 317v391q0 322 -291 322q-156 0 -223 -82t-67 -238v-389z" />
<glyph unicode="&#x153;" horiz-adv-x="1869" d="M113 397v303q0 205 140 324t359 119q215 0 379 -117q133 117 322 117q467 0 467 -492v-61q0 -61 -37 -96t-101 -35h-516v-78q12 -172 193 -172q131 0 199 102q45 68 163 4q53 -29 65.5 -59.5t-20.5 -87.5q-131 -193 -407 -193q-205 0 -334 109q-127 -109 -367 -109 q-238 0 -371.5 110.5t-133.5 311.5zM399 414q0 -205 222 -205q113 0 164 50t51 165v256q2 113 -44.5 171t-170.5 58q-221 0 -222 -217v-278zM1126 653h377l4 60q0 197 -194 196h-2q-94 0 -139.5 -57t-45.5 -139v-60z" />
<glyph unicode="&#x178;" horiz-adv-x="1230" d="M14 1452q0 33 28 47t105 14q88 0 120 -11t59 -62l295 -586l280 580q27 55 58.5 67t138.5 12q129 0 129 -49q0 -20 -25 -63l-438 -813v-488q0 -66 -34 -90t-113.5 -24t-113.5 24.5t-34 89.5v488l-430 798q-25 48 -25 66zM289 1763v105q0 49 28.5 68.5t92 19.5t92 -19.5 t28.5 -68.5v-105q0 -49 -28.5 -68.5t-89.5 -19.5q-63 0 -93 19.5t-30 68.5zM711 1763v105q0 49 28.5 68.5t92 19.5t92 -19.5t28.5 -68.5v-105q0 -49 -28.5 -68.5t-89.5 -19.5q-63 0 -93 19.5t-30 68.5z" />
<glyph unicode="&#x2c6;" horiz-adv-x="741" d="M115 1317l143 219q33 51 107 51q84 0 116 -49l146 -221q18 -29 -6.5 -47.5t-71.5 -18.5q-37 0 -59.5 8.5t-28.5 16.5t-17 27l-73 141l-74 -141q-10 -18 -16.5 -26.5t-29 -17t-58.5 -8.5q-47 0 -71.5 18.5t-6.5 47.5z" />
<glyph unicode="&#x2dc;" horiz-adv-x="860" d="M104 1413q94 129 215 129q61 2 137 -40t101 -42q18 0 35.5 10.5t23 16.5t25.5 29q43 49 111 -15q53 -57 20 -106q-94 -131 -213 -131q-68 0 -140.5 42t-99.5 42q-18 0 -35.5 -10.5t-22.5 -16.5t-25 -29q-43 -49 -111 15q-54 57 -21 106z" />
<glyph unicode="&#x2000;" horiz-adv-x="997" />
<glyph unicode="&#x2001;" horiz-adv-x="1994" />
<glyph unicode="&#x2002;" horiz-adv-x="997" />
<glyph unicode="&#x2003;" horiz-adv-x="1994" />
<glyph unicode="&#x2004;" horiz-adv-x="663" />
<glyph unicode="&#x2005;" horiz-adv-x="497" />
<glyph unicode="&#x2006;" horiz-adv-x="331" />
<glyph unicode="&#x2007;" horiz-adv-x="331" />
<glyph unicode="&#x2008;" horiz-adv-x="247" />
<glyph unicode="&#x2009;" horiz-adv-x="397" />
<glyph unicode="&#x200a;" horiz-adv-x="110" />
<glyph unicode="&#x2010;" horiz-adv-x="1013" d="M102 618q0 59 18.5 86t65.5 27h641q47 0 65.5 -26.5t18.5 -86.5q0 -57 -18.5 -82.5t-65.5 -25.5h-641q-47 0 -65.5 25.5t-18.5 82.5z" />
<glyph unicode="&#x2011;" horiz-adv-x="1013" d="M102 618q0 59 18.5 86t65.5 27h641q47 0 65.5 -26.5t18.5 -86.5q0 -57 -18.5 -82.5t-65.5 -25.5h-641q-47 0 -65.5 25.5t-18.5 82.5z" />
<glyph unicode="&#x2012;" horiz-adv-x="1013" d="M102 618q0 59 18.5 86t65.5 27h641q47 0 65.5 -26.5t18.5 -86.5q0 -57 -18.5 -82.5t-65.5 -25.5h-641q-47 0 -65.5 25.5t-18.5 82.5z" />
<glyph unicode="&#x2013;" horiz-adv-x="1083" d="M100 625q0 57 17.5 81.5t62.5 24.5h727q45 0 62.5 -24.5t17.5 -81.5q0 -53 -17.5 -78t-62.5 -25h-727q-45 0 -62.5 25t-17.5 78z" />
<glyph unicode="&#x2014;" horiz-adv-x="2109" d="M100 625q0 57 17.5 81.5t62.5 24.5h1749q45 0 62.5 -24.5t17.5 -81.5q0 -53 -17.5 -78t-62.5 -25h-1749q-45 0 -62.5 25t-17.5 78z" />
<glyph unicode="&#x2018;" horiz-adv-x="542" d="M104 1028q0 180 97.5 322.5t214.5 189.5q45 18 86 -33q20 -27 21 -57.5t-25 -52.5q-70 -53 -92.5 -131t-24.5 -238q0 -61 -32 -83.5t-105 -22.5q-76 0 -108 22.5t-32 83.5z" />
<glyph unicode="&#x2019;" horiz-adv-x="579" d="M58 1007.5q-1 30.5 26 53.5q70 53 92.5 131t24.5 238q0 61 31.5 83.5t105.5 22.5q76 0 107.5 -22.5t31.5 -83.5q0 -180 -97 -322.5t-214 -189.5q-45 -18 -86 32q-21 27 -22 57.5z" />
<glyph unicode="&#x201a;" horiz-adv-x="495" d="M5 -219q-1 31 26 53q70 53 92 131t24 238q0 61 32 83.5t106 22.5q76 0 107.5 -22.5t31.5 -83.5q0 -180 -97.5 -322.5t-213.5 -189.5q-45 -18 -86 33q-21 26 -22 57z" />
<glyph unicode="&#x201c;" horiz-adv-x="1005" d="M98 1028q0 180 97.5 322.5t214.5 189.5q45 18 86 -33q20 -27 21 -57.5t-25 -52.5q-70 -53 -92.5 -131t-24.5 -238q0 -61 -32 -83.5t-105 -22.5q-76 0 -108 22.5t-32 83.5zM563 1028q0 180 97.5 322.5t213.5 189.5q45 18 87 -33q20 -27 21 -57.5t-26 -52.5 q-70 -53 -92 -131t-24 -238q0 -61 -32 -83.5t-106 -22.5q-76 0 -107.5 22.5t-31.5 83.5z" />
<glyph unicode="&#x201d;" horiz-adv-x="1030" d="M44 1009.5q-1 30.5 26 53.5q70 53 92 131t24 238q0 61 32 83.5t106 22.5q76 0 107.5 -22.5t31.5 -83.5q0 -180 -97.5 -322.5t-213.5 -189.5q-45 -18 -86 32q-21 27 -22 57.5zM509 1009.5q-1 30.5 26 53.5q70 53 92 131t24 238q0 61 32 83.5t105 22.5q76 0 108 -22.5 t32 -83.5q0 -180 -97.5 -322.5t-214.5 -189.5q-45 -18 -86 32q-20 27 -21 57.5z" />
<glyph unicode="&#x201e;" horiz-adv-x="960" d="M5 -266.5q-1 30.5 26 53.5q70 53 92 131t24 238q0 61 32 83.5t106 22.5q76 0 107.5 -22.5t31.5 -83.5q0 -180 -97.5 -322.5t-213.5 -189.5q-45 -18 -86 32q-21 27 -22 57.5zM470 -266.5q-1 30.5 26 53.5q70 53 92 131t24 238q0 61 32 83.5t106 22.5q76 0 107.5 -22.5 t31.5 -83.5q0 -180 -97.5 -322.5t-213.5 -189.5q-45 -18 -86 32q-21 27 -22 57.5z" />
<glyph unicode="&#x2022;" horiz-adv-x="931" d="M111 653.5q0 147.5 104 251t252 103.5q145 0 249.5 -103.5t104.5 -251t-104.5 -251t-249.5 -103.5q-147 0 -251.5 103.5t-104.5 251z" />
<glyph unicode="&#x2026;" horiz-adv-x="1570" d="M121 88v119q0 59 27.5 80.5t97 21.5t98.5 -21.5t29 -80.5v-119q0 -59 -28 -80.5t-97.5 -21.5t-98 21.5t-28.5 80.5zM639 88v119q0 59 27.5 80.5t97.5 21.5t98.5 -21.5t28.5 -80.5v-119q0 -59 -27.5 -80.5t-97.5 -21.5t-98.5 21.5t-28.5 80.5zM1217 88v119q0 59 27.5 80.5 t97 21.5t98 -21.5t28.5 -80.5v-119q0 -59 -27.5 -80.5t-97 -21.5t-98 21.5t-28.5 80.5z" />
<glyph unicode="&#x202f;" horiz-adv-x="397" />
<glyph unicode="&#x2039;" horiz-adv-x="696" d="M119 541q-47 74 0 145l243 354q27 41 59 44t81 -27q98 -63 51 -131l-217 -312l217 -313q47 -68 -51 -131q-49 -31 -81 -28t-59 44z" />
<glyph unicode="&#x203a;" horiz-adv-x="696" d="M143 301l217 313l-217 312q-47 68 52 131q49 31 80.5 27.5t58.5 -44.5l244 -354q47 -72 0 -145l-244 -355q-27 -41 -58.5 -44t-80.5 28q-99 63 -52 131z" />
<glyph unicode="&#x205f;" horiz-adv-x="497" />
<glyph unicode="&#x20ac;" d="M55 594q0 59 18.5 86t65.5 27h103v73h-103q-47 0 -65.5 25.5t-18.5 81.5q0 59 18.5 85.5t65.5 26.5h103v27q0 217 135 356.5t362 139.5q225 0 339 -79t167 -216q23 -57 -9 -89t-108 -48q-76 -14 -102.5 -2t-46.5 61q-57 133 -227 133q-106 0 -160.5 -66.5t-54.5 -179.5 v-37h239q47 0 65.5 -26.5t18.5 -85.5q0 -106 -84 -107h-239v-73h239q47 0 65.5 -27t18.5 -86q0 -55 -18.5 -81t-65.5 -26h-239v-26q0 -113 54 -179.5t161 -66.5q170 0 227 133q20 49 47 61.5t102 -1.5q76 -16 108 -48t9 -90q-53 -137 -166.5 -216t-339.5 -79 q-227 0 -362 139.5t-135 356.5v16h-103q-47 0 -65.5 26t-18.5 81z" />
<glyph unicode="&#x2122;" horiz-adv-x="1179" d="M27 1446q0 53 43 53h389q41 0 41 -53q0 -51 -41 -51h-137v-463q0 -29 -13.5 -39t-46.5 -10t-46 10t-13 39v463h-133q-43 0 -43 51zM547 926v522q0 51 78 51q51 0 70.5 -9t27.5 -40l76 -264q31 -113 39 -193q4 70 41 195q39 135 79 264q8 29 28 38t65 9q78 0 77 -49v-524 q0 -43 -55 -43q-51 0 -51 43v286q0 115 4 164h-2l-131 -463q-4 -31 -57 -30q-59 0 -70 30l-117 467h-2q6 -57 6 -151v-303q0 -43 -55 -43q-51 0 -51 43z" />
<glyph unicode="&#xe000;" horiz-adv-x="1135" d="M0 1135h1135v-1135h-1135v1135z" />
<glyph unicode="&#xfb01;" horiz-adv-x="1269" d="M55 964.5q0 63.5 18.5 89t69.5 25.5h74v70q0 184 119 285.5t315 101.5q223 0 367 -127q72 -66 -17 -154q-86 -82 -139 -26q-68 74 -190 74q-88 0 -128 -42t-40 -133v-49h493q78 0 111 -23.5t33 -86.5v-873q0 -63 -33 -86.5t-110.5 -23.5t-110.5 23.5t-33 86.5v754h-350 v-754q0 -63 -33 -86.5t-110.5 -23.5t-110.5 23.5t-33 86.5v754h-74q-51 0 -69.5 25.5t-18.5 89z" />
<glyph unicode="&#xfb02;" horiz-adv-x="1273" d="M55 964.5q0 63.5 18.5 89t69.5 25.5h74v95q0 174 130 273t323 99q219 0 393 -104q78 -45 78 -131v-1207q0 -63 -33 -86.5t-110.5 -23.5t-110.5 23.5t-33 86.5v1162q-70 61 -205 61q-88 0 -116.5 -45t-28.5 -119v-84h121q51 0 69.5 -25.5t18.5 -89t-18.5 -89t-69.5 -25.5 h-121v-754q0 -63 -33 -86.5t-110.5 -23.5t-110.5 23.5t-33 86.5v754h-74q-51 0 -69.5 25.5t-18.5 89z" />
<glyph unicode="&#xfb03;" horiz-adv-x="2201" d="M1786 96q0 -63 33 -86.5t110.5 -23.5t110.5 23.5t33 86.5v926q0 63 -33 87t-110.5 24t-110.5 -24t-33 -87v-926zM1786 1352v96q0 96 143.5 96t143.5 -96v-96q0 -96 -143.5 -96t-143.5 96zM884 964.5q0 63.5 18.5 89t69.5 25.5h74v58q0 399 383 399q160 0 262 -98 q34 -40 35 -69q0 -32 -49 -81q-52 -50 -92 -50q-27 0 -47 24q-39 41 -103 41q-102 0 -102 -117v-107h219q51 0 69.5 -25.5t18.5 -89t-18.5 -89t-69.5 -25.5h-219v-754q0 -63 -33 -86.5t-110.5 -23.5t-110.5 23.5t-33 86.5v754h-74q-51 0 -69.5 25.5t-18.5 89zM55 964.5 q0 63.5 18.5 89t69.5 25.5h74v58q0 399 383 399q160 0 262 -98q34 -40 35 -69q0 -32 -49 -81q-52 -50 -92 -50q-27 0 -47 24q-39 41 -103 41q-102 0 -102 -117v-107h219q51 0 69.5 -25.5t18.5 -89t-18.5 -89t-69.5 -25.5h-219v-754q0 -63 -33 -86.5t-110.5 -23.5 t-110.5 23.5t-33 86.5v754h-74q-51 0 -69.5 25.5t-18.5 89z" />
<glyph unicode="&#xfb04;" horiz-adv-x="2209" d="M1790 104v1328q0 63 33 86.5t110.5 23.5t110.5 -23.5t33 -86.5v-1328q0 -63 -33 -86.5t-110.5 -23.5t-110.5 23.5t-33 86.5zM884 964.5q0 63.5 18.5 89t69.5 25.5h74v58q0 399 383 399q160 0 262 -98q34 -40 35 -69q0 -32 -49 -81q-52 -50 -92 -50q-27 0 -47 24 q-39 41 -103 41q-102 0 -102 -117v-107h219q51 0 69.5 -25.5t18.5 -89t-18.5 -89t-69.5 -25.5h-219v-754q0 -63 -33 -86.5t-110.5 -23.5t-110.5 23.5t-33 86.5v754h-74q-51 0 -69.5 25.5t-18.5 89zM55 964.5q0 63.5 18.5 89t69.5 25.5h74v58q0 399 383 399q160 0 262 -98 q34 -40 35 -69q0 -32 -49 -81q-52 -50 -92 -50q-27 0 -47 24q-39 41 -103 41q-102 0 -102 -117v-107h219q51 0 69.5 -25.5t18.5 -89t-18.5 -89t-69.5 -25.5h-219v-754q0 -63 -33 -86.5t-110.5 -23.5t-110.5 23.5t-33 86.5v754h-74q-51 0 -69.5 25.5t-18.5 89z" />
</font>
</defs>
</svg>
